Andika-Bold.ufo
<glyph name="Space" format="1">
  <advance width="550"/>
  <unicode hex="0020"/>
  <outline>
    <contour>
      <point x="268" y="0" type="move" name="H"/>
    </contour>
    <contour>
      <point x="268" y="-100" type="move" name="L"/>
    </contour>
    <contour>
      <point x="319" y="0" type="move" name="O"/>
    </contour>
    <contour>
      <point x="537" y="1000" type="move" name="R"/>
    </contour>
    <contour>
      <point x="268" y="1530" type="move" name="U"/>
    </contour>
  </outline>
</glyph>
<glyph name="ExclamationMrk" format="1">
  <advance width="780"/>
  <unicode hex="0021"/>
  <outline>
    <contour>
      <point x="530" y="500" type="line" name="hr00"/>
      <point x="536" y="790"/>
      <point x="531" y="1076"/>
      <point x="570" y="1510" type="curve"/>
      <point x="235" y="1510" type="line"/>
      <point x="273" y="1076"/>
      <point x="268" y="790"/>
      <point x="275" y="500" type="curve"/>
    </contour>
    <contour>
      <point x="230" y="150" type="curve" smooth="yes"/>
      <point x="230" y="46"/>
      <point x="304" y="-25"/>
      <point x="405" y="-25" type="curve" smooth="yes"/>
      <point x="507" y="-25"/>
      <point x="580" y="46"/>
      <point x="580" y="150" type="curve" smooth="yes"/>
      <point x="580" y="252"/>
      <point x="507" y="325"/>
      <point x="405" y="325" type="curve" smooth="yes"/>
      <point x="304" y="325"/>
      <point x="230" y="252"/>
    </contour>
  </outline>
</glyph>
<glyph name="QuotMrk" format="1">
  <advance width="1085"/>
  <unicode hex="0022"/>
  <outline>
    <contour>
      <point x="450" y="1045" type="line" name="hr00"/>
      <point x="455" y="1186"/>
      <point x="456" y="1339"/>
      <point x="485" y="1585" type="curve"/>
      <point x="240" y="1585" type="line"/>
      <point x="271" y="1339"/>
      <point x="271" y="1186"/>
      <point x="275" y="1045" type="curve"/>
    </contour>
    <contour>
      <point x="810" y="1045" type="line"/>
      <point x="815" y="1186"/>
      <point x="816" y="1339"/>
      <point x="845" y="1585" type="curve"/>
      <point x="600" y="1585" type="line"/>
      <point x="631" y="1339"/>
      <point x="631" y="1186"/>
      <point x="635" y="1045" type="curve"/>
    </contour>
  </outline>
</glyph>
<glyph name="NumSgn" format="1">
  <advance width="1240"/>
  <unicode hex="0023"/>
  <outline>
    <contour>
      <point x="422" y="1360" type="line"/>
      <point x="62" y="100" type="line" name="hr01"/>
      <point x="282" y="100" type="line"/>
      <point x="642" y="1360" type="line" name="hr02"/>
    </contour>
    <contour>
      <point x="20" y="425" type="line"/>
      <point x="1111" y="425" type="line"/>
      <point x="1111" y="635" type="line"/>
      <point x="20" y="635" type="line"/>
    </contour>
    <contour>
      <point x="79" y="850" type="line"/>
      <point x="1170" y="850" type="line"/>
      <point x="1170" y="1060" type="line"/>
      <point x="79" y="1060" type="line"/>
    </contour>
    <contour>
      <point x="897" y="1360" type="line"/>
      <point x="537" y="100" type="line" name="hr03"/>
      <point x="757" y="100" type="line"/>
      <point x="1117" y="1360" type="line" name="hr04"/>
    </contour>
  </outline>
</glyph>
<glyph name="DollarSgn" format="2">
  <advance width="1240"/>
  <unicode hex="0024"/>
  <outline>
    <contour>
      <point x="1026" y="1316" type="line"/>
      <point x="906" y="1374"/>
      <point x="784" y="1389"/>
      <point x="643" y="1389" type="curve" smooth="yes"/>
      <point x="337" y="1389"/>
      <point x="170" y="1203"/>
      <point x="170" y="1017" type="curve" smooth="yes"/>
      <point x="170" y="830"/>
      <point x="295" y="730"/>
      <point x="560" y="623" type="curve" smooth="yes"/>
      <point x="822" y="517"/>
      <point x="871" y="472"/>
      <point x="871" y="386" type="curve" smooth="yes"/>
      <point x="871" y="267"/>
      <point x="764" y="211"/>
      <point x="606" y="211" type="curve" smooth="yes"/>
      <point x="460" y="211"/>
      <point x="317" y="281"/>
      <point x="215" y="383" type="curve"/>
      <point x="143" y="124" type="line"/>
      <point x="236" y="49"/>
      <point x="408" y="0"/>
      <point x="606" y="0" type="curve" smooth="yes"/>
      <point x="867" y="0"/>
      <point x="1106" y="147"/>
      <point x="1106" y="414" type="curve" smooth="yes"/>
      <point x="1106" y="633"/>
      <point x="947" y="723"/>
      <point x="699" y="826" type="curve" smooth="yes"/>
      <point x="451" y="929"/>
      <point x="405" y="969"/>
      <point x="405" y="1040" type="curve" smooth="yes"/>
      <point x="405" y="1132"/>
      <point x="486" y="1188"/>
      <point x="633" y="1188" type="curve" smooth="yes"/>
      <point x="761" y="1188"/>
      <point x="896" y="1154"/>
      <point x="969" y="1077" type="curve"/>
    </contour>
    <contour>
      <point x="568" y="1600" type="line"/>
      <point x="568" y="788" type="line"/>
      <point x="538" y="726" type="line"/>
      <point x="538" y="-220" type="line"/>
      <point x="708" y="-220" type="line"/>
      <point x="708" y="668" type="line"/>
      <point x="738" y="734" type="line"/>
      <point x="738" y="1600" type="line"/>
    </contour>
  </outline>
</glyph>
<glyph name="Apos" format="1">
  <advance width="625"/>
  <unicode hex="0027"/>
  <outline>
    <contour>
      <point x="400" y="1045" type="line" name="hr00"/>
      <point x="405" y="1186"/>
      <point x="406" y="1339"/>
      <point x="435" y="1585" type="curve"/>
      <point x="190" y="1585" type="line"/>
      <point x="221" y="1339"/>
      <point x="221" y="1186"/>
      <point x="225" y="1045" type="curve"/>
    </contour>
  </outline>
</glyph>
<glyph name="RtParen" format="1">
  <advance width="860"/>
  <unicode hex="0029"/>
  <outline>
    <contour>
      <point x="185" y="1455" type="line" name="hr00"/>
      <point x="395" y="1261"/>
      <point x="485" y="938"/>
      <point x="485" y="635" type="curve" smooth="yes"/>
      <point x="485" y="335"/>
      <point x="399" y="11"/>
      <point x="175" y="-240" type="curve"/>
      <point x="326" y="-410" type="line"/>
      <point x="601" y="-125"/>
      <point x="746" y="218"/>
      <point x="746" y="625" type="curve" smooth="yes"/>
      <point x="746" y="1062"/>
      <point x="571" y="1444"/>
      <point x="306" y="1640" type="curve"/>
    </contour>
  </outline>
</glyph>
<glyph name="PlusSgn" format="2">
  <advance width="1200"/>
  <unicode hex="002B"/>
  <outline>
    <contour>
      <point x="495" y="1180" type="line"/>
      <point x="495" y="285" type="line"/>
      <point x="705" y="285" type="line"/>
      <point x="705" y="1180" type="line"/>
    </contour>
    <contour>
      <point x="155" y="630" type="line"/>
      <point x="1045" y="630" type="line"/>
      <point x="1045" y="840" type="line"/>
      <point x="155" y="840" type="line"/>
    </contour>
  </outline>
</glyph>
<glyph name="Comma" format="1">
  <advance width="665"/>
  <unicode hex="002C"/>
  <outline>
    <contour>
      <point x="185" y="50" type="line" name="hr00"/>
      <point x="335" y="50" type="line"/>
      <point x="335" y="-34"/>
      <point x="300" y="-153"/>
      <point x="195" y="-265" type="curve"/>
      <point x="310" y="-335" type="line"/>
      <point x="434" y="-228"/>
      <point x="540" y="-69"/>
      <point x="540" y="110" type="curve" smooth="yes"/>
      <point x="540" y="234"/>
      <point x="469" y="320"/>
      <point x="355" y="320" type="curve" smooth="yes"/>
      <point x="262" y="320"/>
      <point x="185" y="235"/>
      <point x="185" y="160" type="curve" smooth="yes"/>
    </contour>
  </outline>
</glyph>
<glyph name="HyphenMinus" format="1">
  <advance width="895"/>
  <unicode hex="002D"/>
  <outline>
    <contour>
      <point x="80" y="530" type="line" name="hr00"/>
      <point x="815" y="530" type="line"/>
      <point x="815" y="730" type="line"/>
      <point x="80" y="730" type="line"/>
    </contour>
    <contour>
      <point x="450" y="1100" type="move" name="U"/>
    </contour>
  </outline>
</glyph>
<glyph name="FullStop" format="1">
  <advance width="710"/>
  <unicode hex="002E"/>
  <outline>
    <contour>
      <point x="200" y="150" type="curve" smooth="yes" name="hr00"/>
      <point x="200" y="46"/>
      <point x="274" y="-25"/>
      <point x="375" y="-25" type="curve" smooth="yes"/>
      <point x="477" y="-25"/>
      <point x="550" y="46"/>
      <point x="550" y="150" type="curve" smooth="yes"/>
      <point x="550" y="252"/>
      <point x="477" y="325"/>
      <point x="375" y="325" type="curve" smooth="yes"/>
      <point x="274" y="325"/>
      <point x="200" y="252"/>
    </contour>
  </outline>
</glyph>
<glyph name="Solidus" format="1">
  <advance width="1080"/>
  <unicode hex="002F"/>
  <outline>
    <contour>
      <point x="840" y="1600" type="line" name="hr00"/>
      <point x="10" y="-245" type="line"/>
      <point x="240" y="-245" type="line"/>
      <point x="1070" y="1600" type="line"/>
    </contour>
  </outline>
</glyph>
<glyph name="DigitZero" format="1">
  <advance width="1240"/>
  <unicode hex="0030"/>
  <outline>
    <contour>
      <point x="870" y="715" type="curve" smooth="yes" name="hr00"/>
      <point x="870" y="368"/>
      <point x="782" y="205"/>
      <point x="620" y="205" type="curve" smooth="yes"/>
      <point x="452" y="205"/>
      <point x="370" y="375"/>
      <point x="370" y="745" type="curve" smooth="yes"/>
      <point x="370" y="1093"/>
      <point x="457" y="1255"/>
      <point x="620" y="1255" type="curve" smooth="yes"/>
      <point x="792" y="1255"/>
      <point x="870" y="1086"/>
    </contour>
    <contour>
      <point x="1155" y="740" type="curve" smooth="yes"/>
      <point x="1155" y="1286"/>
      <point x="970" y="1485"/>
      <point x="630" y="1485" type="curve" smooth="yes"/>
      <point x="311" y="1485"/>
      <point x="85" y="1283"/>
      <point x="85" y="720" type="curve" smooth="yes"/>
      <point x="85" y="165"/>
      <point x="291" y="-25"/>
      <point x="610" y="-25" type="curve" smooth="yes"/>
      <point x="931" y="-25"/>
      <point x="1155" y="161"/>
    </contour>
    <contour>
      <point x="625" y="-100" type="move" name="L"/>
    </contour>
    <contour>
      <point x="625" y="1530" type="move" name="U"/>
    </contour>
  </outline>
</glyph>
<glyph name="DigitOne" format="1">
  <advance width="1240"/>
  <unicode hex="0031"/>
  <outline>
    <contour>
      <point x="1090" y="0" type="line" name="hr00"/>
      <point x="1090" y="235" type="line"/>
      <point x="782" y="235" type="line"/>
      <point x="782" y="1460" type="line"/>
      <point x="507" y="1460" type="line"/>
      <point x="192" y="1278" type="line"/>
      <point x="227" y="1018" type="line"/>
      <point x="507" y="1170" type="line"/>
      <point x="507" y="235" type="line"/>
      <point x="200" y="235" type="line"/>
      <point x="200" y="0" type="line"/>
    </contour>
    <contour>
      <point x="625" y="-100" type="move" name="L"/>
    </contour>
    <contour>
      <point x="625" y="1530" type="move" name="U"/>
    </contour>
  </outline>
</glyph>
<glyph name="DigitTwo" format="1">
  <advance width="1240"/>
  <unicode hex="0032"/>
  <outline>
    <contour>
      <point x="1113" y="260" type="line" name="hr00"/>
      <point x="1033" y="246"/>
      <point x="965" y="245"/>
      <point x="768" y="245" type="curve" smooth="yes"/>
      <point x="503" y="245" type="line"/>
      <point x="722" y="422"/>
      <point x="1069" y="739"/>
      <point x="1069" y="1065" type="curve" smooth="yes"/>
      <point x="1069" y="1323"/>
      <point x="873" y="1485"/>
      <point x="583" y="1485" type="curve" smooth="yes"/>
      <point x="414" y="1485"/>
      <point x="219" y="1402"/>
      <point x="128" y="1290" type="curve"/>
      <point x="193" y="1050" type="line"/>
      <point x="282" y="1158"/>
      <point x="435" y="1235"/>
      <point x="558" y="1235" type="curve" smooth="yes"/>
      <point x="711" y="1235"/>
      <point x="781" y="1133"/>
      <point x="781" y="1015" type="curve" smooth="yes"/>
      <point x="781" y="758"/>
      <point x="404" y="415"/>
      <point x="133" y="220" type="curve"/>
      <point x="133" y="0" type="line"/>
      <point x="1113" y="0" type="line"/>
    </contour>
    <contour>
      <point x="625" y="-100" type="move" name="L"/>
    </contour>
    <contour>
      <point x="625" y="1530" type="move" name="U"/>
    </contour>
  </outline>
</glyph>
<glyph name="DigitThree" format="1">
  <advance width="1240"/>
  <unicode hex="0033"/>
  <outline>
    <contour>
      <point x="400" y="885" type="line" name="hr00"/>
      <point x="400" y="645" type="line"/>
      <point x="490" y="645" type="line" smooth="yes"/>
      <point x="716" y="645"/>
      <point x="845" y="548"/>
      <point x="845" y="425" type="curve" smooth="yes"/>
      <point x="845" y="291"/>
      <point x="718" y="210"/>
      <point x="575" y="210" type="curve" smooth="yes"/>
      <point x="415" y="210"/>
      <point x="254" y="282"/>
      <point x="145" y="405" type="curve"/>
      <point x="110" y="130" type="line"/>
      <point x="215" y="32"/>
      <point x="378" y="-25"/>
      <point x="555" y="-25" type="curve" smooth="yes"/>
      <point x="884" y="-25"/>
      <point x="1130" y="170"/>
      <point x="1130" y="405" type="curve" smooth="yes"/>
      <point x="1130" y="672"/>
      <point x="902" y="756"/>
      <point x="760" y="780" type="curve"/>
      <point x="902" y="809"/>
      <point x="1080" y="957"/>
      <point x="1080" y="1140" type="curve" smooth="yes"/>
      <point x="1080" y="1354"/>
      <point x="878" y="1485"/>
      <point x="590" y="1485" type="curve" smooth="yes"/>
      <point x="423" y="1485"/>
      <point x="250" y="1416"/>
      <point x="170" y="1325" type="curve"/>
      <point x="205" y="1095" type="line"/>
      <point x="318" y="1211"/>
      <point x="446" y="1250"/>
      <point x="600" y="1250" type="curve" smooth="yes"/>
      <point x="699" y="1250"/>
      <point x="801" y="1193"/>
      <point x="801" y="1102" type="curve" smooth="yes"/>
      <point x="801" y="994"/>
      <point x="672" y="885"/>
      <point x="490" y="885" type="curve" smooth="yes"/>
    </contour>
    <contour>
      <point x="625" y="-100" type="move" name="L"/>
    </contour>
    <contour>
      <point x="625" y="1530" type="move" name="U"/>
    </contour>
  </outline>
</glyph>
<glyph name="DigitFour" format="1">
  <advance width="1240"/>
  <unicode hex="0034"/>
  <outline>
    <contour>
      <point x="1175" y="345" type="line" name="hr00"/>
      <point x="1175" y="570" type="line"/>
      <point x="1015" y="570" type="line"/>
      <point x="1015" y="1460" type="line"/>
      <point x="715" y="1460" type="line"/>
      <point x="80" y="570" type="line"/>
      <point x="80" y="345" type="line"/>
      <point x="750" y="345" type="line"/>
      <point x="750" y="0" type="line"/>
      <point x="1015" y="0" type="line"/>
      <point x="1015" y="345" type="line"/>
    </contour>
    <contour>
      <point x="750" y="1145" type="line"/>
      <point x="750" y="570" type="line"/>
      <point x="325" y="570" type="line"/>
    </contour>
    <contour>
      <point x="625" y="-100" type="move" name="L"/>
    </contour>
    <contour>
      <point x="625" y="1530" type="move" name="U"/>
    </contour>
  </outline>
</glyph>
<glyph name="DigitFive" format="1">
  <advance width="1240"/>
  <unicode hex="0035"/>
  <outline>
    <contour>
      <point x="195" y="645" type="line" name="hr00"/>
      <point x="319" y="693"/>
      <point x="424" y="710"/>
      <point x="530" y="710" type="curve" smooth="yes"/>
      <point x="690" y="710"/>
      <point x="830" y="632"/>
      <point x="830" y="470" type="curve" smooth="yes"/>
      <point x="830" y="318"/>
      <point x="710" y="215"/>
      <point x="550" y="215" type="curve" smooth="yes"/>
      <point x="410" y="215"/>
      <point x="294" y="252"/>
      <point x="160" y="360" type="curve"/>
      <point x="120" y="80" type="line"/>
      <point x="245" y="2"/>
      <point x="385" y="-25"/>
      <point x="540" y="-25" type="curve" smooth="yes"/>
      <point x="853" y="-25"/>
      <point x="1110" y="163"/>
      <point x="1110" y="475" type="curve" smooth="yes"/>
      <point x="1110" y="752"/>
      <point x="902" y="930"/>
      <point x="625" y="930" type="curve" smooth="yes"/>
      <point x="563" y="930"/>
      <point x="488" y="911"/>
      <point x="455" y="895" type="curve"/>
      <point x="455" y="1215" type="line"/>
      <point x="785" y="1215" type="line" smooth="yes"/>
      <point x="869" y="1215"/>
      <point x="975" y="1211"/>
      <point x="1050" y="1195" type="curve"/>
      <point x="1050" y="1460" type="line"/>
      <point x="195" y="1460" type="line"/>
    </contour>
    <contour>
      <point x="625" y="-100" type="move" name="L"/>
    </contour>
    <contour>
      <point x="625" y="1530" type="move" name="U"/>
    </contour>
  </outline>
</glyph>
<glyph name="DigitSeven" format="1">
  <advance width="1240"/>
  <unicode hex="0037"/>
  <outline>
    <contour>
      <point x="520" y="0" type="line" name="hr00"/>
      <point x="649" y="459"/>
      <point x="834" y="855"/>
      <point x="1130" y="1260" type="curve"/>
      <point x="1130" y="1460" type="line"/>
      <point x="100" y="1460" type="line"/>
      <point x="100" y="1195" type="line"/>
      <point x="176" y="1211"/>
      <point x="292" y="1215"/>
      <point x="480" y="1215" type="curve" smooth="yes"/>
      <point x="800" y="1215" type="line"/>
      <point x="542" y="842"/>
      <point x="409" y="566"/>
      <point x="235" y="0" type="curve"/>
    </contour>
    <contour>
      <point x="625" y="-100" type="move" name="L"/>
    </contour>
    <contour>
      <point x="625" y="1530" type="move" name="U"/>
    </contour>
  </outline>
</glyph>
<glyph name="DigitEight" format="1">
  <advance width="1240"/>
  <unicode hex="0038"/>
  <outline>
    <contour>
      <point x="620" y="-25" type="curve" smooth="yes" name="hr00"/>
      <point x="897" y="-25"/>
      <point x="1150" y="144"/>
      <point x="1150" y="415" type="curve" smooth="yes"/>
      <point x="1150" y="641"/>
      <point x="1005" y="739"/>
      <point x="895" y="795" type="curve"/>
      <point x="973" y="841"/>
      <point x="1080" y="923"/>
      <point x="1080" y="1105" type="curve" smooth="yes"/>
      <point x="1080" y="1350"/>
      <point x="880" y="1485"/>
      <point x="630" y="1485" type="curve" smooth="yes"/>
      <point x="381" y="1485"/>
      <point x="160" y="1350"/>
      <point x="160" y="1105" type="curve" smooth="yes"/>
      <point x="160" y="923"/>
      <point x="272" y="838"/>
      <point x="350" y="795" type="curve"/>
      <point x="221" y="725"/>
      <point x="90" y="631"/>
      <point x="90" y="405" type="curve" smooth="yes"/>
      <point x="90" y="134"/>
      <point x="344" y="-25"/>
    </contour>
    <contour>
      <point x="830" y="1090" type="curve" smooth="yes"/>
      <point x="830" y="974"/>
      <point x="753" y="895"/>
      <point x="620" y="895" type="curve" smooth="yes"/>
      <point x="487" y="895"/>
      <point x="410" y="974"/>
      <point x="410" y="1090" type="curve" smooth="yes"/>
      <point x="410" y="1197"/>
      <point x="497" y="1270"/>
      <point x="620" y="1270" type="curve" smooth="yes"/>
      <point x="763" y="1270"/>
      <point x="830" y="1187"/>
    </contour>
    <contour>
      <point x="885" y="445" type="curve" smooth="yes"/>
      <point x="885" y="320"/>
      <point x="788" y="205"/>
      <point x="620" y="205" type="curve" smooth="yes"/>
      <point x="460" y="205"/>
      <point x="355" y="320"/>
      <point x="355" y="445" type="curve" smooth="yes"/>
      <point x="355" y="582"/>
      <point x="470" y="680"/>
      <point x="620" y="680" type="curve" smooth="yes"/>
      <point x="768" y="680"/>
      <point x="885" y="582"/>
    </contour>
    <contour>
      <point x="625" y="-100" type="move" name="L"/>
    </contour>
    <contour>
      <point x="625" y="1530" type="move" name="U"/>
    </contour>
  </outline>
</glyph>
<glyph name="Colon" format="1">
  <advance width="710"/>
  <unicode hex="003A"/>
  <outline>
    <contour>
      <point x="200" y="150" type="curve" smooth="yes" name="hr00"/>
      <point x="200" y="46"/>
      <point x="274" y="-25"/>
      <point x="375" y="-25" type="curve" smooth="yes"/>
      <point x="477" y="-25"/>
      <point x="550" y="46"/>
      <point x="550" y="150" type="curve" smooth="yes"/>
      <point x="550" y="252"/>
      <point x="477" y="325"/>
      <point x="375" y="325" type="curve" smooth="yes"/>
      <point x="274" y="325"/>
      <point x="200" y="252"/>
    </contour>
    <contour>
      <point x="200" y="750" type="curve" smooth="yes"/>
      <point x="200" y="646"/>
      <point x="274" y="575"/>
      <point x="375" y="575" type="curve" smooth="yes"/>
      <point x="477" y="575"/>
      <point x="550" y="646"/>
      <point x="550" y="750" type="curve" smooth="yes"/>
      <point x="550" y="852"/>
      <point x="477" y="925"/>
      <point x="375" y="925" type="curve" smooth="yes"/>
      <point x="274" y="925"/>
      <point x="200" y="852"/>
    </contour>
  </outline>
</glyph>
<glyph name="LTSgn" format="1">
  <advance width="1200"/>
  <unicode hex="003C"/>
  <outline>
    <contour>
      <point x="1070" y="475" type="line" name="hr00"/>
      <point x="390" y="730" type="line"/>
      <point x="1070" y="985" type="line"/>
      <point x="1070" y="1215" type="line"/>
      <point x="110" y="825" type="line"/>
      <point x="110" y="635" type="line"/>
      <point x="1070" y="245" type="line"/>
    </contour>
  </outline>
</glyph>
<glyph name="EqSgn" format="1">
  <advance width="1200"/>
  <unicode hex="003D"/>
  <outline>
    <contour>
      <point x="120" y="450" type="line" name="hr00"/>
      <point x="1080" y="450" type="line"/>
      <point x="1080" y="650" type="line"/>
      <point x="120" y="650" type="line"/>
    </contour>
    <contour>
      <point x="120" y="800" type="line"/>
      <point x="1080" y="800" type="line"/>
      <point x="1080" y="1000" type="line"/>
      <point x="120" y="1000" type="line"/>
    </contour>
  </outline>
</glyph>
<glyph name="GTSgn" format="2">
  <advance width="1200"/>
  <unicode hex="003E"/>
  <outline>
    <contour>
      <point x="130" y="245" type="line"/>
      <point x="1090" y="635" type="line"/>
      <point x="1090" y="825" type="line"/>
      <point x="130" y="1215" type="line"/>
      <point x="130" y="985" type="line"/>
      <point x="810" y="730" type="line"/>
      <point x="130" y="475" type="line"/>
    </contour>
  </outline>
</glyph>
<glyph name="QstnMrk" format="1">
  <advance width="1090"/>
  <unicode hex="003F"/>
  <outline>
    <contour>
      <point x="640" y="500" type="line" name="hr00"/>
      <point x="640" y="671"/>
      <point x="668" y="805"/>
      <point x="767" y="956" type="curve" smooth="yes"/>
      <point x="837" y="1063"/>
      <point x="900" y="1117"/>
      <point x="900" y="1220" type="curve" smooth="yes"/>
      <point x="900" y="1402"/>
      <point x="757" y="1540"/>
      <point x="500" y="1540" type="curve" smooth="yes"/>
      <point x="355" y="1540"/>
      <point x="206" y="1470"/>
      <point x="140" y="1407" type="curve"/>
      <point x="185" y="1168" type="line"/>
      <point x="261" y="1247"/>
      <point x="372" y="1295"/>
      <point x="472" y="1295" type="curve" smooth="yes"/>
      <point x="569" y="1295"/>
      <point x="615" y="1249"/>
      <point x="615" y="1190" type="curve" smooth="yes"/>
      <point x="615" y="1139"/>
      <point x="565" y="1096"/>
      <point x="495" y="980" type="curve" smooth="yes"/>
      <point x="434" y="879"/>
      <point x="375" y="710"/>
      <point x="375" y="500" type="curve"/>
    </contour>
    <contour>
      <point x="335" y="150" type="curve" smooth="yes"/>
      <point x="335" y="46"/>
      <point x="409" y="-25"/>
      <point x="510" y="-25" type="curve" smooth="yes"/>
      <point x="612" y="-25"/>
      <point x="685" y="46"/>
      <point x="685" y="150" type="curve" smooth="yes"/>
      <point x="685" y="252"/>
      <point x="612" y="325"/>
      <point x="510" y="325" type="curve" smooth="yes"/>
      <point x="409" y="325"/>
      <point x="335" y="252"/>
    </contour>
  </outline>
</glyph>
<glyph name="LtnCapA" format="1">
  <advance width="1485"/>
  <unicode hex="0041"/>
  <outline>
    <contour>
      <point x="1115" y="0" type="line" name="hr00"/>
      <point x="1408" y="0" type="line"/>
      <point x="1373" y="80"/>
      <point x="1341" y="168"/>
      <point x="1278" y="355" type="curve" smooth="yes"/>
      <point x="908" y="1460" type="line"/>
      <point x="552" y="1460" type="line"/>
      <point x="182" y="355" type="line" smooth="yes"/>
      <point x="119" y="166"/>
      <point x="88" y="81"/>
      <point x="52" y="0" type="curve"/>
      <point x="350" y="0" type="line"/>
      <point x="460" y="355" type="line"/>
      <point x="1004" y="355" type="line"/>
    </contour>
    <contour>
      <point x="730" y="1228" type="line"/>
      <point x="936" y="570" type="line"/>
      <point x="526" y="570" type="line"/>
    </contour>
    <contour>
      <point x="1275" y="0" type="move" name="H"/>
    </contour>
    <contour>
      <point x="732" y="-100" type="move" name="L"/>
    </contour>
    <contour>
      <point x="1495" y="0" type="move" name="O"/>
    </contour>
    <contour>
      <point x="732" y="1530" type="move" name="U"/>
    </contour>
  </outline>
</glyph>
<glyph name="LtnCapB" format="1">
  <advance width="1385"/>
  <unicode hex="0042"/>
  <outline>
    <contour>
      <point x="450" y="1248" type="line"/>
      <point x="487" y="1250"/>
      <point x="562" y="1253"/>
      <point x="631" y="1253" type="curve" smooth="yes"/>
      <point x="818" y="1253"/>
      <point x="897" y="1196"/>
      <point x="897" y="1077" type="curve" smooth="yes"/>
      <point x="897" y="951"/>
      <point x="794" y="875"/>
      <point x="605" y="875" type="curve" smooth="yes"/>
      <point x="450" y="875" type="line"/>
    </contour>
    <contour>
      <point x="165" y="455" type="line" smooth="yes" name="hr01"/>
      <point x="165" y="257"/>
      <point x="165" y="80"/>
      <point x="150" y="0" type="curve"/>
      <point x="150" y="0"/>
      <point x="401" y="-10"/>
      <point x="631" y="-10" type="curve" smooth="yes" name="hr02"/>
      <point x="1055" y="-10"/>
      <point x="1245" y="181"/>
      <point x="1245" y="430" type="curve" smooth="yes"/>
      <point x="1245" y="672"/>
      <point x="1084" y="760"/>
      <point x="935" y="800" type="curve"/>
      <point x="1065" y="850"/>
      <point x="1170" y="947"/>
      <point x="1170" y="1110" type="curve" smooth="yes"/>
      <point x="1170" y="1378"/>
      <point x="937" y="1470"/>
      <point x="615" y="1470" type="curve" smooth="yes"/>
      <point x="422" y="1470"/>
      <point x="248" y="1466"/>
      <point x="150" y="1460" type="curve"/>
      <point x="165" y="1380"/>
      <point x="165" y="1196"/>
      <point x="165" y="1000" type="curve" smooth="yes"/>
    </contour>
    <contour>
      <point x="450" y="658" type="line" name="hr03"/>
      <point x="643" y="658" type="line" smooth="yes"/>
      <point x="853" y="658"/>
      <point x="972" y="587"/>
      <point x="972" y="450" type="curve" smooth="yes"/>
      <point x="972" y="269"/>
      <point x="826" y="215"/>
      <point x="652" y="215" type="curve" smooth="yes"/>
      <point x="552" y="215"/>
      <point x="483" y="218"/>
      <point x="450" y="220" type="curve"/>
    </contour>
    <contour>
      <point x="670" y="-100" type="move" name="L"/>
    </contour>
    <contour>
      <point x="670" y="1530" type="move" name="U"/>
    </contour>
  </outline>
</glyph>
<glyph name="LtnCapC" format="1">
  <advance width="1385"/>
  <unicode hex="0043"/>
  <outline>
    <contour>
      <point x="1215" y="405" type="line" name="hr00"/>
      <point x="1105" y="293"/>
      <point x="940" y="220"/>
      <point x="790" y="220" type="curve" smooth="yes"/>
      <point x="531" y="220"/>
      <point x="375" y="413"/>
      <point x="375" y="735" type="curve" smooth="yes"/>
      <point x="375" y="1074"/>
      <point x="557" y="1245"/>
      <point x="800" y="1245" type="curve" smooth="yes"/>
      <point x="931" y="1245"/>
      <point x="1053" y="1205"/>
      <point x="1180" y="1105" type="curve"/>
      <point x="1250" y="1345" type="line"/>
      <point x="1106" y="1449"/>
      <point x="969" y="1485"/>
      <point x="785" y="1485" type="curve" smooth="yes"/>
      <point x="413" y="1485"/>
      <point x="90" y="1225"/>
      <point x="90" y="710" type="curve" smooth="yes"/>
      <point x="90" y="260"/>
      <point x="341" y="-25"/>
      <point x="755" y="-25" type="curve" smooth="yes"/>
      <point x="926" y="-25"/>
      <point x="1142" y="42"/>
      <point x="1265" y="140" type="curve"/>
    </contour>
    <contour>
      <point x="745" y="0" type="move" name="H"/>
    </contour>
    <contour>
      <point x="745" y="-100" type="move" name="L"/>
    </contour>
    <contour>
      <point x="745" y="1530" type="move" name="U"/>
    </contour>
  </outline>
</glyph>
<glyph name="LtnCapE" format="1">
  <advance width="1212"/>
  <unicode hex="0045"/>
  <outline>
    <contour>
      <point x="450" y="875" type="line" name="hr00"/>
      <point x="450" y="1230" type="line"/>
      <point x="1072" y="1230" type="line"/>
      <point x="1072" y="1460" type="line"/>
      <point x="150" y="1460" type="line"/>
      <point x="165" y="1380"/>
      <point x="165" y="1222"/>
      <point x="165" y="1025" type="curve" smooth="yes"/>
      <point x="165" y="435" type="line" smooth="yes"/>
      <point x="165" y="238"/>
      <point x="165" y="80"/>
      <point x="150" y="0" type="curve"/>
      <point x="1102" y="0" type="line"/>
      <point x="1102" y="245" type="line"/>
      <point x="1024" y="231"/>
      <point x="899" y="230"/>
      <point x="708" y="230" type="curve" smooth="yes"/>
      <point x="450" y="230" type="line"/>
      <point x="450" y="650" type="line"/>
      <point x="997" y="650" type="line"/>
      <point x="997" y="875" type="line"/>
    </contour>
    <contour>
      <point x="610" y="0" type="move" name="H"/>
    </contour>
    <contour>
      <point x="610" y="-100" type="move" name="L"/>
    </contour>
    <contour>
      <point x="1004" y="0" type="move" name="O"/>
    </contour>
    <contour>
      <point x="1247" y="1200" type="move" name="R"/>
    </contour>
    <contour>
      <point x="610" y="1530" type="move" name="U"/>
    </contour>
  </outline>
</glyph>
<glyph name="LtnCapF" format="1">
  <advance width="1200"/>
  <unicode hex="0046"/>
  <outline>
    <contour>
      <point x="450" y="860" type="line" name="hr00"/>
      <point x="450" y="1230" type="line"/>
      <point x="1090" y="1230" type="line"/>
      <point x="1090" y="1460" type="line"/>
      <point x="150" y="1460" type="line"/>
      <point x="165" y="1380"/>
      <point x="165" y="1217"/>
      <point x="165" y="1020" type="curve" smooth="yes"/>
      <point x="165" y="435" type="line" smooth="yes"/>
      <point x="165" y="238"/>
      <point x="165" y="80"/>
      <point x="150" y="0" type="curve"/>
      <point x="465" y="0" type="line"/>
      <point x="450" y="73"/>
      <point x="450" y="222"/>
      <point x="450" y="408" type="curve" smooth="yes"/>
      <point x="450" y="635" type="line"/>
      <point x="1005" y="635" type="line"/>
      <point x="1005" y="860" type="line"/>
    </contour>
    <contour>
      <point x="630" y="-100" type="move" name="L"/>
    </contour>
    <contour>
      <point x="630" y="1530" type="move" name="U"/>
    </contour>
  </outline>
</glyph>
<glyph name="LtnCapH" format="1">
  <advance width="1515"/>
  <unicode hex="0048"/>
  <outline>
    <contour>
      <point x="1040" y="1460" type="line" name="hr00"/>
      <point x="1040" y="860" type="line"/>
      <point x="450" y="860" type="line"/>
      <point x="450" y="1460" type="line"/>
      <point x="150" y="1460" type="line"/>
      <point x="165" y="1380"/>
      <point x="165" y="1227"/>
      <point x="165" y="1030" type="curve" smooth="yes"/>
      <point x="165" y="430" type="line" smooth="yes"/>
      <point x="165" y="233"/>
      <point x="165" y="80"/>
      <point x="150" y="0" type="curve"/>
      <point x="150" y="0"/>
      <point x="450" y="0"/>
      <point x="450" y="0" type="curve"/>
      <point x="450" y="635" type="line"/>
      <point x="1040" y="635" type="line"/>
      <point x="1040" y="0" type="line"/>
      <point x="1040" y="0"/>
      <point x="1340" y="0"/>
      <point x="1340" y="0" type="curve"/>
      <point x="1325" y="80"/>
      <point x="1325" y="233"/>
      <point x="1325" y="430" type="curve" smooth="yes"/>
      <point x="1325" y="1030" type="line" smooth="yes"/>
      <point x="1325" y="1227"/>
      <point x="1325" y="1380"/>
      <point x="1340" y="1460" type="curve"/>
    </contour>
    <contour>
      <point x="305" y="0" type="move" name="H"/>
    </contour>
    <contour>
      <point x="745" y="-100" type="move" name="L"/>
    </contour>
    <contour>
      <point x="745" y="1530" type="move" name="U"/>
    </contour>
  </outline>
</glyph>
<glyph name="LtnCapI" format="1">
  <advance width="1045"/>
  <unicode hex="0049"/>
  <outline>
    <contour>
      <point x="130" y="1460" type="line" name="hr00"/>
      <point x="130" y="1255" type="line"/>
      <point x="370" y="1255" type="line"/>
      <point x="370" y="205" type="line"/>
      <point x="130" y="205" type="line"/>
      <point x="130" y="0" type="line"/>
      <point x="895" y="0" type="line"/>
      <point x="895" y="205" type="line"/>
      <point x="655" y="205" type="line"/>
      <point x="655" y="1255" type="line"/>
      <point x="895" y="1255" type="line"/>
      <point x="895" y="1460" type="line"/>
    </contour>
    <contour>
      <point x="520" y="0" type="move" name="H"/>
    </contour>
    <contour>
      <point x="516" y="-100" type="move" name="L"/>
    </contour>
    <contour>
      <point x="712" y="0" type="move" name="O"/>
    </contour>
    <contour>
      <point x="1014" y="1200" type="move" name="R"/>
    </contour>
    <contour>
      <point x="520" y="1530" type="move" name="U"/>
    </contour>
  </outline>
</glyph>
<glyph name="LtnCapJ" format="1">
  <advance width="1030"/>
  <unicode hex="004A"/>
  <outline>
    <contour>
      <point x="555" y="1460" type="line" name="hr00"/>
      <point x="568" y="1354"/>
      <point x="570" y="1175"/>
      <point x="570" y="980" type="curve" smooth="yes"/>
      <point x="570" y="558" type="line" smooth="yes"/>
      <point x="570" y="383"/>
      <point x="540" y="227"/>
      <point x="365" y="227" type="curve" smooth="yes"/>
      <point x="264" y="227"/>
      <point x="153" y="270"/>
      <point x="79" y="347" type="curve"/>
      <point x="30" y="90" type="line"/>
      <point x="109" y="9"/>
      <point x="258" y="-25"/>
      <point x="363" y="-25" type="curve" smooth="yes"/>
      <point x="658" y="-25"/>
      <point x="855" y="129"/>
      <point x="855" y="535" type="curve" smooth="yes"/>
      <point x="855" y="618"/>
      <point x="855" y="1460"/>
      <point x="855" y="1460" type="curve"/>
    </contour>
    <contour>
      <point x="415" y="-100" type="move" name="L"/>
    </contour>
    <contour>
      <point x="705" y="1530" type="move" name="U"/>
    </contour>
  </outline>
</glyph>
<glyph name="LtnCapK" format="1">
  <advance width="1430"/>
  <unicode hex="004B"/>
  <outline>
    <contour>
      <point x="944" y="1460" type="line" name="hr00"/>
      <point x="371" y="732" type="line"/>
      <point x="579" y="676" type="line"/>
      <point x="1280" y="1460" type="line"/>
    </contour>
    <contour>
      <point x="389" y="731" type="line"/>
      <point x="990" y="0" type="line"/>
      <point x="1360" y="0" type="line"/>
      <point x="614" y="829" type="line"/>
    </contour>
    <contour>
      <point x="450" y="1460" type="line"/>
      <point x="150" y="1460" type="line"/>
      <point x="165" y="1380"/>
      <point x="165" y="1222"/>
      <point x="165" y="1025" type="curve" smooth="yes"/>
      <point x="165" y="435" type="line" smooth="yes"/>
      <point x="165" y="238"/>
      <point x="165" y="80"/>
      <point x="150" y="0" type="curve"/>
      <point x="450" y="0" type="line"/>
    </contour>
    <contour>
      <point x="320" y="0" type="move" name="H"/>
    </contour>
    <contour>
      <point x="740" y="-100" type="move" name="L"/>
    </contour>
    <contour>
      <point x="725" y="1530" type="move" name="U"/>
    </contour>
  </outline>
</glyph>
<glyph name="LtnCapL" format="1">
  <advance width="1130"/>
  <unicode hex="004C"/>
  <outline>
    <contour>
      <point x="450" y="230" type="line" name="hr00"/>
      <point x="450" y="1460" type="line"/>
      <point x="150" y="1460" type="line"/>
      <point x="165" y="1380"/>
      <point x="165" y="1222"/>
      <point x="165" y="1025" type="curve" smooth="yes"/>
      <point x="165" y="435" type="line" smooth="yes"/>
      <point x="165" y="238"/>
      <point x="165" y="80"/>
      <point x="150" y="0" type="curve"/>
      <point x="1085" y="0" type="line"/>
      <point x="1085" y="245" type="line"/>
      <point x="1008" y="231"/>
      <point x="855" y="230"/>
      <point x="666" y="230" type="curve" smooth="yes"/>
    </contour>
    <contour>
      <point x="620" y="0" type="move" name="H"/>
    </contour>
    <contour>
      <point x="620" y="-100" type="move" name="L"/>
    </contour>
    <contour>
      <point x="650" y="1200" type="move" name="R"/>
    </contour>
    <contour>
      <point x="620" y="1530" type="move" name="U"/>
    </contour>
  </outline>
</glyph>
<glyph name="LtnCapO" format="1">
  <advance width="1500"/>
  <unicode hex="004F"/>
  <outline>
    <contour>
      <point x="1100" y="715" type="curve" smooth="yes" name="hr00"/>
      <point x="1100" y="404"/>
      <point x="940" y="220"/>
      <point x="740" y="220" type="curve" smooth="yes"/>
      <point x="524" y="220"/>
      <point x="375" y="423"/>
      <point x="375" y="745" type="curve" smooth="yes"/>
      <point x="375" y="1048"/>
      <point x="529" y="1240"/>
      <point x="740" y="1240" type="curve" smooth="yes"/>
      <point x="951" y="1240"/>
      <point x="1100" y="1041"/>
    </contour>
    <contour>
      <point x="1385" y="740" type="curve" smooth="yes"/>
      <point x="1385" y="1219"/>
      <point x="1091" y="1485"/>
      <point x="750" y="1485" type="curve" smooth="yes"/>
      <point x="404" y="1485"/>
      <point x="90" y="1199"/>
      <point x="90" y="720" type="curve" smooth="yes"/>
      <point x="90" y="241"/>
      <point x="385" y="-25"/>
      <point x="730" y="-25" type="curve" smooth="yes"/>
      <point x="1072" y="-25"/>
      <point x="1385" y="260"/>
    </contour>
    <contour>
      <point x="740" y="0" type="move" name="H"/>
    </contour>
    <contour>
      <point x="740" y="-100" type="move" name="L"/>
    </contour>
    <contour>
      <point x="976" y="0" type="move" name="O"/>
    </contour>
    <contour>
      <point x="1480" y="1200" type="move" name="R"/>
    </contour>
    <contour>
      <point x="740" y="1530" type="move" name="U"/>
    </contour>
  </outline>
</glyph>
<glyph name="LtnCapQ" format="1">
  <advance width="1545"/>
  <unicode hex="0051"/>
  <outline>
    <contour>
      <point x="1385" y="740" type="curve" smooth="yes"/>
      <point x="1385" y="1219"/>
      <point x="1091" y="1485"/>
      <point x="750" y="1485" type="curve" smooth="yes"/>
      <point x="404" y="1485"/>
      <point x="90" y="1199"/>
      <point x="90" y="720" type="curve" smooth="yes"/>
      <point x="90" y="241"/>
      <point x="385" y="-25"/>
      <point x="730" y="-25" type="curve" smooth="yes"/>
      <point x="807" y="-25"/>
      <point x="840" y="-23"/>
      <point x="889" y="-15" type="curve"/>
      <point x="958" y="-15"/>
      <point x="1266" y="-228"/>
      <point x="1350" y="-228" type="curve" smooth="yes"/>
      <point x="1424" y="-228"/>
      <point x="1502" y="-68"/>
      <point x="1535" y="-15" type="curve"/>
      <point x="1394" y="1"/>
      <point x="1277" y="68"/>
      <point x="1146" y="142" type="curve" name="hr01"/>
      <point x="1294" y="283"/>
      <point x="1385" y="471"/>
    </contour>
    <contour>
      <point x="1100" y="715" type="curve" smooth="yes"/>
      <point x="1100" y="404"/>
      <point x="943" y="220"/>
      <point x="740" y="220" type="curve" smooth="yes"/>
      <point x="524" y="220"/>
      <point x="375" y="423"/>
      <point x="375" y="745" type="curve" smooth="yes"/>
      <point x="375" y="1048"/>
      <point x="529" y="1240"/>
      <point x="740" y="1240" type="curve" smooth="yes"/>
      <point x="951" y="1240"/>
      <point x="1100" y="1041"/>
    </contour>
    <contour>
      <point x="747" y="-270" type="move" name="L"/>
    </contour>
    <contour>
      <point x="747" y="1530" type="move" name="U"/>
    </contour>
  </outline>
</glyph>
<glyph name="LtnCapT" format="1">
  <advance width="1265"/>
  <unicode hex="0054"/>
  <outline>
    <contour>
      <point x="35" y="1460" type="line" name="hr00"/>
      <point x="35" y="1210" type="line"/>
      <point x="107" y="1227"/>
      <point x="185" y="1230"/>
      <point x="265" y="1230" type="curve" smooth="yes"/>
      <point x="478" y="1230" type="line"/>
      <point x="478" y="413" type="line" smooth="yes"/>
      <point x="478" y="226"/>
      <point x="475" y="76"/>
      <point x="458" y="0" type="curve"/>
      <point x="783" y="0" type="line"/>
      <point x="766" y="76"/>
      <point x="763" y="226"/>
      <point x="763" y="413" type="curve" smooth="yes"/>
      <point x="763" y="1230" type="line"/>
      <point x="980" y="1230" type="line" smooth="yes"/>
      <point x="1061" y="1230"/>
      <point x="1138" y="1227"/>
      <point x="1210" y="1210" type="curve"/>
      <point x="1210" y="1460" type="line"/>
    </contour>
    <contour>
      <point x="622" y="0" type="move" name="H"/>
    </contour>
    <contour>
      <point x="622" y="-100" type="move" name="L"/>
    </contour>
    <contour>
      <point x="622" y="1530" type="move" name="U"/>
    </contour>
  </outline>
</glyph>
<glyph name="LtnCapU" format="1">
  <advance width="1490"/>
  <unicode hex="0055"/>
  <outline>
    <contour>
      <point x="1015" y="1460" type="line" name="hr00"/>
      <point x="1015" y="560" type="line" smooth="yes"/>
      <point x="1015" y="344"/>
      <point x="952" y="204"/>
      <point x="735" y="204" type="curve" smooth="yes"/>
      <point x="513" y="204"/>
      <point x="450" y="344"/>
      <point x="450" y="560" type="curve" smooth="yes"/>
      <point x="450" y="1460" type="line"/>
      <point x="150" y="1460" type="line"/>
      <point x="164" y="1380"/>
      <point x="165" y="1222"/>
      <point x="165" y="1025" type="curve" smooth="yes"/>
      <point x="165" y="515" type="line" smooth="yes"/>
      <point x="165" y="190"/>
      <point x="356" y="-25"/>
      <point x="735" y="-25" type="curve" smooth="yes"/>
      <point x="1110" y="-25"/>
      <point x="1300" y="190"/>
      <point x="1300" y="515" type="curve" smooth="yes"/>
      <point x="1300" y="1025" type="line" smooth="yes"/>
      <point x="1300" y="1232"/>
      <point x="1302" y="1380"/>
      <point x="1315" y="1460" type="curve"/>
    </contour>
    <contour>
      <point x="732" y="0" type="move" name="H"/>
    </contour>
    <contour>
      <point x="732" y="-100" type="move" name="L"/>
    </contour>
    <contour>
      <point x="950" y="0" type="move" name="O"/>
    </contour>
    <contour>
      <point x="1480" y="1200" type="move" name="R"/>
    </contour>
    <contour>
      <point x="732" y="1530" type="move" name="U"/>
    </contour>
  </outline>
</glyph>
<glyph name="LtnCapV" format="1">
  <advance width="1465"/>
  <unicode hex="0056"/>
  <outline>
    <contour>
      <point x="1115" y="1460" type="line" name="hr00"/>
      <point x="722" y="260" type="line"/>
      <point x="330" y="1460" type="line"/>
      <point x="25" y="1460" type="line"/>
      <point x="58" y="1378"/>
      <point x="96" y="1288"/>
      <point x="165" y="1095" type="curve" smooth="yes"/>
      <point x="555" y="0" type="line"/>
      <point x="890" y="0" type="line"/>
      <point x="1280" y="1095" type="line" smooth="yes"/>
      <point x="1349" y="1289"/>
      <point x="1384" y="1378"/>
      <point x="1420" y="1460" type="curve"/>
    </contour>
    <contour>
      <point x="730" y="0" type="move" name="H"/>
    </contour>
    <contour>
      <point x="722" y="-100" type="move" name="L"/>
    </contour>
    <contour>
      <point x="930" y="0" type="move" name="O"/>
    </contour>
    <contour>
      <point x="722" y="1530" type="move" name="U"/>
    </contour>
  </outline>
</glyph>
<glyph name="LtnCapX" format="1">
  <advance width="1365"/>
  <unicode hex="0058"/>
  <outline>
    <contour>
      <point x="990" y="0" type="line" name="hr00"/>
      <point x="1310" y="0" type="line"/>
      <point x="1249" y="82"/>
      <point x="1211" y="125"/>
      <point x="1083" y="336" type="curve" smooth="yes"/>
      <point x="400" y="1460" type="line"/>
      <point x="75" y="1460" type="line"/>
      <point x="139" y="1376"/>
      <point x="189" y="1317"/>
      <point x="315" y="1110" type="curve"/>
    </contour>
    <contour>
      <point x="605" y="947" type="line"/>
      <point x="255" y="340" type="line" smooth="yes"/>
      <point x="133" y="128"/>
      <point x="93" y="86"/>
      <point x="30" y="0" type="curve"/>
      <point x="350" y="0" type="line"/>
      <point x="700" y="609" type="line"/>
    </contour>
    <contour>
      <point x="750" y="609" type="line"/>
      <point x="1040" y="1110" type="line" smooth="yes"/>
      <point x="1153" y="1306"/>
      <point x="1211" y="1383"/>
      <point x="1275" y="1460" type="curve"/>
      <point x="950" y="1460" type="line"/>
      <point x="655" y="947" type="line"/>
    </contour>
    <contour>
      <point x="670" y="-100" type="move" name="L"/>
    </contour>
    <contour>
      <point x="670" y="1530" type="move" name="U"/>
    </contour>
  </outline>
</glyph>
<glyph name="LtnCapZ" format="1">
  <advance width="1250"/>
  <unicode hex="005A"/>
  <outline>
    <contour>
      <point x="1135" y="1460" type="line" name="hr00"/>
      <point x="125" y="1460" type="line"/>
      <point x="125" y="1210" type="line"/>
      <point x="213" y="1227"/>
      <point x="343" y="1230"/>
      <point x="560" y="1230" type="curve" smooth="yes"/>
      <point x="793" y="1230" type="line"/>
      <point x="65" y="160" type="line"/>
      <point x="65" y="0" type="line"/>
      <point x="1165" y="0" type="line"/>
      <point x="1165" y="250" type="line"/>
      <point x="1085" y="236"/>
      <point x="926" y="230"/>
      <point x="730" y="230" type="curve" smooth="yes"/>
      <point x="415" y="230" type="line"/>
      <point x="1135" y="1285" type="line"/>
    </contour>
    <contour>
      <point x="635" y="-100" type="move" name="L"/>
    </contour>
    <contour>
      <point x="635" y="1530" type="move" name="U"/>
    </contour>
  </outline>
</glyph>
<glyph name="LftSqrBrac" format="1">
  <advance width="850"/>
  <unicode hex="005B"/>
  <outline>
    <contour>
      <point x="710" y="-410" type="line" name="hr00"/>
      <point x="710" y="-200" type="line"/>
      <point x="470" y="-200" type="line"/>
      <point x="470" y="1390" type="line"/>
      <point x="710" y="1390" type="line"/>
      <point x="710" y="1600" type="line"/>
      <point x="190" y="1600" type="line"/>
      <point x="190" y="-410" type="line"/>
    </contour>
  </outline>
</glyph>
<glyph name="ReverseSolidus" format="1">
  <advance width="1080"/>
  <unicode hex="005C"/>
  <outline>
    <contour>
      <point x="10" y="1600" type="line" name="hr00"/>
      <point x="840" y="-245" type="line"/>
      <point x="1070" y="-245" type="line"/>
      <point x="240" y="1600" type="line"/>
    </contour>
  </outline>
</glyph>
<glyph name="RtSqrBrac" format="1">
  <advance width="850"/>
  <unicode hex="005D"/>
  <outline>
    <contour>
      <point x="660" y="-410" type="line" name="hr00"/>
      <point x="660" y="1600" type="line"/>
      <point x="140" y="1600" type="line"/>
      <point x="140" y="1390" type="line"/>
      <point x="380" y="1390" type="line"/>
      <point x="380" y="-200" type="line"/>
      <point x="140" y="-200" type="line"/>
      <point x="140" y="-410" type="line"/>
    </contour>
  </outline>
</glyph>
<glyph name="CircumAccent" format="1">
  <advance width="880"/>
  <unicode hex="005E"/>
  <outline>
    <contour>
      <point x="888" y="1200" type="line" name="hr00"/>
      <point x="598" y="1600" type="line"/>
      <point x="298" y="1600" type="line"/>
      <point x="8" y="1200" type="line"/>
      <point x="248" y="1200" type="line"/>
      <point x="448" y="1430" type="line"/>
      <point x="648" y="1200" type="line"/>
    </contour>
    <contour>
      <point x="440" y="1635" type="move" name="U"/>
    </contour>
  </outline>
</glyph>
<glyph name="LowLine" format="1">
  <advance width="1294"/>
  <unicode hex="005F"/>
  <outline>
    <contour>
      <point x="0" y="-370" type="line" name="hr00"/>
      <point x="1294" y="-370" type="line"/>
      <point x="1294" y="-170" type="line"/>
      <point x="0" y="-170" type="line"/>
    </contour>
  </outline>
</glyph>
<glyph name="GraveAccent" format="1">
  <advance width="640"/>
  <unicode hex="0060"/>
  <outline>
    <contour>
      <point x="0" y="1600" type="line" name="hr00"/>
      <point x="400" y="1200" type="line"/>
      <point x="640" y="1200" type="line"/>
      <point x="350" y="1600" type="line"/>
    </contour>
    <contour>
      <point x="500" y="1635" type="move" name="U"/>
    </contour>
  </outline>
</glyph>
<glyph name="LtnSmC" format="1">
  <advance width="1022"/>
  <unicode hex="0063"/>
  <outline>
    <contour>
      <point x="922" y="969" type="line" name="hr00"/>
      <point x="849" y="1007"/>
      <point x="744" y="1040"/>
      <point x="612" y="1040" type="curve" smooth="yes"/>
      <point x="295" y="1040"/>
      <point x="90" y="802"/>
      <point x="90" y="490" type="curve" smooth="yes"/>
      <point x="90" y="161"/>
      <point x="309" y="-25"/>
      <point x="578" y="-25" type="curve" smooth="yes"/>
      <point x="727" y="-25"/>
      <point x="841" y="8"/>
      <point x="932" y="70" type="curve"/>
      <point x="902" y="310" type="line"/>
      <point x="815" y="241"/>
      <point x="737" y="200"/>
      <point x="617" y="200" type="curve" smooth="yes"/>
      <point x="457" y="200"/>
      <point x="370" y="324"/>
      <point x="370" y="500" type="curve" smooth="yes"/>
      <point x="370" y="694"/>
      <point x="468" y="820"/>
      <point x="617" y="820" type="curve" smooth="yes"/>
      <point x="730" y="820"/>
      <point x="808" y="789"/>
      <point x="878" y="727" type="curve"/>
    </contour>
    <contour>
      <point x="555" y="1" type="move" name="H"/>
    </contour>
    <contour>
      <point x="575" y="-99" type="move" name="L"/>
    </contour>
    <contour>
      <point x="1020" y="1001" type="move" name="R"/>
    </contour>
    <contour>
      <point x="575" y="1101" type="move" name="U"/>
    </contour>
  </outline>
</glyph>
<glyph name="LtnSmD" format="1">
  <advance width="1265"/>
  <unicode hex="0064"/>
  <outline>
    <contour>
      <point x="1115" y="1600" type="line"/>
      <point x="810" y="1600" type="line"/>
      <point x="829" y="1516"/>
      <point x="835" y="1395"/>
      <point x="835" y="1235" type="curve" smooth="yes"/>
      <point x="835" y="955" type="line"/>
      <point x="763" y="999"/>
      <point x="669" y="1040"/>
      <point x="590" y="1040" type="curve" smooth="yes"/>
      <point x="319" y="1040"/>
      <point x="100" y="814"/>
      <point x="100" y="460" type="curve" smooth="yes"/>
      <point x="100" y="167"/>
      <point x="268" y="-25"/>
      <point x="515" y="-25" type="curve" smooth="yes"/>
      <point x="654" y="-25"/>
      <point x="770" y="47"/>
      <point x="860" y="175" type="curve"/>
      <point x="877" y="105"/>
      <point x="900" y="32"/>
      <point x="915" y="0" type="curve" name="hr01"/>
      <point x="1190" y="0" type="line"/>
      <point x="1147" y="112"/>
      <point x="1115" y="278"/>
      <point x="1115" y="530" type="curve" smooth="yes"/>
    </contour>
    <contour>
      <point x="835" y="400" type="line"/>
      <point x="787" y="300"/>
      <point x="676" y="200"/>
      <point x="570" y="200" type="curve" smooth="yes"/>
      <point x="443" y="200"/>
      <point x="380" y="300"/>
      <point x="380" y="490" type="curve" smooth="yes"/>
      <point x="380" y="685"/>
      <point x="485" y="800"/>
      <point x="590" y="800" type="curve" smooth="yes" name="hr02"/>
      <point x="683" y="800"/>
      <point x="743" y="783"/>
      <point x="835" y="738" type="curve"/>
    </contour>
    <contour>
      <point x="595" y="0" type="move" name="H"/>
    </contour>
    <contour>
      <point x="595" y="-100" type="move" name="L"/>
    </contour>
    <contour>
      <point x="1285" y="1000" type="move" name="R"/>
    </contour>
    <contour>
      <point x="610" y="1635" type="move" name="U"/>
    </contour>
  </outline>
</glyph>
<glyph name="LtnSmF" format="1">
  <advance width="800"/>
  <unicode hex="0066"/>
  <outline>
    <contour>
      <point x="30" y="805" type="line" name="hr00"/>
      <point x="230" y="805" type="line"/>
      <point x="230" y="0" type="line"/>
      <point x="540" y="0" type="line"/>
      <point x="518" y="105"/>
      <point x="510" y="300"/>
      <point x="510" y="494" type="curve" smooth="yes"/>
      <point x="510" y="805" type="line"/>
      <point x="765" y="805" type="line"/>
      <point x="765" y="1005" type="line"/>
      <point x="510" y="1005" type="line"/>
      <point x="510" y="1159" type="line" smooth="yes"/>
      <point x="510" y="1322"/>
      <point x="552" y="1387"/>
      <point x="648" y="1387" type="curve" smooth="yes"/>
      <point x="697" y="1387"/>
      <point x="765" y="1362"/>
      <point x="808" y="1322" type="curve"/>
      <point x="865" y="1550" type="line"/>
      <point x="806" y="1588"/>
      <point x="699" y="1620"/>
      <point x="625" y="1620" type="curve" smooth="yes"/>
      <point x="378" y="1620"/>
      <point x="230" y="1470"/>
      <point x="230" y="1170" type="curve" smooth="yes"/>
      <point x="230" y="1005" type="line"/>
      <point x="30" y="1005" type="line"/>
    </contour>
    <contour>
      <point x="380" y="0" type="move" name="H"/>
    </contour>
    <contour>
      <point x="400" y="-100" type="move" name="L"/>
    </contour>
    <contour>
      <point x="500" y="1635" type="move" name="U"/>
    </contour>
  </outline>
</glyph>
<glyph name="LtnSmG.SngBowl" format="1">
  <advance width="1185"/>
  <unicode hex="0067"/>
  <outline>
    <contour>
      <point x="1060" y="965" type="line" name="hr00"/>
      <point x="942" y="1001"/>
      <point x="792" y="1040"/>
      <point x="661" y="1040" type="curve" smooth="yes"/>
      <point x="267" y="1040"/>
      <point x="100" y="742"/>
      <point x="100" y="435" type="curve" smooth="yes"/>
      <point x="100" y="117"/>
      <point x="266" y="-5"/>
      <point x="445" y="-5" type="curve" smooth="yes"/>
      <point x="552" y="-5"/>
      <point x="679" y="51"/>
      <point x="780" y="175" type="curve"/>
      <point x="780" y="-10" type="line" smooth="yes"/>
      <point x="780" y="-183"/>
      <point x="656" y="-246"/>
      <point x="530" y="-246" type="curve" smooth="yes"/>
      <point x="421" y="-246"/>
      <point x="324" y="-199"/>
      <point x="240" y="-131" type="curve"/>
      <point x="155" y="-340" type="line"/>
      <point x="250" y="-417"/>
      <point x="392" y="-470"/>
      <point x="570" y="-470" type="curve" smooth="yes"/>
      <point x="811" y="-470"/>
      <point x="1060" y="-327"/>
      <point x="1060" y="25" type="curve" smooth="yes"/>
    </contour>
    <contour>
      <point x="780" y="416" type="line"/>
      <point x="717" y="299"/>
      <point x="618" y="233"/>
      <point x="545" y="233" type="curve" smooth="yes"/>
      <point x="450" y="233"/>
      <point x="380" y="290"/>
      <point x="380" y="485" type="curve" smooth="yes"/>
      <point x="380" y="641"/>
      <point x="448" y="802"/>
      <point x="625" y="802" type="curve" smooth="yes"/>
      <point x="670" y="802"/>
      <point x="733" y="786"/>
      <point x="780" y="762" type="curve"/>
    </contour>
    <contour>
      <point x="575" y="-500" type="move" name="L"/>
    </contour>
    <contour>
      <point x="1185" y="1000" type="move" name="R"/>
    </contour>
    <contour>
      <point x="650" y="1100" type="move" name="U"/>
    </contour>
  </outline>
</glyph>
<glyph name="LtnSmH" format="1">
  <advance width="1235"/>
  <unicode hex="0068"/>
  <outline>
    <contour>
      <point x="415" y="580" type="line" name="hr00"/>
      <point x="450" y="683"/>
      <point x="560" y="795"/>
      <point x="675" y="795" type="curve" smooth="yes"/>
      <point x="782" y="795"/>
      <point x="830" y="744"/>
      <point x="830" y="550" type="curve" smooth="yes"/>
      <point x="830" y="413"/>
      <point x="830" y="0"/>
      <point x="830" y="0" type="curve"/>
      <point x="1110" y="0" type="line"/>
      <point x="1110" y="0"/>
      <point x="1110" y="459"/>
      <point x="1110" y="625" type="curve" smooth="yes"/>
      <point x="1110" y="900"/>
      <point x="1008" y="1040"/>
      <point x="805" y="1040" type="curve" smooth="yes"/>
      <point x="662" y="1040"/>
      <point x="513" y="976"/>
      <point x="415" y="850" type="curve"/>
      <point x="415" y="894"/>
      <point x="415" y="1600"/>
      <point x="415" y="1600" type="curve"/>
      <point x="120" y="1600" type="line"/>
      <point x="135" y="1514"/>
      <point x="135" y="1345"/>
      <point x="135" y="1130" type="curve" smooth="yes"/>
      <point x="135" y="935"/>
      <point x="135" y="0"/>
      <point x="135" y="0" type="curve"/>
      <point x="415" y="0" type="line"/>
    </contour>
    <contour>
      <point x="280" y="0" type="move" name="H"/>
    </contour>
    <contour>
      <point x="620" y="-100" type="move" name="L"/>
    </contour>
    <contour>
      <point x="620" y="1635" type="move" name="U"/>
    </contour>
  </outline>
</glyph>
<glyph name="LtnSmK" format="1">
  <advance width="1138"/>
  <unicode hex="006B"/>
  <outline>
    <contour>
      <point x="415" y="0" type="line" name="hr00"/>
      <point x="415" y="1600" type="line"/>
      <point x="120" y="1600" type="line"/>
      <point x="135" y="1514"/>
      <point x="135" y="1345"/>
      <point x="135" y="1130" type="curve" smooth="yes"/>
      <point x="135" y="934"/>
      <point x="135" y="0"/>
      <point x="135" y="0" type="curve"/>
    </contour>
    <contour>
      <point x="723" y="1020" type="line"/>
      <point x="353" y="570" type="line"/>
      <point x="572" y="528" type="line"/>
      <point x="1098" y="1020" type="line"/>
    </contour>
    <contour>
      <point x="350" y="570" type="line"/>
      <point x="761" y="0" type="line"/>
      <point x="1128" y="0" type="line"/>
      <point x="540" y="664" type="line"/>
    </contour>
    <contour>
      <point x="940" y="0" type="move" name="H"/>
    </contour>
    <contour>
      <point x="585" y="-100" type="move" name="L"/>
    </contour>
    <contour>
      <point x="1140" y="1000" type="move" name="R"/>
    </contour>
    <contour>
      <point x="595" y="1635" type="move" name="U"/>
    </contour>
  </outline>
</glyph>
<glyph name="LtnSmL" format="1">
  <advance width="640"/>
  <unicode hex="006C"/>
  <outline>
    <contour>
      <point x="460" y="1600" type="line" name="hr00"/>
      <point x="160" y="1600" type="line"/>
      <point x="173" y="1485"/>
      <point x="180" y="1324"/>
      <point x="180" y="1130" type="curve" smooth="yes"/>
      <point x="180" y="0" type="line"/>
      <point x="480" y="0" type="line"/>
      <point x="467" y="109"/>
      <point x="460" y="346"/>
      <point x="460" y="475" type="curve" smooth="yes"/>
    </contour>
    <contour>
      <point x="335" y="0" type="move" name="H"/>
    </contour>
    <contour>
      <point x="335" y="-100" type="move" name="L"/>
    </contour>
    <contour>
      <point x="660" y="1000" type="move" name="R"/>
    </contour>
    <contour>
      <point x="320" y="1635" type="move" name="U"/>
    </contour>
  </outline>
</glyph>
<glyph name="LtnSmM" format="1">
  <advance width="1760"/>
  <unicode hex="006D"/>
  <outline>
    <contour>
      <point x="115" y="1020" type="line"/>
      <point x="136" y="951"/>
      <point x="165" y="811"/>
      <point x="165" y="615" type="curve" smooth="yes"/>
      <point x="165" y="0" type="line"/>
      <point x="445" y="0" type="line"/>
      <point x="445" y="640" type="line"/>
      <point x="484" y="731"/>
      <point x="560" y="795"/>
      <point x="635" y="795" type="curve" smooth="yes" name="hr01"/>
      <point x="723" y="795"/>
      <point x="750" y="759"/>
      <point x="750" y="570" type="curve" smooth="yes"/>
      <point x="750" y="0" type="line"/>
      <point x="1030" y="0" type="line"/>
      <point x="1030" y="660" type="line"/>
      <point x="1073" y="742"/>
      <point x="1147" y="795"/>
      <point x="1220" y="795" type="curve" smooth="yes"/>
      <point x="1310" y="795"/>
      <point x="1335" y="751"/>
      <point x="1335" y="550" type="curve" smooth="yes"/>
      <point x="1335" y="0" type="line"/>
      <point x="1615" y="0" type="line"/>
      <point x="1615" y="660" type="line" smooth="yes"/>
      <point x="1615" y="907"/>
      <point x="1548" y="1040"/>
      <point x="1345" y="1040" type="curve" smooth="yes"/>
      <point x="1240" y="1040"/>
      <point x="1131" y="1007"/>
      <point x="1006" y="872" type="curve"/>
      <point x="973" y="960"/>
      <point x="891" y="1040"/>
      <point x="760" y="1040" type="curve" smooth="yes"/>
      <point x="644" y="1040"/>
      <point x="544" y="1008"/>
      <point x="422" y="875" type="curve"/>
      <point x="412" y="920"/>
      <point x="397" y="981"/>
      <point x="375" y="1020" type="curve" name="hr02"/>
    </contour>
    <contour>
      <point x="890" y="0" type="move" name="H"/>
    </contour>
    <contour>
      <point x="890" y="-100" type="move" name="L"/>
    </contour>
    <contour>
      <point x="890" y="1100" type="move" name="U"/>
    </contour>
  </outline>
</glyph>
<glyph name="LtnSmN" format="1">
  <advance width="1245"/>
  <unicode hex="006E"/>
  <outline>
    <contour>
      <point x="1120" y="0" type="line"/>
      <point x="1120" y="0"/>
      <point x="1120" y="459"/>
      <point x="1120" y="625" type="curve" smooth="yes"/>
      <point x="1120" y="900"/>
      <point x="998" y="1040"/>
      <point x="795" y="1040" type="curve" smooth="yes"/>
      <point x="654" y="1040"/>
      <point x="537" y="980"/>
      <point x="410" y="835" type="curve"/>
      <point x="403" y="881"/>
      <point x="385" y="980"/>
      <point x="370" y="1020" type="curve" name="hr01"/>
      <point x="95" y="1020" type="line"/>
      <point x="117" y="951"/>
      <point x="145" y="811"/>
      <point x="145" y="615" type="curve" smooth="yes"/>
      <point x="145" y="420"/>
      <point x="145" y="0"/>
      <point x="145" y="0" type="curve"/>
      <point x="425" y="0" type="line"/>
      <point x="425" y="580" type="line"/>
      <point x="460" y="683"/>
      <point x="570" y="795"/>
      <point x="685" y="795" type="curve" smooth="yes" name="hr02"/>
      <point x="792" y="795"/>
      <point x="840" y="734"/>
      <point x="840" y="550" type="curve" smooth="yes"/>
      <point x="840" y="413"/>
      <point x="840" y="0"/>
      <point x="840" y="0" type="curve"/>
    </contour>
    <contour>
      <point x="620" y="0" type="move" name="H"/>
    </contour>
    <contour>
      <point x="620" y="-100" type="move" name="L"/>
    </contour>
    <contour>
      <point x="620" y="1100" type="move" name="U"/>
    </contour>
  </outline>
</glyph>
<glyph name="LtnSmO" format="1">
  <advance width="1160"/>
  <unicode hex="006F"/>
  <outline>
    <contour>
      <point x="90" y="507" type="curve" smooth="yes" name="hr00"/>
      <point x="90" y="163"/>
      <point x="288" y="-25"/>
      <point x="570" y="-25" type="curve" smooth="yes"/>
      <point x="840" y="-25"/>
      <point x="1070" y="163"/>
      <point x="1070" y="507" type="curve" smooth="yes"/>
      <point x="1070" y="851"/>
      <point x="873" y="1040"/>
      <point x="590" y="1040" type="curve" smooth="yes"/>
      <point x="320" y="1040"/>
      <point x="90" y="851"/>
    </contour>
    <contour>
      <point x="370" y="507" type="curve" smooth="yes"/>
      <point x="370" y="699"/>
      <point x="451" y="815"/>
      <point x="580" y="815" type="curve" smooth="yes"/>
      <point x="717" y="815"/>
      <point x="790" y="699"/>
      <point x="790" y="507" type="curve" smooth="yes"/>
      <point x="790" y="316"/>
      <point x="709" y="200"/>
      <point x="580" y="200" type="curve" smooth="yes"/>
      <point x="443" y="200"/>
      <point x="370" y="316"/>
    </contour>
    <contour>
      <point x="578" y="0" type="move" name="H"/>
    </contour>
    <contour>
      <point x="580" y="-100" type="move" name="L"/>
    </contour>
    <contour>
      <point x="790" y="0" type="move" name="O"/>
    </contour>
    <contour>
      <point x="1160" y="1000" type="move" name="R"/>
    </contour>
    <contour>
      <point x="580" y="1100" type="move" name="U"/>
    </contour>
  </outline>
</glyph>
<glyph name="LtnSmR" format="1">
  <advance width="995"/>
  <unicode hex="0072"/>
  <outline>
    <contour>
      <point x="425" y="0" type="line"/>
      <point x="425" y="530" type="line"/>
      <point x="460" y="654"/>
      <point x="570" y="781"/>
      <point x="637" y="781" type="curve" smooth="yes"/>
      <point x="722" y="781"/>
      <point x="755" y="721"/>
      <point x="762" y="630" type="curve"/>
      <point x="985" y="665" type="line"/>
      <point x="985" y="868"/>
      <point x="913" y="1040"/>
      <point x="725" y="1040" type="curve" smooth="yes"/>
      <point x="634" y="1040"/>
      <point x="507" y="964"/>
      <point x="410" y="825" type="curve"/>
      <point x="403" y="873"/>
      <point x="385" y="978"/>
      <point x="370" y="1020" type="curve" name="hr01"/>
      <point x="95" y="1020" type="line"/>
      <point x="117" y="951"/>
      <point x="145" y="811"/>
      <point x="145" y="615" type="curve" smooth="yes"/>
      <point x="145" y="0" type="line"/>
    </contour>
    <contour>
      <point x="285" y="0" type="move" name="H"/>
    </contour>
    <contour>
      <point x="275" y="-100" type="move" name="L"/>
    </contour>
    <contour>
      <point x="550" y="1100" type="move" name="U"/>
    </contour>
  </outline>
</glyph>
<glyph name="LtnSmS" format="1">
  <advance width="1035"/>
  <unicode hex="0073"/>
  <outline>
    <contour>
      <point x="905" y="960" type="line" name="hr00"/>
      <point x="827" y="998"/>
      <point x="708" y="1040"/>
      <point x="545" y="1040" type="curve" smooth="yes"/>
      <point x="202" y="1040"/>
      <point x="110" y="818"/>
      <point x="110" y="720" type="curve" smooth="yes"/>
      <point x="110" y="594"/>
      <point x="171" y="493"/>
      <point x="455" y="432" type="curve" smooth="yes"/>
      <point x="646" y="391"/>
      <point x="690" y="348"/>
      <point x="690" y="290" type="curve" smooth="yes"/>
      <point x="690" y="243"/>
      <point x="624" y="200"/>
      <point x="530" y="200" type="curve" smooth="yes"/>
      <point x="413" y="200"/>
      <point x="254" y="254"/>
      <point x="155" y="335" type="curve"/>
      <point x="100" y="90" type="line"/>
      <point x="187" y="28"/>
      <point x="346" y="-25"/>
      <point x="525" y="-25" type="curve" smooth="yes"/>
      <point x="768" y="-25"/>
      <point x="960" y="123"/>
      <point x="960" y="315" type="curve" smooth="yes"/>
      <point x="960" y="504"/>
      <point x="788" y="584"/>
      <point x="580" y="625" type="curve" smooth="yes"/>
      <point x="405" y="660"/>
      <point x="380" y="681"/>
      <point x="380" y="730" type="curve" smooth="yes"/>
      <point x="380" y="770"/>
      <point x="418" y="820"/>
      <point x="535" y="820" type="curve" smooth="yes"/>
      <point x="674" y="820"/>
      <point x="791" y="764"/>
      <point x="866" y="725" type="curve"/>
    </contour>
    <contour>
      <point x="515" y="0" type="move" name="H"/>
    </contour>
    <contour>
      <point x="515" y="-100" type="move" name="L"/>
    </contour>
    <contour>
      <point x="530" y="1100" type="move" name="U"/>
    </contour>
  </outline>
</glyph>
<glyph name="LtnSmW" format="1">
  <advance width="1570"/>
  <unicode hex="0077"/>
  <outline>
    <contour>
      <point x="665" y="1020" type="line" name="hr00"/>
      <point x="480" y="285" type="line"/>
      <point x="323" y="1020" type="line"/>
      <point x="35" y="1020" type="line"/>
      <point x="82" y="867"/>
      <point x="110" y="771"/>
      <point x="140" y="665" type="curve" smooth="yes"/>
      <point x="325" y="0" type="line"/>
      <point x="615" y="0" type="line"/>
      <point x="785" y="695" type="line"/>
      <point x="955" y="0" type="line"/>
      <point x="1245" y="0" type="line"/>
      <point x="1430" y="665" type="line" smooth="yes"/>
      <point x="1464" y="785"/>
      <point x="1488" y="868"/>
      <point x="1535" y="1020" type="curve"/>
      <point x="1247" y="1020" type="line"/>
      <point x="1090" y="285" type="line"/>
      <point x="905" y="1020" type="line"/>
    </contour>
    <contour>
      <point x="785" y="-100" type="move" name="L"/>
    </contour>
    <contour>
      <point x="785" y="1100" type="move" name="U"/>
    </contour>
  </outline>
</glyph>
<glyph name="LtnSmY" format="1">
  <advance width="1100"/>
  <unicode hex="0079"/>
  <outline>
    <contour>
      <point x="945" y="665" type="line" smooth="yes" name="hr00"/>
      <point x="978" y="758"/>
      <point x="1021" y="865"/>
      <point x="1090" y="1020" type="curve"/>
      <point x="777" y="1020" type="line"/>
      <point x="777" y="1020"/>
      <point x="646" y="549"/>
      <point x="573" y="293" type="curve"/>
      <point x="333" y="1020" type="line"/>
      <point x="20" y="1020" type="line"/>
      <point x="97" y="864"/>
      <point x="144" y="757"/>
      <point x="180" y="665" type="curve" smooth="yes"/>
      <point x="445" y="-18" type="line"/>
      <point x="366" y="-209"/>
      <point x="304" y="-242"/>
      <point x="245" y="-242" type="curve" smooth="yes"/>
      <point x="179" y="-242"/>
      <point x="102" y="-202"/>
      <point x="60" y="-167" type="curve"/>
      <point x="-10" y="-385" type="line"/>
      <point x="63" y="-439"/>
      <point x="154" y="-470"/>
      <point x="245" y="-470" type="curve" smooth="yes"/>
      <point x="427" y="-470"/>
      <point x="565" y="-387"/>
      <point x="705" y="0" type="curve" smooth="yes"/>
    </contour>
    <contour>
      <point x="845" y="-100" type="move" name="L"/>
    </contour>
    <contour>
      <point x="1155" y="1000" type="move" name="R"/>
    </contour>
    <contour>
      <point x="565" y="1100" type="move" name="U"/>
    </contour>
  </outline>
</glyph>
<glyph name="LtnSmZ" format="1">
  <advance width="1060"/>
  <unicode hex="007A"/>
  <outline>
    <contour>
      <point x="125" y="1020" type="line" name="hr00"/>
      <point x="125" y="790" type="line"/>
      <point x="162" y="805"/>
      <point x="221" y="805"/>
      <point x="280" y="805" type="curve" smooth="yes"/>
      <point x="615" y="805" type="line"/>
      <point x="95" y="159" type="line"/>
      <point x="95" y="0" type="line"/>
      <point x="975" y="0" type="line"/>
      <point x="975" y="230" type="line"/>
      <point x="902" y="215"/>
      <point x="826" y="215"/>
      <point x="755" y="215" type="curve" smooth="yes"/>
      <point x="430" y="215" type="line"/>
      <point x="960" y="876" type="line"/>
      <point x="960" y="1020" type="line"/>
    </contour>
    <contour>
      <point x="540" y="0" type="move" name="H"/>
    </contour>
    <contour>
      <point x="540" y="-100" type="move" name="L"/>
    </contour>
    <contour>
      <point x="540" y="1100" type="move" name="U"/>
    </contour>
  </outline>
</glyph>
<glyph name="VertLine" format="1">
  <advance width="690"/>
  <unicode hex="007C"/>
  <outline>
    <contour>
      <point x="240" y="1600" type="line" name="hr00"/>
      <point x="240" y="-390" type="line"/>
      <point x="450" y="-390" type="line"/>
      <point x="450" y="1600" type="line"/>
    </contour>
  </outline>
</glyph>
<glyph name="Tilde" format="1">
  <advance width="1115"/>
  <unicode hex="007E"/>
  <outline>
    <contour>
      <point x="165" y="345" type="line" name="hr00"/>
      <point x="170" y="394"/>
      <point x="202" y="435"/>
      <point x="280" y="435" type="curve" smooth="yes"/>
      <point x="435" y="435"/>
      <point x="615" y="330"/>
      <point x="825" y="330" type="curve" smooth="yes"/>
      <point x="984" y="330"/>
      <point x="1080" y="512"/>
      <point x="1080" y="640" type="curve"/>
      <point x="935" y="640" type="line"/>
      <point x="928" y="594"/>
      <point x="898" y="540"/>
      <point x="815" y="540" type="curve" smooth="yes"/>
      <point x="599" y="540"/>
      <point x="461" y="645"/>
      <point x="260" y="645" type="curve" smooth="yes"/>
      <point x="104" y="645"/>
      <point x="20" y="467"/>
      <point x="20" y="345" type="curve"/>
    </contour>
  </outline>
</glyph>
<glyph name="InvExclamationMrk" format="1">
  <advance width="780"/>
  <unicode hex="00A1"/>
  <outline>
    <contour>
      <point x="245" y="585" type="line" name="hr00"/>
      <point x="238" y="295"/>
      <point x="243" y="9"/>
      <point x="205" y="-425" type="curve"/>
      <point x="540" y="-425" type="line"/>
      <point x="501" y="9"/>
      <point x="506" y="295"/>
      <point x="500" y="585" type="curve"/>
    </contour>
    <contour>
      <point x="200" y="935" type="curve" smooth="yes"/>
      <point x="200" y="833"/>
      <point x="274" y="760"/>
      <point x="375" y="760" type="curve" smooth="yes"/>
      <point x="477" y="760"/>
      <point x="550" y="833"/>
      <point x="550" y="935" type="curve" smooth="yes"/>
      <point x="550" y="1039"/>
      <point x="477" y="1110"/>
      <point x="375" y="1110" type="curve" smooth="yes"/>
      <point x="274" y="1110"/>
      <point x="200" y="1039"/>
    </contour>
  </outline>
</glyph>
<glyph name="CentSgn" format="1">
  <advance width="1090"/>
  <unicode hex="00A2"/>
  <outline>
    <contour>
      <point x="922" y="372" type="line"/>
      <point x="839" y="307"/>
      <point x="765" y="269"/>
      <point x="651" y="269" type="curve" smooth="yes"/>
      <point x="508" y="269"/>
      <point x="416" y="382"/>
      <point x="416" y="549" type="curve" smooth="yes"/>
      <point x="416" y="733"/>
      <point x="519" y="843"/>
      <point x="651" y="843" type="curve" smooth="yes"/>
      <point x="749" y="843"/>
      <point x="813" y="814"/>
      <point x="899" y="755" type="curve"/>
      <point x="941" y="995" type="line"/>
      <point x="871" y="1031"/>
      <point x="771" y="1062"/>
      <point x="646" y="1062" type="curve" smooth="yes"/>
      <point x="345" y="1062"/>
      <point x="150" y="836"/>
      <point x="150" y="539" type="curve" smooth="yes"/>
      <point x="150" y="227"/>
      <point x="358" y="50"/>
      <point x="614" y="50" type="curve" smooth="yes"/>
      <point x="755" y="50"/>
      <point x="854" y="81"/>
      <point x="950" y="140" type="curve"/>
    </contour>
    <contour>
      <point x="563" y="1320" type="line"/>
      <point x="563" y="-210" type="line" name="hr01"/>
      <point x="753" y="-210" type="line" name="hr02"/>
      <point x="753" y="1320" type="line"/>
    </contour>
  </outline>
</glyph>
<glyph name="PoundSgn" format="1">
  <advance width="1240"/>
  <unicode hex="00A3"/>
  <outline>
    <contour>
      <point x="853" y="870" type="line"/>
      <point x="150" y="870" type="line" name="hr01"/>
      <point x="150" y="670" type="line"/>
      <point x="853" y="670" type="line" name="hr02"/>
    </contour>
    <contour>
      <point x="1074" y="245" type="line"/>
      <point x="1001" y="231"/>
      <point x="855" y="230"/>
      <point x="675" y="230" type="curve" smooth="yes"/>
      <point x="479" y="230" type="line"/>
      <point x="556" y="323"/>
      <point x="579" y="431"/>
      <point x="579" y="575" type="curve" smooth="yes" name="hr03"/>
      <point x="579" y="724"/>
      <point x="540" y="899"/>
      <point x="540" y="1055" type="curve" smooth="yes" name="hr04"/>
      <point x="540" y="1199"/>
      <point x="609" y="1255"/>
      <point x="711" y="1255" type="curve" smooth="yes"/>
      <point x="775" y="1255"/>
      <point x="878" y="1232"/>
      <point x="933" y="1195" type="curve"/>
      <point x="979" y="1415" type="line"/>
      <point x="912" y="1459"/>
      <point x="795" y="1485"/>
      <point x="711" y="1485" type="curve" smooth="yes"/>
      <point x="429" y="1485"/>
      <point x="256" y="1332"/>
      <point x="256" y="1025" type="curve" smooth="yes"/>
      <point x="256" y="857"/>
      <point x="299" y="686"/>
      <point x="299" y="502" type="curve" smooth="yes" name="hr05"/>
      <point x="299" y="370"/>
      <point x="230" y="258"/>
      <point x="150" y="190" type="curve"/>
      <point x="150" y="0" type="line"/>
      <point x="1074" y="0" type="line"/>
    </contour>
  </outline>
</glyph>
<glyph name="CurrSgn" format="1">
  <advance width="1240"/>
  <unicode hex="00A4"/>
  <outline>
    <contour>
      <point x="1201" y="420" type="line" name="hr00"/>
      <point x="991" y="631" type="line"/>
      <point x="1046" y="705"/>
      <point x="1067" y="781"/>
      <point x="1067" y="877" type="curve" smooth="yes"/>
      <point x="1067" y="973"/>
      <point x="1040" y="1056"/>
      <point x="989" y="1129" type="curve"/>
      <point x="1201" y="1342" type="line"/>
      <point x="1082" y="1462" type="line"/>
      <point x="865" y="1245" type="line"/>
      <point x="795" y="1299"/>
      <point x="718" y="1324"/>
      <point x="624" y="1324" type="curve" smooth="yes"/>
      <point x="528" y="1324"/>
      <point x="447" y="1301"/>
      <point x="374" y="1247" type="curve"/>
      <point x="159" y="1462" type="line"/>
      <point x="39" y="1343" type="line"/>
      <point x="254" y="1128" type="line"/>
      <point x="194" y="1056"/>
      <point x="173" y="969"/>
      <point x="173" y="874" type="curve" smooth="yes"/>
      <point x="173" y="778"/>
      <point x="195" y="704"/>
      <point x="250" y="630" type="curve"/>
      <point x="39" y="419" type="line"/>
      <point x="159" y="300" type="line"/>
      <point x="370" y="511" type="line"/>
      <point x="446" y="450"/>
      <point x="522" y="427"/>
      <point x="624" y="427" type="curve" smooth="yes"/>
      <point x="718" y="427"/>
      <point x="796" y="452"/>
      <point x="870" y="512" type="curve"/>
      <point x="1082" y="300" type="line"/>
    </contour>
    <contour>
      <point x="905" y="877" type="curve" smooth="yes"/>
      <point x="905" y="715"/>
      <point x="787" y="589"/>
      <point x="624" y="589" type="curve" smooth="yes"/>
      <point x="458" y="589"/>
      <point x="335" y="708"/>
      <point x="335" y="874" type="curve" smooth="yes"/>
      <point x="335" y="1043"/>
      <point x="456" y="1162"/>
      <point x="624" y="1162" type="curve" smooth="yes"/>
      <point x="786" y="1162"/>
      <point x="905" y="1037"/>
    </contour>
  </outline>
</glyph>
<glyph name="YenSgn" format="1">
  <advance width="1240"/>
  <unicode hex="00A5"/>
  <outline>
    <contour>
      <point x="555" y="560" type="line"/>
      <point x="762" y="655" type="line"/>
      <point x="337" y="1460" type="line"/>
      <point x="5" y="1460" type="line"/>
      <point x="117" y="1311"/>
      <point x="183" y="1197"/>
      <point x="260" y="1065" type="curve" smooth="yes"/>
    </contour>
    <contour>
      <point x="686" y="560" type="line"/>
      <point x="985" y="1065" type="line" smooth="yes"/>
      <point x="1061" y="1195"/>
      <point x="1117" y="1291"/>
      <point x="1235" y="1460" type="curve"/>
      <point x="913" y="1460" type="line"/>
      <point x="493" y="655" type="line"/>
    </contour>
    <contour>
      <point x="478" y="695" type="line"/>
      <point x="478" y="435" type="line" smooth="yes"/>
      <point x="478" y="238"/>
      <point x="478" y="80"/>
      <point x="463" y="0" type="curve" name="hr01"/>
      <point x="778" y="0" type="line"/>
      <point x="763" y="80"/>
      <point x="763" y="238"/>
      <point x="763" y="435" type="curve" smooth="yes"/>
      <point x="763" y="695" type="line"/>
    </contour>
    <contour>
      <point x="140" y="354" type="line"/>
      <point x="1100" y="354" type="line"/>
      <point x="1100" y="564" type="line"/>
      <point x="140" y="564" type="line"/>
    </contour>
    <contour>
      <point x="140" y="670" type="line"/>
      <point x="1100" y="670" type="line"/>
      <point x="1100" y="880" type="line"/>
      <point x="140" y="880" type="line"/>
    </contour>
  </outline>
</glyph>
<glyph name="BrokenBar" format="1">
  <advance width="1064"/>
  <unicode hex="00A6"/>
  <outline>
    <contour>
      <point x="430" y="445" type="line" name="hr00"/>
      <point x="430" y="-390" type="line"/>
      <point x="640" y="-390" type="line"/>
      <point x="640" y="445" type="line"/>
    </contour>
    <contour>
      <point x="640" y="775" type="line"/>
      <point x="640" y="1600" type="line"/>
      <point x="430" y="1600" type="line"/>
      <point x="430" y="775" type="line"/>
    </contour>
  </outline>
</glyph>
<glyph name="Diaer" format="1">
  <advance width="840"/>
  <unicode hex="00A8"/>
  <outline>
    <contour>
      <point x="490" y="1385" type="curve" smooth="yes" name="hr00"/>
      <point x="490" y="1281"/>
      <point x="564" y="1210"/>
      <point x="665" y="1210" type="curve" smooth="yes"/>
      <point x="767" y="1210"/>
      <point x="840" y="1281"/>
      <point x="840" y="1385" type="curve" smooth="yes"/>
      <point x="840" y="1487"/>
      <point x="767" y="1560"/>
      <point x="665" y="1560" type="curve" smooth="yes"/>
      <point x="564" y="1560"/>
      <point x="490" y="1487"/>
    </contour>
    <contour>
      <point x="0" y="1385" type="curve" smooth="yes"/>
      <point x="0" y="1281"/>
      <point x="74" y="1210"/>
      <point x="175" y="1210" type="curve" smooth="yes"/>
      <point x="277" y="1210"/>
      <point x="350" y="1281"/>
      <point x="350" y="1385" type="curve" smooth="yes"/>
      <point x="350" y="1487"/>
      <point x="277" y="1560"/>
      <point x="175" y="1560" type="curve" smooth="yes"/>
      <point x="74" y="1560"/>
      <point x="0" y="1487"/>
    </contour>
    <contour>
      <point x="420" y="1585" type="move" name="U"/>
    </contour>
  </outline>
</glyph>
<glyph name="CopyrightSgn" format="2">
  <advance width="1535"/>
  <unicode hex="00A9"/>
  <outline>
    <contour>
      <point x="765" y="1324" type="curve" smooth="yes"/>
      <point x="1050" y="1324"/>
      <point x="1323" y="1118"/>
      <point x="1323" y="730" type="curve" smooth="yes"/>
      <point x="1323" y="342"/>
      <point x="1050" y="136"/>
      <point x="765" y="136" type="curve" smooth="yes"/>
      <point x="480" y="136"/>
      <point x="212" y="342"/>
      <point x="212" y="730" type="curve" smooth="yes"/>
      <point x="212" y="1118"/>
      <point x="480" y="1324"/>
    </contour>
    <contour>
      <point x="765" y="1485" type="curve" smooth="yes"/>
      <point x="399" y="1485"/>
      <point x="45" y="1230"/>
      <point x="45" y="730" type="curve" smooth="yes"/>
      <point x="45" y="220"/>
      <point x="399" y="-25"/>
      <point x="765" y="-25" type="curve" smooth="yes"/>
      <point x="1120" y="-25"/>
      <point x="1490" y="220"/>
      <point x="1490" y="730" type="curve" smooth="yes"/>
      <point x="1490" y="1230"/>
      <point x="1120" y="1485"/>
    </contour>
    <contour>
      <point x="1019" y="543" type="line"/>
      <point x="956" y="476"/>
      <point x="859" y="433"/>
      <point x="773" y="433" type="curve" smooth="yes"/>
      <point x="627" y="433"/>
      <point x="541" y="544"/>
      <point x="541" y="731" type="curve" smooth="yes"/>
      <point x="541" y="929"/>
      <point x="642" y="1027"/>
      <point x="779" y="1027" type="curve" smooth="yes"/>
      <point x="854" y="1027"/>
      <point x="924" y="1003"/>
      <point x="1000" y="944" type="curve"/>
      <point x="1039" y="1098" type="line"/>
      <point x="956" y="1161"/>
      <point x="877" y="1181"/>
      <point x="770" y="1181" type="curve" smooth="yes"/>
      <point x="553" y="1181"/>
      <point x="365" y="1025"/>
      <point x="365" y="716" type="curve" smooth="yes"/>
      <point x="365" y="447"/>
      <point x="512" y="276"/>
      <point x="752" y="276" type="curve" smooth="yes"/>
      <point x="851" y="276"/>
      <point x="977" y="315"/>
      <point x="1048" y="374" type="curve"/>
    </contour>
  </outline>
</glyph>
<glyph name="FemOrdIndicator" format="2">
  <advance width="810"/>
  <unicode hex="00AA"/>
  <outline>
    <contour>
      <point x="559" y="879" type="line"/>
      <point x="559" y="832"/>
      <point x="575" y="720"/>
      <point x="594" y="689" type="curve"/>
      <point x="767" y="689" type="line"/>
      <point x="742" y="761"/>
      <point x="726" y="870"/>
      <point x="726" y="1035" type="curve" smooth="yes"/>
      <point x="726" y="1337" type="line"/>
      <point x="652" y="1353"/>
      <point x="553" y="1365"/>
      <point x="460" y="1365" type="curve" smooth="yes"/>
      <point x="190" y="1365"/>
      <point x="71" y="1163"/>
      <point x="71" y="955" type="curve" smooth="yes"/>
      <point x="71" y="772"/>
      <point x="156" y="673"/>
      <point x="267" y="673" type="curve" smooth="yes"/>
      <point x="392" y="673"/>
      <point x="505" y="820"/>
      <point x="559" y="947" type="curve"/>
    </contour>
    <contour>
      <point x="539" y="1184" type="line" smooth="yes"/>
      <point x="539" y="1106"/>
      <point x="422" y="828"/>
      <point x="324" y="828" type="curve" smooth="yes"/>
      <point x="287" y="828"/>
      <point x="254" y="879"/>
      <point x="254" y="955" type="curve" smooth="yes"/>
      <point x="254" y="1090"/>
      <point x="296" y="1219"/>
      <point x="433" y="1219" type="curve" smooth="yes"/>
      <point x="487" y="1219"/>
      <point x="521" y="1212"/>
      <point x="539" y="1207" type="curve"/>
    </contour>
    <contour>
      <point x="80" y="451" type="line"/>
      <point x="770" y="451" type="line"/>
      <point x="770" y="601" type="line"/>
      <point x="80" y="601" type="line"/>
    </contour>
  </outline>
</glyph>
<glyph name="LftPtngDblAngQuotMrk" format="1">
  <advance width="1306"/>
  <unicode hex="00AB"/>
  <outline>
    <contour>
      <point x="750" y="0" type="line" name="hr00"/>
      <point x="380" y="510" type="line"/>
      <point x="750" y="1020" type="line"/>
      <point x="505" y="1020" type="line"/>
      <point x="70" y="510" type="line"/>
      <point x="505" y="0" type="line"/>
    </contour>
    <contour>
      <point x="1256" y="0" type="line"/>
      <point x="886" y="510" type="line"/>
      <point x="1256" y="1020" type="line"/>
      <point x="1011" y="1020" type="line"/>
      <point x="576" y="510" type="line"/>
      <point x="1011" y="0" type="line"/>
    </contour>
  </outline>
</glyph>
<glyph name="NotSgn" format="1">
  <advance width="1200"/>
  <unicode hex="00AC"/>
  <outline>
    <contour>
      <point x="1080" y="340" type="line"/>
      <point x="1080" y="830" type="line"/>
      <point x="95" y="830" type="line"/>
      <point x="95" y="620" type="line" name="hr01"/>
      <point x="870" y="620" type="line"/>
      <point x="870" y="340" type="line" name="hr02"/>
    </contour>
  </outline>
</glyph>
<glyph name="RegisteredSgn" format="1">
  <advance width="1545"/>
  <unicode hex="00AE"/>
  <outline>
    <contour>
      <point x="775" y="1324" type="curve" smooth="yes" name="hr00"/>
      <point x="1060" y="1324"/>
      <point x="1333" y="1118"/>
      <point x="1333" y="730" type="curve" smooth="yes"/>
      <point x="1333" y="342"/>
      <point x="1060" y="136"/>
      <point x="775" y="136" type="curve" smooth="yes"/>
      <point x="485" y="136"/>
      <point x="212" y="342"/>
      <point x="212" y="730" type="curve" smooth="yes"/>
      <point x="212" y="1118"/>
      <point x="485" y="1324"/>
    </contour>
    <contour>
      <point x="775" y="1485" type="curve" smooth="yes"/>
      <point x="404" y="1485"/>
      <point x="45" y="1230"/>
      <point x="45" y="730" type="curve" smooth="yes"/>
      <point x="45" y="220"/>
      <point x="404" y="-25"/>
      <point x="775" y="-25" type="curve" smooth="yes"/>
      <point x="1130" y="-25"/>
      <point x="1500" y="220"/>
      <point x="1500" y="730" type="curve" smooth="yes"/>
      <point x="1500" y="1230"/>
      <point x="1130" y="1485"/>
    </contour>
    <contour>
      <point x="622" y="648" type="line"/>
      <point x="705" y="648" type="line"/>
      <point x="923" y="300" type="line"/>
      <point x="1132" y="300" type="line"/>
      <point x="1100" y="336"/>
      <point x="937" y="579"/>
      <point x="871" y="671" type="curve"/>
      <point x="975" y="708"/>
      <point x="1051" y="777"/>
      <point x="1051" y="917" type="curve" smooth="yes"/>
      <point x="1051" y="1099"/>
      <point x="924" y="1174"/>
      <point x="740" y="1174" type="curve" smooth="yes"/>
      <point x="602" y="1174"/>
      <point x="443" y="1168"/>
      <point x="443" y="1168" type="curve"/>
      <point x="452" y="1120"/>
      <point x="452" y="1010"/>
      <point x="452" y="894" type="curve" smooth="yes"/>
      <point x="452" y="559" type="line" smooth="yes"/>
      <point x="452" y="442"/>
      <point x="452" y="348"/>
      <point x="443" y="300" type="curve"/>
      <point x="630" y="300" type="line"/>
      <point x="622" y="347"/>
      <point x="622" y="442"/>
      <point x="622" y="559" type="curve" smooth="yes"/>
    </contour>
    <contour>
      <point x="624" y="1032" type="line"/>
      <point x="656" y="1034"/>
      <point x="674" y="1035"/>
      <point x="718" y="1035" type="curve" smooth="yes"/>
      <point x="821" y="1035"/>
      <point x="876" y="1002"/>
      <point x="876" y="914" type="curve" smooth="yes"/>
      <point x="876" y="813"/>
      <point x="812" y="780"/>
      <point x="714" y="780" type="curve" smooth="yes"/>
      <point x="624" y="780" type="line"/>
    </contour>
  </outline>
</glyph>
<glyph name="Macron" format="2">
  <advance width="830"/>
  <unicode hex="00AF"/>
  <outline>
    <contour>
      <point x="0" y="1240" type="line"/>
      <point x="830" y="1240" type="line"/>
      <point x="830" y="1440" type="line"/>
      <point x="0" y="1440" type="line"/>
    </contour>
  </outline>
</glyph>
<glyph name="DegreeSgn" format="1">
  <advance width="715"/>
  <unicode hex="00B0"/>
  <outline>
    <contour>
      <point x="505" y="1190" type="curve" smooth="yes" name="hr00"/>
      <point x="505" y="1109"/>
      <point x="441" y="1040"/>
      <point x="360" y="1040" type="curve" smooth="yes"/>
      <point x="279" y="1040"/>
      <point x="210" y="1109"/>
      <point x="210" y="1190" type="curve" smooth="yes"/>
      <point x="210" y="1272"/>
      <point x="279" y="1335"/>
      <point x="360" y="1335" type="curve" smooth="yes"/>
      <point x="441" y="1335"/>
      <point x="505" y="1272"/>
    </contour>
    <contour>
      <point x="60" y="1190" type="curve" smooth="yes"/>
      <point x="60" y="1021"/>
      <point x="191" y="890"/>
      <point x="360" y="890" type="curve" smooth="yes"/>
      <point x="529" y="890"/>
      <point x="655" y="1021"/>
      <point x="655" y="1190" type="curve" smooth="yes"/>
      <point x="655" y="1359"/>
      <point x="529" y="1485"/>
      <point x="360" y="1485" type="curve" smooth="yes"/>
      <point x="191" y="1485"/>
      <point x="60" y="1359"/>
    </contour>
  </outline>
</glyph>
<glyph name="PlusMinusSgn" format="1">
  <advance width="1200"/>
  <unicode hex="00B1"/>
  <outline>
    <contour>
      <point x="495" y="1365" type="line" name="hr00"/>
      <point x="495" y="470" type="line"/>
      <point x="705" y="470" type="line"/>
      <point x="705" y="1365" type="line"/>
    </contour>
    <contour>
      <point x="155" y="805" type="line"/>
      <point x="1045" y="805" type="line"/>
      <point x="1045" y="1015" type="line"/>
      <point x="155" y="1015" type="line"/>
    </contour>
    <contour>
      <point x="155" y="170" type="line"/>
      <point x="1045" y="170" type="line"/>
      <point x="1045" y="370" type="line"/>
      <point x="155" y="370" type="line"/>
    </contour>
  </outline>
</glyph>
<glyph name="SupTwo" format="1">
  <advance width="840"/>
  <unicode hex="00B2"/>
  <outline>
    <contour>
      <point x="768" y="849" type="line" name="hr00"/>
      <point x="712" y="840"/>
      <point x="664" y="839"/>
      <point x="526" y="839" type="curve" smooth="yes"/>
      <point x="341" y="839" type="line"/>
      <point x="494" y="954"/>
      <point x="737" y="1160"/>
      <point x="737" y="1372" type="curve" smooth="yes"/>
      <point x="737" y="1540"/>
      <point x="600" y="1645"/>
      <point x="397" y="1645" type="curve" smooth="yes"/>
      <point x="279" y="1645"/>
      <point x="142" y="1591"/>
      <point x="78" y="1518" type="curve"/>
      <point x="124" y="1362" type="line"/>
      <point x="186" y="1433"/>
      <point x="293" y="1483"/>
      <point x="380" y="1483" type="curve" smooth="yes"/>
      <point x="487" y="1483"/>
      <point x="536" y="1416"/>
      <point x="536" y="1340" type="curve" smooth="yes"/>
      <point x="536" y="1173"/>
      <point x="272" y="950"/>
      <point x="82" y="823" type="curve"/>
      <point x="82" y="680" type="line"/>
      <point x="768" y="680" type="line"/>
    </contour>
    <contour>
      <point x="420" y="615" type="move" name="L"/>
    </contour>
    <contour>
      <point x="420" y="1675" type="move" name="U"/>
    </contour>
  </outline>
</glyph>
<glyph name="SupThree" format="1">
  <advance width="840"/>
  <unicode hex="00B3"/>
  <outline>
    <contour>
      <point x="278" y="1255" type="line" name="hr00"/>
      <point x="278" y="1099" type="line"/>
      <point x="341" y="1099" type="line" smooth="yes"/>
      <point x="499" y="1099"/>
      <point x="589" y="1036"/>
      <point x="589" y="956" type="curve" smooth="yes"/>
      <point x="589" y="869"/>
      <point x="501" y="816"/>
      <point x="401" y="816" type="curve" smooth="yes"/>
      <point x="288" y="816"/>
      <point x="176" y="863"/>
      <point x="100" y="943" type="curve"/>
      <point x="75" y="764" type="line"/>
      <point x="148" y="701"/>
      <point x="263" y="664"/>
      <point x="387" y="664" type="curve" smooth="yes"/>
      <point x="617" y="664"/>
      <point x="789" y="790"/>
      <point x="789" y="943" type="curve" smooth="yes"/>
      <point x="789" y="1117"/>
      <point x="629" y="1171"/>
      <point x="530" y="1187" type="curve"/>
      <point x="629" y="1206"/>
      <point x="754" y="1302"/>
      <point x="754" y="1421" type="curve" smooth="yes"/>
      <point x="754" y="1560"/>
      <point x="613" y="1645"/>
      <point x="411" y="1645" type="curve" smooth="yes"/>
      <point x="294" y="1645"/>
      <point x="173" y="1600"/>
      <point x="117" y="1541" type="curve"/>
      <point x="141" y="1392" type="line"/>
      <point x="221" y="1467"/>
      <point x="310" y="1492"/>
      <point x="418" y="1492" type="curve" smooth="yes"/>
      <point x="487" y="1492"/>
      <point x="559" y="1455"/>
      <point x="559" y="1396" type="curve" smooth="yes"/>
      <point x="559" y="1326"/>
      <point x="468" y="1255"/>
      <point x="341" y="1255" type="curve" smooth="yes"/>
    </contour>
    <contour>
      <point x="420" y="615" type="move" name="L"/>
    </contour>
    <contour>
      <point x="420" y="1675" type="move" name="U"/>
    </contour>
  </outline>
</glyph>
<glyph name="AcuteAccent" format="1">
  <advance width="640"/>
  <unicode hex="00B4"/>
  <outline>
    <contour>
      <point x="290" y="1600" type="line" name="hr00"/>
      <point x="0" y="1200" type="line"/>
      <point x="240" y="1200" type="line"/>
      <point x="640" y="1600" type="line"/>
    </contour>
    <contour>
      <point x="190" y="1635" type="move" name="U"/>
    </contour>
  </outline>
</glyph>
<glyph name="MicroSgn" format="2">
  <advance width="1245"/>
  <unicode hex="00B5"/>
  <outline>
    <contour>
      <point x="1160" y="0" type="line"/>
      <point x="1118" y="112"/>
      <point x="1095" y="256"/>
      <point x="1095" y="450" type="curve" smooth="yes"/>
      <point x="1095" y="632"/>
      <point x="1095" y="1020"/>
      <point x="1095" y="1020" type="curve"/>
      <point x="795" y="1020" type="line"/>
      <point x="813" y="898"/>
      <point x="815" y="832"/>
      <point x="815" y="700" type="curve" smooth="yes"/>
      <point x="815" y="418" type="line"/>
      <point x="782" y="326"/>
      <point x="675" y="206"/>
      <point x="600" y="206" type="curve" smooth="yes"/>
      <point x="466" y="206"/>
      <point x="425" y="284"/>
      <point x="425" y="465" type="curve" smooth="yes"/>
      <point x="425" y="619"/>
      <point x="425" y="1020"/>
      <point x="425" y="1020" type="curve"/>
      <point x="125" y="1020" type="line"/>
      <point x="143" y="900"/>
      <point x="145" y="827"/>
      <point x="145" y="700" type="curve" smooth="yes"/>
      <point x="145" y="-490" type="line"/>
      <point x="450" y="-490" type="line"/>
      <point x="433" y="-405"/>
      <point x="425" y="-310"/>
      <point x="425" y="-150" type="curve"/>
      <point x="425" y="25" type="line"/>
      <point x="471" y="-19"/>
      <point x="521" y="-25"/>
      <point x="578" y="-25" type="curve" smooth="yes"/>
      <point x="655" y="-25"/>
      <point x="758" y="48"/>
      <point x="840" y="185" type="curve"/>
      <point x="850" y="116"/>
      <point x="876" y="43"/>
      <point x="895" y="0" type="curve"/>
    </contour>
  </outline>
</glyph>
<glyph name="PilcrowSgn" format="1">
  <advance width="1105"/>
  <unicode hex="00B6"/>
  <outline>
    <contour>
      <point x="1045" y="1315" type="line"/>
      <point x="1045" y="1460" type="line"/>
      <point x="460" y="1460" type="line" smooth="yes"/>
      <point x="282" y="1460"/>
      <point x="50" y="1382"/>
      <point x="50" y="1103" type="curve" smooth="yes" name="hr01"/>
      <point x="50" y="825"/>
      <point x="283" y="745"/>
      <point x="440" y="745" type="curve"/>
      <point x="440" y="0" type="line"/>
      <point x="605" y="0" type="line"/>
      <point x="605" y="1315" type="line"/>
      <point x="765" y="1315" type="line"/>
      <point x="765" y="0" type="line"/>
      <point x="930" y="0" type="line"/>
      <point x="930" y="1315" type="line"/>
    </contour>
  </outline>
</glyph>
<glyph name="MiddleDot" format="1">
  <advance width="750"/>
  <unicode hex="00B7"/>
  <outline>
    <contour>
      <point x="200" y="710" type="curve" smooth="yes" name="hr00"/>
      <point x="200" y="606"/>
      <point x="274" y="535"/>
      <point x="375" y="535" type="curve" smooth="yes"/>
      <point x="477" y="535"/>
      <point x="550" y="606"/>
      <point x="550" y="710" type="curve" smooth="yes"/>
      <point x="550" y="812"/>
      <point x="477" y="885"/>
      <point x="375" y="885" type="curve" smooth="yes"/>
      <point x="274" y="885"/>
      <point x="200" y="812"/>
    </contour>
  </outline>
</glyph>
<glyph name="Cedilla" format="1">
  <advance width="420"/>
  <unicode hex="00B8"/>
  <outline>
    <contour>
      <point x="60" y="0" type="line" name="hr00"/>
      <point x="60" y="-215" type="line"/>
      <point x="81" y="-205"/>
      <point x="123" y="-195"/>
      <point x="160" y="-195" type="curve" smooth="yes"/>
      <point x="209" y="-195"/>
      <point x="250" y="-228"/>
      <point x="250" y="-270" type="curve" smooth="yes"/>
      <point x="250" y="-325"/>
      <point x="190" y="-355"/>
      <point x="130" y="-355" type="curve" smooth="yes"/>
      <point x="83" y="-355"/>
      <point x="39" y="-343"/>
      <point x="10" y="-320" type="curve"/>
      <point x="0" y="-450" type="line"/>
      <point x="41" y="-473"/>
      <point x="103" y="-490"/>
      <point x="155" y="-490" type="curve" smooth="yes"/>
      <point x="284" y="-490"/>
      <point x="420" y="-406"/>
      <point x="420" y="-270" type="curve" smooth="yes"/>
      <point x="420" y="-171"/>
      <point x="354" y="-100"/>
      <point x="253" y="-100" type="curve" smooth="yes"/>
      <point x="231" y="-100"/>
      <point x="218" y="-102"/>
      <point x="205" y="-105" type="curve"/>
      <point x="205" y="0" type="line"/>
    </contour>
    <contour>
      <point x="130" y="-530" type="move" name="L"/>
    </contour>
  </outline>
</glyph>
<glyph name="SupOne" format="1">
  <advance width="840"/>
  <unicode hex="00B9"/>
  <outline>
    <contour>
      <point x="735" y="680" type="line" name="hr00"/>
      <point x="735" y="833" type="line"/>
      <point x="519" y="833" type="line"/>
      <point x="519" y="1629" type="line"/>
      <point x="326" y="1629" type="line"/>
      <point x="106" y="1511" type="line"/>
      <point x="130" y="1342" type="line"/>
      <point x="326" y="1440" type="line"/>
      <point x="326" y="833" type="line"/>
      <point x="111" y="833" type="line"/>
      <point x="111" y="680" type="line"/>
    </contour>
    <contour>
      <point x="420" y="615" type="move" name="L"/>
    </contour>
    <contour>
      <point x="420" y="1675" type="move" name="U"/>
    </contour>
  </outline>
</glyph>
<glyph name="MascOrdIndicator" format="2">
  <advance width="800"/>
  <unicode hex="00BA"/>
  <outline>
    <contour>
      <point x="66" y="1009" type="curve" smooth="yes"/>
      <point x="66" y="786"/>
      <point x="204" y="664"/>
      <point x="399" y="664" type="curve" smooth="yes"/>
      <point x="586" y="664"/>
      <point x="746" y="786"/>
      <point x="746" y="1009" type="curve" smooth="yes"/>
      <point x="746" y="1232"/>
      <point x="609" y="1356"/>
      <point x="413" y="1356" type="curve" smooth="yes"/>
      <point x="226" y="1356"/>
      <point x="66" y="1232"/>
    </contour>
    <contour>
      <point x="260" y="1009" type="curve" smooth="yes"/>
      <point x="260" y="1135"/>
      <point x="316" y="1209"/>
      <point x="407" y="1209" type="curve" smooth="yes"/>
      <point x="501" y="1209"/>
      <point x="553" y="1135"/>
      <point x="553" y="1009" type="curve" smooth="yes"/>
      <point x="553" y="886"/>
      <point x="496" y="810"/>
      <point x="407" y="810" type="curve" smooth="yes"/>
      <point x="311" y="810"/>
      <point x="260" y="886"/>
    </contour>
    <contour>
      <point x="68" y="451" type="line"/>
      <point x="743" y="451" type="line"/>
      <point x="743" y="601" type="line"/>
      <point x="68" y="601" type="line"/>
    </contour>
  </outline>
</glyph>
<glyph name="RtPtngDblAngQuotMrk" format="1">
  <advance width="1306"/>
  <unicode hex="00BB"/>
  <outline>
    <contour>
      <point x="801" y="0" type="line" name="hr00"/>
      <point x="1236" y="510" type="line"/>
      <point x="801" y="1020" type="line"/>
      <point x="556" y="1020" type="line"/>
      <point x="926" y="510" type="line"/>
      <point x="556" y="0" type="line"/>
    </contour>
    <contour>
      <point x="295" y="0" type="line"/>
      <point x="730" y="510" type="line"/>
      <point x="295" y="1020" type="line"/>
      <point x="50" y="1020" type="line"/>
      <point x="420" y="510" type="line"/>
      <point x="50" y="0" type="line"/>
    </contour>
  </outline>
</glyph>
<glyph name="VulgFracOneQuarter" format="1">
  <advance width="1726"/>
  <unicode hex="00BC"/>
  <outline>
    <contour>
      <point x="1676" y="220" type="line"/>
      <point x="1676" y="363" type="line"/>
      <point x="1135" y="363" type="line"/>
      <point x="1405" y="731" type="line"/>
      <point x="1405" y="0" type="line" name="hr01"/>
      <point x="1574" y="0" type="line"/>
      <point x="1574" y="932" type="line"/>
      <point x="1383" y="932" type="line"/>
      <point x="979" y="363" type="line"/>
      <point x="979" y="220" type="line"/>
    </contour>
    <contour>
      <point x="1358" y="1600" type="line"/>
      <point x="287" y="-50" type="line"/>
      <point x="457" y="-50" type="line"/>
      <point x="1529" y="1600" type="line"/>
    </contour>
    <contour>
      <point x="255" y="820" type="line"/>
      <point x="60" y="820" type="line"/>
      <point x="60" y="670" type="line"/>
      <point x="596" y="670" type="line"/>
      <point x="596" y="820" type="line"/>
      <point x="420" y="820" type="line"/>
      <point x="420" y="1590" type="line"/>
      <point x="255" y="1590" type="line"/>
      <point x="50" y="1474" type="line"/>
      <point x="77" y="1308" type="line"/>
      <point x="255" y="1405" type="line"/>
    </contour>
  </outline>
</glyph>
<glyph name="VulgFracOneHalf" format="2">
  <advance width="1726"/>
  <unicode hex="00BD"/>
  <outline>
    <contour>
      <point x="1298" y="1600" type="line"/>
      <point x="227" y="-50" type="line"/>
      <point x="397" y="-50" type="line"/>
      <point x="1469" y="1600" type="line"/>
    </contour>
    <contour>
      <point x="255" y="820" type="line"/>
      <point x="60" y="820" type="line"/>
      <point x="60" y="670" type="line"/>
      <point x="596" y="670" type="line"/>
      <point x="596" y="820" type="line"/>
      <point x="420" y="820" type="line"/>
      <point x="420" y="1590" type="line"/>
      <point x="255" y="1590" type="line"/>
      <point x="50" y="1474" type="line"/>
      <point x="77" y="1308" type="line"/>
      <point x="255" y="1405" type="line"/>
    </contour>
    <contour>
      <point x="1676" y="165" type="line"/>
      <point x="1625" y="157"/>
      <point x="1581" y="155"/>
      <point x="1456" y="155" type="curve" smooth="yes"/>
      <point x="1287" y="155" type="line"/>
      <point x="1427" y="268"/>
      <point x="1648" y="470"/>
      <point x="1648" y="678" type="curve" smooth="yes"/>
      <point x="1648" y="842"/>
      <point x="1523" y="945"/>
      <point x="1338" y="945" type="curve" smooth="yes"/>
      <point x="1241" y="945"/>
      <point x="1127" y="892"/>
      <point x="1069" y="831" type="curve"/>
      <point x="1110" y="678" type="line"/>
      <point x="1167" y="737"/>
      <point x="1254" y="786"/>
      <point x="1322" y="786" type="curve" smooth="yes"/>
      <point x="1420" y="786"/>
      <point x="1464" y="721"/>
      <point x="1464" y="646" type="curve" smooth="yes"/>
      <point x="1464" y="482"/>
      <point x="1224" y="264"/>
      <point x="1052" y="140" type="curve"/>
      <point x="1052" y="0" type="line"/>
      <point x="1676" y="0" type="line"/>
    </contour>
  </outline>
</glyph>
<glyph name="VulgFracThreeQuarters" format="2">
  <advance width="1726"/>
  <unicode hex="00BE"/>
  <outline>
    <contour>
      <point x="1353" y="1600" type="line"/>
      <point x="282" y="-50" type="line"/>
      <point x="452" y="-50" type="line"/>
      <point x="1524" y="1600" type="line"/>
    </contour>
    <contour>
      <point x="234" y="1223" type="line"/>
      <point x="234" y="1070" type="line"/>
      <point x="291" y="1070" type="line" smooth="yes"/>
      <point x="435" y="1070"/>
      <point x="517" y="1009"/>
      <point x="517" y="930" type="curve" smooth="yes"/>
      <point x="517" y="845"/>
      <point x="437" y="794"/>
      <point x="346" y="794" type="curve" smooth="yes"/>
      <point x="244" y="794"/>
      <point x="141" y="839"/>
      <point x="72" y="918" type="curve"/>
      <point x="50" y="743" type="line"/>
      <point x="116" y="680"/>
      <point x="220" y="644"/>
      <point x="333" y="644" type="curve" smooth="yes"/>
      <point x="542" y="644"/>
      <point x="699" y="768"/>
      <point x="699" y="918" type="curve" smooth="yes"/>
      <point x="699" y="1088"/>
      <point x="554" y="1141"/>
      <point x="463" y="1156" type="curve"/>
      <point x="554" y="1175"/>
      <point x="667" y="1269"/>
      <point x="667" y="1385" type="curve" smooth="yes"/>
      <point x="667" y="1522"/>
      <point x="538" y="1605"/>
      <point x="355" y="1605" type="curve" smooth="yes"/>
      <point x="249" y="1605"/>
      <point x="139" y="1561"/>
      <point x="88" y="1503" type="curve"/>
      <point x="110" y="1357" type="line"/>
      <point x="182" y="1431"/>
      <point x="263" y="1455"/>
      <point x="361" y="1455" type="curve" smooth="yes"/>
      <point x="424" y="1455"/>
      <point x="489" y="1419"/>
      <point x="489" y="1361" type="curve" smooth="yes"/>
      <point x="489" y="1292"/>
      <point x="407" y="1223"/>
      <point x="291" y="1223" type="curve" smooth="yes"/>
    </contour>
    <contour>
      <point x="1676" y="220" type="line"/>
      <point x="1676" y="363" type="line"/>
      <point x="1135" y="363" type="line"/>
      <point x="1405" y="731" type="line"/>
      <point x="1405" y="0" type="line"/>
      <point x="1574" y="0" type="line"/>
      <point x="1574" y="932" type="line"/>
      <point x="1383" y="932" type="line"/>
      <point x="979" y="363" type="line"/>
      <point x="979" y="220" type="line"/>
    </contour>
  </outline>
</glyph>
<glyph name="InvQstnMrk" format="2">
  <advance width="1090"/>
  <unicode hex="00BF"/>
  <outline>
    <contour>
      <point x="400" y="585" type="line"/>
      <point x="400" y="414"/>
      <point x="372" y="280"/>
      <point x="273" y="129" type="curve" smooth="yes"/>
      <point x="203" y="22"/>
      <point x="140" y="-32"/>
      <point x="140" y="-135" type="curve" smooth="yes"/>
      <point x="140" y="-317"/>
      <point x="283" y="-455"/>
      <point x="540" y="-455" type="curve" smooth="yes"/>
      <point x="685" y="-455"/>
      <point x="834" y="-385"/>
      <point x="900" y="-322" type="curve"/>
      <point x="855" y="-83" type="line"/>
      <point x="779" y="-162"/>
      <point x="668" y="-210"/>
      <point x="568" y="-210" type="curve" smooth="yes"/>
      <point x="471" y="-210"/>
      <point x="425" y="-164"/>
      <point x="425" y="-105" type="curve" smooth="yes"/>
      <point x="425" y="-54"/>
      <point x="492" y="14"/>
      <point x="545" y="105" type="curve" smooth="yes"/>
      <point x="604" y="207"/>
      <point x="665" y="375"/>
      <point x="665" y="585" type="curve"/>
    </contour>
    <contour>
      <point x="705" y="935" type="curve" smooth="yes"/>
      <point x="705" y="1039"/>
      <point x="631" y="1110"/>
      <point x="530" y="1110" type="curve" smooth="yes"/>
      <point x="428" y="1110"/>
      <point x="355" y="1039"/>
      <point x="355" y="935" type="curve" smooth="yes"/>
      <point x="355" y="833"/>
      <point x="428" y="760"/>
      <point x="530" y="760" type="curve" smooth="yes"/>
      <point x="631" y="760"/>
      <point x="705" y="833"/>
    </contour>
  </outline>
</glyph>
<glyph name="LtnCapAAcute" format="1">
  <advance width="1485"/>
  <unicode hex="00C1"/>
  <outline>
    <component base="LtnCapA"/>
    <component base="CombAcute" xOffset="1272" yOffset="430"/>
    <contour>
      <point x="1275" y="0" type="move" name="H"/>
    </contour>
    <contour>
      <point x="732" y="-100" type="move" name="L"/>
    </contour>
    <contour>
      <point x="1495" y="0" type="move" name="O"/>
    </contour>
    <contour>
      <point x="672" y="2065" type="move" name="U"/>
    </contour>
  </outline>
</glyph>
<glyph name="LtnCapACircum" format="1">
  <advance width="1485"/>
  <unicode hex="00C2"/>
  <outline>
    <component base="LtnCapA"/>
    <component base="CombCircum" xOffset="1312" yOffset="430"/>
    <contour>
      <point x="1275" y="0" type="move" name="H"/>
    </contour>
    <contour>
      <point x="732" y="-100" type="move" name="L"/>
    </contour>
    <contour>
      <point x="1495" y="0" type="move" name="O"/>
    </contour>
    <contour>
      <point x="724" y="2065" type="move" name="U"/>
    </contour>
  </outline>
</glyph>
<glyph name="LtnCapATilde" format="2">
  <advance width="1485"/>
  <unicode hex="00C3"/>
  <anchor x="1275" y="0" name="H"/>
  <anchor x="732" y="-100" name="L"/>
  <anchor x="1495" y="0" name="O"/>
  <anchor x="732" y="1920" name="U"/>
  <anchor x="732" y="1530" name="_U"/>
  <outline>
    <contour>
      <point x="482" y="1620" type="line"/>
      <point x="488" y="1662"/>
      <point x="509" y="1710"/>
      <point x="559" y="1710" type="curve" smooth="yes"/>
      <point x="602" y="1710"/>
      <point x="659" y="1694"/>
      <point x="742" y="1659" type="curve" smooth="yes"/>
      <point x="812" y="1629"/>
      <point x="864" y="1610"/>
      <point x="926" y="1610" type="curve" smooth="yes"/>
      <point x="1062" y="1610"/>
      <point x="1157" y="1737"/>
      <point x="1157" y="1910" type="curve"/>
      <point x="1002" y="1910" type="line"/>
      <point x="994" y="1868"/>
      <point x="972" y="1820"/>
      <point x="925" y="1820" type="curve" smooth="yes"/>
      <point x="877" y="1820"/>
      <point x="840" y="1838"/>
      <point x="762" y="1867" type="curve" smooth="yes"/>
      <point x="683" y="1896"/>
      <point x="617" y="1920"/>
      <point x="552" y="1920" type="curve" smooth="yes"/>
      <point x="420" y="1920"/>
      <point x="327" y="1779"/>
      <point x="327" y="1620" type="curve"/>
    </contour>
    <contour>
      <point x="350" y="0" type="line"/>
      <point x="460" y="355" type="line"/>
      <point x="1004" y="355" type="line"/>
      <point x="1115" y="0" type="line"/>
      <point x="1408" y="0" type="line"/>
      <point x="1373" y="80"/>
      <point x="1341" y="168"/>
      <point x="1278" y="355" type="curve" smooth="yes"/>
      <point x="908" y="1460" type="line"/>
      <point x="552" y="1460" type="line"/>
      <point x="182" y="355" type="line" smooth="yes"/>
      <point x="119" y="166"/>
      <point x="88" y="81"/>
      <point x="52" y="0" type="curve"/>
    </contour>
    <contour>
      <point x="936" y="570" type="line"/>
      <point x="526" y="570" type="line"/>
      <point x="730" y="1228" type="line"/>
    </contour>
  </outline>
</glyph>
<glyph name="LtnCapADiaer" format="1">
  <advance width="1485"/>
  <unicode hex="00C4"/>
  <outline>
    <component base="LtnCapA"/>
    <component base="CombDiaer" xOffset="1312" yOffset="430"/>
    <contour>
      <point x="1275" y="0" type="move" name="H"/>
    </contour>
    <contour>
      <point x="732" y="-100" type="move" name="L"/>
    </contour>
    <contour>
      <point x="1495" y="0" type="move" name="O"/>
    </contour>
    <contour>
      <point x="732" y="2015" type="move" name="U"/>
    </contour>
  </outline>
</glyph>
<glyph name="LtnCapAe" format="2">
  <advance width="1831"/>
  <unicode hex="00C6"/>
  <anchor x="1010" y="-100" name="L"/>
  <anchor x="1010" y="1530" name="U"/>
  <outline>
    <contour>
      <point x="1610" y="650" type="line"/>
      <point x="1610" y="875" type="line"/>
      <point x="1165" y="875" type="line"/>
      <point x="1165" y="1230" type="line"/>
      <point x="1685" y="1230" type="line"/>
      <point x="1685" y="1460" type="line"/>
      <point x="736" y="1460" type="line"/>
      <point x="196" y="355" type="line" smooth="yes"/>
      <point x="104" y="166"/>
      <point x="59" y="81"/>
      <point x="10" y="0" type="curve"/>
      <point x="308" y="0" type="line"/>
      <point x="880" y="1230" type="line"/>
      <point x="880" y="435" type="line" smooth="yes"/>
      <point x="880" y="238"/>
      <point x="880" y="80"/>
      <point x="865" y="0" type="curve"/>
      <point x="1715" y="0" type="line"/>
      <point x="1715" y="245" type="line"/>
      <point x="1637" y="231"/>
      <point x="1513" y="230"/>
      <point x="1322" y="230" type="curve" smooth="yes"/>
      <point x="1165" y="230" type="line"/>
      <point x="1165" y="650" type="line"/>
    </contour>
    <contour>
      <point x="980" y="355" type="line"/>
      <point x="930" y="570" type="line"/>
      <point x="453" y="570" type="line"/>
      <point x="373" y="355" type="line"/>
    </contour>
  </outline>
</glyph>
<glyph name="LtnCapCCedilla" format="1">
  <advance width="1385"/>
  <unicode hex="00C7"/>
  <outline>
    <component base="LtnCapC"/>
    <component base="CombCedilla" xOffset="1175"/>
    <contour>
      <point x="715" y="-530" type="move" name="L"/>
    </contour>
    <contour>
      <point x="745" y="1530" type="move" name="U"/>
    </contour>
  </outline>
</glyph>
<glyph name="LtnCapEGrave" format="1">
  <advance width="1212"/>
  <unicode hex="00C8"/>
  <outline>
    <component base="LtnCapE"/>
    <component base="CombGrave" xOffset="1240" yOffset="430"/>
    <contour>
      <point x="610" y="0" type="move" name="H"/>
    </contour>
    <contour>
      <point x="610" y="-100" type="move" name="L"/>
    </contour>
    <contour>
      <point x="1004" y="0" type="move" name="O"/>
    </contour>
    <contour>
      <point x="1247" y="1200" type="move" name="R"/>
    </contour>
    <contour>
      <point x="650" y="2065" type="move" name="U"/>
    </contour>
  </outline>
</glyph>
<glyph name="LtnCapECircum" format="1">
  <advance width="1212"/>
  <unicode hex="00CA"/>
  <outline>
    <component base="LtnCapE"/>
    <component base="CombCircum" xOffset="1190" yOffset="430"/>
    <contour>
      <point x="610" y="0" type="move" name="H"/>
    </contour>
    <contour>
      <point x="610" y="-100" type="move" name="L"/>
    </contour>
    <contour>
      <point x="1004" y="0" type="move" name="O"/>
    </contour>
    <contour>
      <point x="1247" y="1200" type="move" name="R"/>
    </contour>
    <contour>
      <point x="602" y="2065" type="move" name="U"/>
    </contour>
  </outline>
</glyph>
<glyph name="LtnCapIGrave" format="1">
  <advance width="1045"/>
  <unicode hex="00CC"/>
  <outline>
    <component base="LtnCapI"/>
    <component base="CombGrave" xOffset="1150" yOffset="430"/>
    <contour>
      <point x="520" y="0" type="move" name="H"/>
    </contour>
    <contour>
      <point x="516" y="-100" type="move" name="L"/>
    </contour>
    <contour>
      <point x="712" y="0" type="move" name="O"/>
    </contour>
    <contour>
      <point x="1014" y="1200" type="move" name="R"/>
    </contour>
    <contour>
      <point x="560" y="2065" type="move" name="U"/>
    </contour>
  </outline>
</glyph>
<glyph name="LtnCapIAcute" format="1">
  <advance width="1045"/>
  <unicode hex="00CD"/>
  <outline>
    <component base="LtnCapI"/>
    <component base="CombAcute" xOffset="1060" yOffset="430"/>
    <contour>
      <point x="520" y="0" type="move" name="H"/>
    </contour>
    <contour>
      <point x="516" y="-100" type="move" name="L"/>
    </contour>
    <contour>
      <point x="712" y="0" type="move" name="O"/>
    </contour>
    <contour>
      <point x="1014" y="1200" type="move" name="R"/>
    </contour>
    <contour>
      <point x="460" y="2065" type="move" name="U"/>
    </contour>
  </outline>
</glyph>
<glyph name="LtnCapICircum" format="1">
  <advance width="1045"/>
  <unicode hex="00CE"/>
  <outline>
    <component base="LtnCapI"/>
    <component base="CombCircum" xOffset="1100" yOffset="430"/>
    <contour>
      <point x="520" y="0" type="move" name="H"/>
    </contour>
    <contour>
      <point x="516" y="-100" type="move" name="L"/>
    </contour>
    <contour>
      <point x="712" y="0" type="move" name="O"/>
    </contour>
    <contour>
      <point x="1014" y="1200" type="move" name="R"/>
    </contour>
    <contour>
      <point x="512" y="2065" type="move" name="U"/>
    </contour>
  </outline>
</glyph>
<glyph name="LtnCapIDiaer" format="1">
  <advance width="1045"/>
  <unicode hex="00CF"/>
  <outline>
    <component base="LtnCapI"/>
    <component base="CombDiaer" xOffset="1100" yOffset="430"/>
    <contour>
      <point x="520" y="0" type="move" name="H"/>
    </contour>
    <contour>
      <point x="516" y="-100" type="move" name="L"/>
    </contour>
    <contour>
      <point x="712" y="0" type="move" name="O"/>
    </contour>
    <contour>
      <point x="1014" y="1200" type="move" name="R"/>
    </contour>
    <contour>
      <point x="520" y="2015" type="move" name="U"/>
    </contour>
  </outline>
</glyph>
<glyph name="LtnCapEth" format="2">
  <advance width="1500"/>
  <unicode hex="00D0"/>
  <anchor x="730" y="-100" name="L"/>
  <anchor x="730" y="1530" name="U"/>
  <outline>
    <contour>
      <point x="180" y="455" type="line"/>
      <point x="179" y="257"/>
      <point x="180" y="80"/>
      <point x="165" y="0" type="curve"/>
      <point x="165" y="0"/>
      <point x="489" y="-10"/>
      <point x="624" y="-10" type="curve" smooth="yes"/>
      <point x="934" y="-10"/>
      <point x="1385" y="145"/>
      <point x="1385" y="740" type="curve" smooth="yes"/>
      <point x="1385" y="1374"/>
      <point x="921" y="1470"/>
      <point x="645" y="1470" type="curve" smooth="yes"/>
      <point x="502" y="1470"/>
      <point x="254" y="1466"/>
      <point x="165" y="1460" type="curve"/>
      <point x="180" y="1380"/>
      <point x="180" y="1196"/>
      <point x="180" y="1000" type="curve" smooth="yes"/>
    </contour>
    <contour>
      <point x="465" y="1241" type="line"/>
      <point x="507" y="1243"/>
      <point x="597" y="1246"/>
      <point x="652" y="1246" type="curve" smooth="yes"/>
      <point x="912" y="1246"/>
      <point x="1093" y="1118"/>
      <point x="1093" y="720" type="curve" smooth="yes"/>
      <point x="1093" y="357"/>
      <point x="871" y="221"/>
      <point x="648" y="221" type="curve" smooth="yes"/>
      <point x="569" y="221"/>
      <point x="504" y="227"/>
      <point x="465" y="231" type="curve"/>
    </contour>
    <contour>
      <point x="11" y="854" type="line"/>
      <point x="11" y="644" type="line"/>
      <point x="806" y="644" type="line"/>
      <point x="806" y="854" type="line"/>
    </contour>
  </outline>
</glyph>
<glyph name="LtnCapNTilde" format="1">
  <advance width="1545"/>
  <unicode hex="00D1"/>
  <outline>
    <component base="LtnCapN"/>
    <component base="CombTilde" xOffset="1345" yOffset="430"/>
    <contour>
      <point x="1240" y="0" type="move" name="H"/>
    </contour>
    <contour>
      <point x="765" y="-100" type="move" name="L"/>
    </contour>
    <contour>
      <point x="765" y="1920" type="move" name="U"/>
    </contour>
  </outline>
</glyph>
<glyph name="LtnCapOGrave" format="1">
  <advance width="1500"/>
  <unicode hex="00D2"/>
  <outline>
    <component base="LtnCapO"/>
    <component base="CombGrave" xOffset="1370" yOffset="430"/>
    <contour>
      <point x="740" y="0" type="move" name="H"/>
    </contour>
    <contour>
      <point x="740" y="-100" type="move" name="L"/>
    </contour>
    <contour>
      <point x="976" y="0" type="move" name="O"/>
    </contour>
    <contour>
      <point x="1480" y="1200" type="move" name="R"/>
    </contour>
    <contour>
      <point x="780" y="2065" type="move" name="U"/>
    </contour>
  </outline>
</glyph>
<glyph name="LtnCapOCircum" format="1">
  <advance width="1500"/>
  <unicode hex="00D4"/>
  <outline>
    <component base="LtnCapO"/>
    <component base="CombCircum" xOffset="1320" yOffset="430"/>
    <contour>
      <point x="740" y="0" type="move" name="H"/>
    </contour>
    <contour>
      <point x="740" y="-100" type="move" name="L"/>
    </contour>
    <contour>
      <point x="976" y="0" type="move" name="O"/>
    </contour>
    <contour>
      <point x="1480" y="1200" type="move" name="R"/>
    </contour>
    <contour>
      <point x="732" y="2065" type="move" name="U"/>
    </contour>
  </outline>
</glyph>
<glyph name="LtnCapOTilde" format="2">
  <advance width="1500"/>
  <unicode hex="00D5"/>
  <anchor x="740" y="0" name="H"/>
  <anchor x="740" y="-100" name="L"/>
  <anchor x="976" y="0" name="O"/>
  <anchor x="1480" y="1200" name="R"/>
  <anchor x="740" y="1920" name="U"/>
  <anchor x="740" y="1530" name="_U"/>
  <outline>
    <contour>
      <point x="490" y="1620" type="line"/>
      <point x="496" y="1662"/>
      <point x="517" y="1710"/>
      <point x="567" y="1710" type="curve" smooth="yes"/>
      <point x="610" y="1710"/>
      <point x="667" y="1694"/>
      <point x="750" y="1659" type="curve" smooth="yes"/>
      <point x="820" y="1629"/>
      <point x="872" y="1610"/>
      <point x="934" y="1610" type="curve" smooth="yes"/>
      <point x="1070" y="1610"/>
      <point x="1165" y="1737"/>
      <point x="1165" y="1910" type="curve"/>
      <point x="1010" y="1910" type="line"/>
      <point x="1002" y="1868"/>
      <point x="980" y="1820"/>
      <point x="933" y="1820" type="curve" smooth="yes"/>
      <point x="885" y="1820"/>
      <point x="848" y="1838"/>
      <point x="770" y="1867" type="curve" smooth="yes"/>
      <point x="691" y="1896"/>
      <point x="625" y="1920"/>
      <point x="560" y="1920" type="curve" smooth="yes"/>
      <point x="428" y="1920"/>
      <point x="335" y="1779"/>
      <point x="335" y="1620" type="curve"/>
    </contour>
    <contour>
      <point x="1100" y="715" type="curve" smooth="yes"/>
      <point x="1100" y="404"/>
      <point x="940" y="220"/>
      <point x="740" y="220" type="curve" smooth="yes"/>
      <point x="524" y="220"/>
      <point x="375" y="423"/>
      <point x="375" y="745" type="curve" smooth="yes"/>
      <point x="375" y="1048"/>
      <point x="529" y="1240"/>
      <point x="740" y="1240" type="curve" smooth="yes"/>
      <point x="951" y="1240"/>
      <point x="1100" y="1041"/>
    </contour>
    <contour>
      <point x="1385" y="740" type="curve" smooth="yes"/>
      <point x="1385" y="1219"/>
      <point x="1091" y="1485"/>
      <point x="750" y="1485" type="curve" smooth="yes"/>
      <point x="404" y="1485"/>
      <point x="90" y="1199"/>
      <point x="90" y="720" type="curve" smooth="yes"/>
      <point x="90" y="241"/>
      <point x="385" y="-25"/>
      <point x="730" y="-25" type="curve" smooth="yes"/>
      <point x="1072" y="-25"/>
      <point x="1385" y="260"/>
    </contour>
  </outline>
</glyph>
<glyph name="LtnCapODiaer" format="1">
  <advance width="1500"/>
  <unicode hex="00D6"/>
  <outline>
    <component base="LtnCapO"/>
    <component base="CombDiaer" xOffset="1320" yOffset="430"/>
    <contour>
      <point x="740" y="0" type="move" name="H"/>
    </contour>
    <contour>
      <point x="740" y="-100" type="move" name="L"/>
    </contour>
    <contour>
      <point x="976" y="0" type="move" name="O"/>
    </contour>
    <contour>
      <point x="1480" y="1200" type="move" name="R"/>
    </contour>
    <contour>
      <point x="740" y="2015" type="move" name="U"/>
    </contour>
  </outline>
</glyph>
<glyph name="MultSgn" format="2">
  <advance width="1200"/>
  <unicode hex="00D7"/>
  <outline>
    <contour>
      <point x="195" y="990" type="line"/>
      <point x="453" y="732" type="line"/>
      <point x="199" y="478" type="line"/>
      <point x="347" y="330" type="line"/>
      <point x="601" y="584" type="line"/>
      <point x="856" y="328" type="line"/>
      <point x="1005" y="477" type="line"/>
      <point x="749" y="732" type="line"/>
      <point x="1004" y="987" type="line"/>
      <point x="856" y="1135" type="line"/>
      <point x="601" y="880" type="line"/>
      <point x="344" y="1138" type="line"/>
    </contour>
  </outline>
</glyph>
<glyph name="LtnCapOStrk" format="1">
  <advance width="1500"/>
  <unicode hex="00D8"/>
  <outline>
    <contour>
      <point x="1071" y="1533" type="line"/>
      <point x="171" y="-80" type="line"/>
      <point x="401" y="-80" type="line"/>
      <point x="1301" y="1533" type="line"/>
    </contour>
    <contour>
      <point x="1100" y="715" type="curve" smooth="yes"/>
      <point x="1100" y="404"/>
      <point x="940" y="220"/>
      <point x="740" y="220" type="curve" smooth="yes"/>
      <point x="524" y="220"/>
      <point x="375" y="423"/>
      <point x="375" y="745" type="curve" smooth="yes"/>
      <point x="375" y="1048"/>
      <point x="529" y="1240"/>
      <point x="740" y="1240" type="curve" smooth="yes"/>
      <point x="951" y="1240"/>
      <point x="1100" y="1041"/>
    </contour>
    <contour>
      <point x="1385" y="740" type="curve" smooth="yes"/>
      <point x="1385" y="1219"/>
      <point x="1091" y="1485"/>
      <point x="750" y="1485" type="curve" smooth="yes" name="hr01"/>
      <point x="404" y="1485"/>
      <point x="90" y="1199"/>
      <point x="90" y="720" type="curve" smooth="yes"/>
      <point x="90" y="241"/>
      <point x="385" y="-25"/>
      <point x="730" y="-25" type="curve" smooth="yes"/>
      <point x="1072" y="-25"/>
      <point x="1385" y="260"/>
    </contour>
    <contour>
      <point x="737" y="-100" type="move" name="L"/>
    </contour>
    <contour>
      <point x="737" y="1530" type="move" name="U"/>
    </contour>
  </outline>
</glyph>
<glyph name="LtnCapUGrave" format="1">
  <advance width="1490"/>
  <unicode hex="00D9"/>
  <outline>
    <component base="LtnCapU"/>
    <component base="CombGrave" xOffset="1362" yOffset="430"/>
    <contour>
      <point x="732" y="0" type="move" name="H"/>
    </contour>
    <contour>
      <point x="732" y="-100" type="move" name="L"/>
    </contour>
    <contour>
      <point x="950" y="0" type="move" name="O"/>
    </contour>
    <contour>
      <point x="1480" y="1200" type="move" name="R"/>
    </contour>
    <contour>
      <point x="772" y="2065" type="move" name="U"/>
    </contour>
  </outline>
</glyph>
<glyph name="LtnCapUAcute" format="1">
  <advance width="1490"/>
  <unicode hex="00DA"/>
  <outline>
    <component base="LtnCapU"/>
    <component base="CombAcute" xOffset="1272" yOffset="430"/>
    <contour>
      <point x="732" y="0" type="move" name="H"/>
    </contour>
    <contour>
      <point x="732" y="-100" type="move" name="L"/>
    </contour>
    <contour>
      <point x="950" y="0" type="move" name="O"/>
    </contour>
    <contour>
      <point x="1480" y="1200" type="move" name="R"/>
    </contour>
    <contour>
      <point x="672" y="2065" type="move" name="U"/>
    </contour>
  </outline>
</glyph>
<glyph name="LtnCapYAcute" format="1">
  <advance width="1364"/>
  <unicode hex="00DD"/>
  <outline>
    <component base="LtnCapY"/>
    <component base="CombAcute" xOffset="1212" yOffset="430"/>
    <contour>
      <point x="672" y="-100" type="move" name="L"/>
    </contour>
    <contour>
      <point x="612" y="2065" type="move" name="U"/>
    </contour>
  </outline>
</glyph>
<glyph name="LtnCapThorn" format="1">
  <advance width="1275"/>
  <unicode hex="00DE"/>
  <outline>
    <contour>
      <point x="450" y="1455" type="line" name="hr00"/>
      <point x="150" y="1455" type="line"/>
      <point x="165" y="1375"/>
      <point x="165" y="1196"/>
      <point x="165" y="1000" type="curve" smooth="yes"/>
      <point x="165" y="435" type="line" smooth="yes"/>
      <point x="165" y="238"/>
      <point x="165" y="80"/>
      <point x="150" y="0" type="curve"/>
      <point x="465" y="0" type="line"/>
      <point x="451" y="78"/>
      <point x="450" y="120"/>
      <point x="450" y="318" type="curve"/>
      <point x="515" y="311"/>
      <point x="575" y="308"/>
      <point x="648" y="308" type="curve" smooth="yes"/>
      <point x="977" y="308"/>
      <point x="1200" y="497"/>
      <point x="1200" y="805" type="curve" smooth="yes"/>
      <point x="1200" y="1111"/>
      <point x="981" y="1265"/>
      <point x="658" y="1265" type="curve" smooth="yes"/>
      <point x="592" y="1265"/>
      <point x="520" y="1263"/>
      <point x="450" y="1263" type="curve"/>
    </contour>
    <contour>
      <point x="450" y="1035" type="line"/>
      <point x="506" y="1038"/>
      <point x="544" y="1040"/>
      <point x="622" y="1040" type="curve" smooth="yes"/>
      <point x="833" y="1040"/>
      <point x="915" y="940"/>
      <point x="915" y="795" type="curve" smooth="yes"/>
      <point x="915" y="615"/>
      <point x="811" y="525"/>
      <point x="618" y="525" type="curve" smooth="yes"/>
      <point x="556" y="525"/>
      <point x="493" y="528"/>
      <point x="450" y="535" type="curve"/>
    </contour>
    <contour>
      <point x="700" y="-100" type="move" name="L"/>
    </contour>
    <contour>
      <point x="670" y="1530" type="move" name="U"/>
    </contour>
  </outline>
</glyph>
<glyph name="LtnSmSharpS" format="2">
  <advance width="1421"/>
  <unicode hex="00DF"/>
  <anchor x="708" y="-100" name="L"/>
  <anchor x="730" y="1635" name="U"/>
  <outline>
    <contour>
      <point x="619" y="68" type="line"/>
      <point x="677" y="20"/>
      <point x="807" y="-25"/>
      <point x="917" y="-25" type="curve" smooth="yes"/>
      <point x="1175" y="-25"/>
      <point x="1361" y="106"/>
      <point x="1361" y="328" type="curve" smooth="yes"/>
      <point x="1361" y="510"/>
      <point x="1242" y="590"/>
      <point x="1129" y="657" type="curve" smooth="yes"/>
      <point x="1028" y="717"/>
      <point x="931" y="762"/>
      <point x="931" y="855" type="curve" smooth="yes"/>
      <point x="931" y="1009"/>
      <point x="1244" y="975"/>
      <point x="1244" y="1264" type="curve" smooth="yes"/>
      <point x="1244" y="1445"/>
      <point x="1071" y="1620"/>
      <point x="730" y="1620" type="curve" smooth="yes"/>
      <point x="452" y="1620"/>
      <point x="180" y="1480"/>
      <point x="180" y="1120" type="curve" smooth="yes"/>
      <point x="180" y="494" type="line" smooth="yes"/>
      <point x="180" y="300"/>
      <point x="172" y="105"/>
      <point x="150" y="0" type="curve"/>
      <point x="460" y="0" type="line"/>
      <point x="460" y="1140" type="line" smooth="yes"/>
      <point x="460" y="1289"/>
      <point x="567" y="1397"/>
      <point x="758" y="1397" type="curve" smooth="yes"/>
      <point x="856" y="1397"/>
      <point x="974" y="1338"/>
      <point x="974" y="1254" type="curve" smooth="yes"/>
      <point x="974" y="1092"/>
      <point x="660" y="1089"/>
      <point x="660" y="845" type="curve" smooth="yes"/>
      <point x="660" y="696"/>
      <point x="747" y="617"/>
      <point x="843" y="556" type="curve" smooth="yes"/>
      <point x="961" y="481"/>
      <point x="1091" y="434"/>
      <point x="1091" y="319" type="curve" smooth="yes"/>
      <point x="1091" y="243"/>
      <point x="1018" y="200"/>
      <point x="920" y="200" type="curve" smooth="yes"/>
      <point x="828" y="200"/>
      <point x="724" y="245"/>
      <point x="669" y="293" type="curve"/>
    </contour>
  </outline>
</glyph>
<glyph name="LtnSmACircum.SngStory" format="1">
  <advance width="1256"/>
  <unicode hex="00E2"/>
  <outline>
    <component base="LtnSmAlpha"/>
    <component base="CombCircum" xOffset="1230"/>
    <contour>
      <point x="1040" y="0" type="move" name="H"/>
    </contour>
    <contour>
      <point x="650" y="-100" type="move" name="L"/>
    </contour>
    <contour>
      <point x="1225" y="0" type="move" name="O"/>
    </contour>
    <contour>
      <point x="1250" y="1000" type="move" name="R"/>
    </contour>
    <contour>
      <point x="642" y="1635" type="move" name="U"/>
    </contour>
  </outline>
</glyph>
<glyph name="LtnSmADiaer.SngStory" format="1">
  <advance width="1256"/>
  <unicode hex="00E4"/>
  <outline>
    <component base="LtnSmAlpha"/>
    <component base="CombDiaer" xOffset="1230"/>
    <contour>
      <point x="1040" y="0" type="move" name="H"/>
    </contour>
    <contour>
      <point x="650" y="-100" type="move" name="L"/>
    </contour>
    <contour>
      <point x="1225" y="0" type="move" name="O"/>
    </contour>
    <contour>
      <point x="1250" y="1000" type="move" name="R"/>
    </contour>
    <contour>
      <point x="650" y="1585" type="move" name="U"/>
    </contour>
  </outline>
</glyph>
<glyph name="LtnSmAe" format="2">
  <advance width="1778"/>
  <unicode hex="00E6"/>
  <anchor x="1237" y="0" name="H"/>
  <anchor x="855" y="-100" name="L"/>
  <anchor x="1585" y="0" name="O"/>
  <anchor x="1815" y="1000" name="R"/>
  <anchor x="941" y="1100" name="U"/>
  <outline>
    <contour>
      <point x="1662" y="306" type="line"/>
      <point x="1538" y="232"/>
      <point x="1413" y="205"/>
      <point x="1282" y="205" type="curve" smooth="yes"/>
      <point x="1131" y="205"/>
      <point x="1046" y="277"/>
      <point x="1032" y="450" type="curve"/>
      <point x="1678" y="450" type="line"/>
      <point x="1678" y="532" type="line" smooth="yes"/>
      <point x="1678" y="782"/>
      <point x="1592" y="1040"/>
      <point x="1257" y="1040" type="curve" smooth="yes"/>
      <point x="1131" y="1040"/>
      <point x="1024" y="994"/>
      <point x="941" y="915" type="curve"/>
      <point x="866" y="992"/>
      <point x="754" y="1040"/>
      <point x="615" y="1040" type="curve" smooth="yes"/>
      <point x="446" y="1040"/>
      <point x="329" y="994"/>
      <point x="215" y="950" type="curve"/>
      <point x="209" y="868"/>
      <point x="206" y="735"/>
      <point x="205" y="691" type="curve"/>
      <point x="322" y="773"/>
      <point x="424" y="816"/>
      <point x="530" y="816" type="curve" smooth="yes"/>
      <point x="680" y="816"/>
      <point x="770" y="785"/>
      <point x="770" y="710" type="curve" smooth="yes"/>
      <point x="770" y="646" type="line"/>
      <point x="729" y="644"/>
      <point x="569" y="637"/>
      <point x="500" y="631" type="curve" smooth="yes"/>
      <point x="190" y="604"/>
      <point x="100" y="438"/>
      <point x="100" y="285" type="curve" smooth="yes"/>
      <point x="100" y="121"/>
      <point x="245" y="-25"/>
      <point x="445" y="-25" type="curve" smooth="yes"/>
      <point x="562" y="-25"/>
      <point x="683" y="29"/>
      <point x="800" y="135" type="curve" smooth="yes"/>
      <point x="811" y="145"/>
      <point x="833" y="166"/>
      <point x="845" y="180" type="curve"/>
      <point x="936" y="43"/>
      <point x="1090" y="-25"/>
      <point x="1257" y="-25" type="curve" smooth="yes"/>
      <point x="1413" y="-25"/>
      <point x="1539" y="2"/>
      <point x="1683" y="75" type="curve"/>
    </contour>
    <contour>
      <point x="759" y="460" type="curve"/>
      <point x="760" y="430"/>
      <point x="764" y="395"/>
      <point x="772" y="356" type="curve"/>
      <point x="765" y="346"/>
      <point x="758" y="338"/>
      <point x="751" y="329" type="curve" smooth="yes"/>
      <point x="665" y="223"/>
      <point x="594" y="205"/>
      <point x="518" y="205" type="curve" smooth="yes"/>
      <point x="436" y="205"/>
      <point x="380" y="256"/>
      <point x="380" y="320" type="curve" smooth="yes"/>
      <point x="380" y="386"/>
      <point x="421" y="431"/>
      <point x="560" y="446" type="curve" smooth="yes"/>
      <point x="606" y="451"/>
      <point x="713" y="458"/>
    </contour>
    <contour>
      <point x="1038" y="630" type="line"/>
      <point x="1061" y="772"/>
      <point x="1128" y="830"/>
      <point x="1243" y="830" type="curve" smooth="yes"/>
      <point x="1361" y="830"/>
      <point x="1423" y="770"/>
      <point x="1423" y="630" type="curve"/>
    </contour>
  </outline>
</glyph>
<glyph name="LtnSmCCedilla" format="1">
  <advance width="1022"/>
  <unicode hex="00E7"/>
  <outline>
    <component base="LtnSmC"/>
    <component base="CombCedilla" xOffset="985" yOffset="1"/>
    <contour>
      <point x="525" y="-529" type="move" name="L"/>
    </contour>
    <contour>
      <point x="1020" y="1001" type="move" name="R"/>
    </contour>
    <contour>
      <point x="575" y="1101" type="move" name="U"/>
    </contour>
  </outline>
</glyph>
<glyph name="LtnSmEAcute" format="1">
  <advance width="1110"/>
  <unicode hex="00E9"/>
  <outline>
    <component base="LtnSmE"/>
    <component base="CombAcute" xOffset="1120"/>
    <contour>
      <point x="569" y="0" type="move" name="H"/>
    </contour>
    <contour>
      <point x="589" y="-100" type="move" name="L"/>
    </contour>
    <contour>
      <point x="900" y="0" type="move" name="O"/>
    </contour>
    <contour>
      <point x="1130" y="1000" type="move" name="R"/>
    </contour>
    <contour>
      <point x="520" y="1635" type="move" name="U"/>
    </contour>
  </outline>
</glyph>
<glyph name="LtnSmEDiaer" format="1">
  <advance width="1110"/>
  <unicode hex="00EB"/>
  <outline>
    <component base="LtnSmE"/>
    <component base="CombDiaer" xOffset="1160"/>
    <contour>
      <point x="569" y="0" type="move" name="H"/>
    </contour>
    <contour>
      <point x="589" y="-100" type="move" name="L"/>
    </contour>
    <contour>
      <point x="900" y="0" type="move" name="O"/>
    </contour>
    <contour>
      <point x="1130" y="1000" type="move" name="R"/>
    </contour>
    <contour>
      <point x="580" y="1585" type="move" name="U"/>
    </contour>
  </outline>
</glyph>
<glyph name="LtnSmIGrave" format="1">
  <advance width="645"/>
  <unicode hex="00EC"/>
  <outline>
    <component base="LtnSmDotlessI"/>
    <component base="CombGrave" xOffset="950"/>
    <contour>
      <point x="320" y="0" type="move" name="H"/>
    </contour>
    <contour>
      <point x="320" y="-100" type="move" name="L"/>
    </contour>
    <contour>
      <point x="580" y="0" type="move" name="O"/>
    </contour>
    <contour>
      <point x="640" y="1000" type="move" name="R"/>
    </contour>
    <contour>
      <point x="360" y="1635" type="move" name="U"/>
    </contour>
  </outline>
</glyph>
<glyph name="LtnSmIAcute" format="1">
  <advance width="645"/>
  <unicode hex="00ED"/>
  <outline>
    <component base="LtnSmDotlessI"/>
    <component base="CombAcute" xOffset="860"/>
    <contour>
      <point x="320" y="0" type="move" name="H"/>
    </contour>
    <contour>
      <point x="320" y="-100" type="move" name="L"/>
    </contour>
    <contour>
      <point x="580" y="0" type="move" name="O"/>
    </contour>
    <contour>
      <point x="640" y="1000" type="move" name="R"/>
    </contour>
    <contour>
      <point x="260" y="1635" type="move" name="U"/>
    </contour>
  </outline>
</glyph>
<glyph name="LtnSmIDiaer" format="1">
  <advance width="645"/>
  <unicode hex="00EF"/>
  <outline>
    <component base="LtnSmDotlessI"/>
    <component base="CombDiaer" xOffset="900"/>
    <contour>
      <point x="320" y="0" type="move" name="H"/>
    </contour>
    <contour>
      <point x="320" y="-100" type="move" name="L"/>
    </contour>
    <contour>
      <point x="580" y="0" type="move" name="O"/>
    </contour>
    <contour>
      <point x="640" y="1000" type="move" name="R"/>
    </contour>
    <contour>
      <point x="320" y="1585" type="move" name="U"/>
    </contour>
  </outline>
</glyph>
<glyph name="LtnSmEth" format="1">
  <advance width="1163"/>
  <unicode hex="00F0"/>
  <outline>
    <contour>
      <point x="258" y="1532" type="line" name="hr00"/>
      <point x="476" y="1427"/>
      <point x="712" y="1138"/>
      <point x="791" y="868" type="curve"/>
      <point x="722" y="954"/>
      <point x="646" y="1000"/>
      <point x="525" y="1000" type="curve" smooth="yes"/>
      <point x="333" y="1000"/>
      <point x="90" y="811"/>
      <point x="90" y="487" type="curve" smooth="yes"/>
      <point x="90" y="153"/>
      <point x="287" y="-25"/>
      <point x="569" y="-25" type="curve" smooth="yes"/>
      <point x="882" y="-25"/>
      <point x="1069" y="185"/>
      <point x="1069" y="606" type="curve" smooth="yes"/>
      <point x="1069" y="1030"/>
      <point x="783" y="1452"/>
      <point x="502" y="1620" type="curve"/>
    </contour>
    <contour>
      <point x="371" y="487" type="curve" smooth="yes"/>
      <point x="371" y="666"/>
      <point x="448" y="782"/>
      <point x="579" y="782" type="curve" smooth="yes"/>
      <point x="704" y="782"/>
      <point x="790" y="674"/>
      <point x="790" y="487" type="curve" smooth="yes"/>
      <point x="790" y="308"/>
      <point x="711" y="191"/>
      <point x="579" y="191" type="curve" smooth="yes"/>
      <point x="456" y="191"/>
      <point x="371" y="299"/>
    </contour>
    <contour>
      <point x="1006" y="1447" type="line"/>
      <point x="889" y="1589" type="line"/>
      <point x="299" y="1224" type="line"/>
      <point x="409" y="1076" type="line"/>
    </contour>
    <contour>
      <point x="580" y="-100" type="move" name="L"/>
    </contour>
    <contour>
      <point x="580" y="1635" type="move" name="U"/>
    </contour>
  </outline>
</glyph>
<glyph name="LtnSmNTilde" format="1">
  <advance width="1245"/>
  <unicode hex="00F1"/>
  <outline>
    <component base="LtnSmN"/>
    <component base="CombTilde" xOffset="1200"/>
    <contour>
      <point x="620" y="0" type="move" name="H"/>
    </contour>
    <contour>
      <point x="620" y="-100" type="move" name="L"/>
    </contour>
    <contour>
      <point x="620" y="1490" type="move" name="U"/>
    </contour>
  </outline>
</glyph>
<glyph name="LtnSmOAcute" format="1">
  <advance width="1160"/>
  <unicode hex="00F3"/>
  <outline>
    <component base="LtnSmO"/>
    <component base="CombAcute" xOffset="1120"/>
    <contour>
      <point x="578" y="0" type="move" name="H"/>
    </contour>
    <contour>
      <point x="580" y="-100" type="move" name="L"/>
    </contour>
    <contour>
      <point x="790" y="0" type="move" name="O"/>
    </contour>
    <contour>
      <point x="1160" y="1000" type="move" name="R"/>
    </contour>
    <contour>
      <point x="520" y="1635" type="move" name="U"/>
    </contour>
  </outline>
</glyph>
<glyph name="LtnSmOTilde" format="2">
  <advance width="1160"/>
  <unicode hex="00F5"/>
  <anchor x="578" y="0" name="H"/>
  <anchor x="580" y="-100" name="L"/>
  <anchor x="790" y="0" name="O"/>
  <anchor x="1160" y="1000" name="R"/>
  <anchor x="580" y="1490" name="U"/>
  <anchor x="580" y="1100" name="_U"/>
  <outline>
    <contour>
      <point x="330" y="1190" type="line"/>
      <point x="336" y="1232"/>
      <point x="357" y="1280"/>
      <point x="407" y="1280" type="curve" smooth="yes"/>
      <point x="450" y="1280"/>
      <point x="507" y="1264"/>
      <point x="590" y="1229" type="curve" smooth="yes"/>
      <point x="660" y="1199"/>
      <point x="712" y="1180"/>
      <point x="774" y="1180" type="curve" smooth="yes"/>
      <point x="910" y="1180"/>
      <point x="1005" y="1307"/>
      <point x="1005" y="1480" type="curve"/>
      <point x="850" y="1480" type="line"/>
      <point x="842" y="1438"/>
      <point x="820" y="1390"/>
      <point x="773" y="1390" type="curve" smooth="yes"/>
      <point x="725" y="1390"/>
      <point x="688" y="1408"/>
      <point x="610" y="1437" type="curve" smooth="yes"/>
      <point x="531" y="1466"/>
      <point x="465" y="1490"/>
      <point x="400" y="1490" type="curve" smooth="yes"/>
      <point x="268" y="1490"/>
      <point x="175" y="1349"/>
      <point x="175" y="1190" type="curve"/>
    </contour>
    <contour>
      <point x="90" y="507" type="curve" smooth="yes"/>
      <point x="90" y="163"/>
      <point x="288" y="-25"/>
      <point x="570" y="-25" type="curve" smooth="yes"/>
      <point x="840" y="-25"/>
      <point x="1070" y="163"/>
      <point x="1070" y="507" type="curve" smooth="yes"/>
      <point x="1070" y="851"/>
      <point x="873" y="1040"/>
      <point x="590" y="1040" type="curve" smooth="yes"/>
      <point x="320" y="1040"/>
      <point x="90" y="851"/>
    </contour>
    <contour>
      <point x="370" y="507" type="curve" smooth="yes"/>
      <point x="370" y="699"/>
      <point x="451" y="815"/>
      <point x="580" y="815" type="curve" smooth="yes"/>
      <point x="717" y="815"/>
      <point x="790" y="699"/>
      <point x="790" y="507" type="curve" smooth="yes"/>
      <point x="790" y="316"/>
      <point x="709" y="200"/>
      <point x="580" y="200" type="curve" smooth="yes"/>
      <point x="443" y="200"/>
      <point x="370" y="316"/>
    </contour>
  </outline>
</glyph>
<glyph name="LtnSmODiaer" format="1">
  <advance width="1160"/>
  <unicode hex="00F6"/>
  <outline>
    <component base="LtnSmO"/>
    <component base="CombDiaer" xOffset="1160"/>
    <contour>
      <point x="578" y="0" type="move" name="H"/>
    </contour>
    <contour>
      <point x="580" y="-100" type="move" name="L"/>
    </contour>
    <contour>
      <point x="790" y="0" type="move" name="O"/>
    </contour>
    <contour>
      <point x="1160" y="1000" type="move" name="R"/>
    </contour>
    <contour>
      <point x="580" y="1585" type="move" name="U"/>
    </contour>
  </outline>
</glyph>
<glyph name="DivSgn" format="1">
  <advance width="1200"/>
  <unicode hex="00F7"/>
  <outline>
    <contour>
      <point x="155" y="630" type="line" name="hr00"/>
      <point x="1045" y="630" type="line"/>
      <point x="1045" y="830" type="line"/>
      <point x="155" y="830" type="line"/>
    </contour>
    <contour>
      <point x="425" y="330" type="curve" smooth="yes"/>
      <point x="425" y="226"/>
      <point x="499" y="155"/>
      <point x="600" y="155" type="curve" smooth="yes"/>
      <point x="702" y="155"/>
      <point x="775" y="226"/>
      <point x="775" y="330" type="curve" smooth="yes"/>
      <point x="775" y="432"/>
      <point x="702" y="505"/>
      <point x="600" y="505" type="curve" smooth="yes"/>
      <point x="499" y="505"/>
      <point x="425" y="432"/>
    </contour>
    <contour>
      <point x="425" y="1140" type="curve" smooth="yes"/>
      <point x="425" y="1036"/>
      <point x="499" y="965"/>
      <point x="600" y="965" type="curve" smooth="yes"/>
      <point x="702" y="965"/>
      <point x="775" y="1036"/>
      <point x="775" y="1140" type="curve" smooth="yes"/>
      <point x="775" y="1242"/>
      <point x="702" y="1315"/>
      <point x="600" y="1315" type="curve" smooth="yes"/>
      <point x="499" y="1315"/>
      <point x="425" y="1242"/>
    </contour>
  </outline>
</glyph>
<glyph name="LtnSmOStrk" format="1">
  <advance width="1160"/>
  <unicode hex="00F8"/>
  <outline>
    <contour>
      <point x="90" y="507" type="curve" smooth="yes" name="hr00"/>
      <point x="90" y="163"/>
      <point x="288" y="-25"/>
      <point x="570" y="-25" type="curve" smooth="yes"/>
      <point x="840" y="-25"/>
      <point x="1070" y="163"/>
      <point x="1070" y="507" type="curve" smooth="yes"/>
      <point x="1070" y="851"/>
      <point x="873" y="1040"/>
      <point x="590" y="1040" type="curve" smooth="yes"/>
      <point x="320" y="1040"/>
      <point x="90" y="851"/>
    </contour>
    <contour>
      <point x="365" y="507" type="curve" smooth="yes"/>
      <point x="365" y="699"/>
      <point x="451" y="815"/>
      <point x="580" y="815" type="curve" smooth="yes"/>
      <point x="717" y="815"/>
      <point x="795" y="699"/>
      <point x="795" y="507" type="curve" smooth="yes"/>
      <point x="795" y="316"/>
      <point x="709" y="200"/>
      <point x="580" y="200" type="curve" smooth="yes"/>
      <point x="443" y="200"/>
      <point x="365" y="316"/>
    </contour>
    <contour>
      <point x="797" y="1107" type="line"/>
      <point x="159" y="-76" type="line"/>
      <point x="369" y="-76" type="line"/>
      <point x="1007" y="1107" type="line"/>
    </contour>
    <contour>
      <point x="580" y="0" type="move" name="H"/>
    </contour>
    <contour>
      <point x="580" y="-100" type="move" name="L"/>
    </contour>
    <contour>
      <point x="830" y="0" type="move" name="O"/>
    </contour>
    <contour>
      <point x="1180" y="1000" type="move" name="R"/>
    </contour>
    <contour>
      <point x="580" y="1100" type="move" name="U"/>
    </contour>
  </outline>
</glyph>
<glyph name="LtnSmUAcute" format="1">
  <advance width="1245"/>
  <unicode hex="00FA"/>
  <outline>
    <component base="LtnSmU"/>
    <component base="CombAcute" xOffset="1155"/>
    <contour>
      <point x="515" y="0" type="move" name="H"/>
    </contour>
    <contour>
      <point x="615" y="-100" type="move" name="L"/>
    </contour>
    <contour>
      <point x="690" y="0" type="move" name="O"/>
    </contour>
    <contour>
      <point x="1258" y="1000" type="move" name="R"/>
    </contour>
    <contour>
      <point x="555" y="1635" type="move" name="U"/>
    </contour>
  </outline>
</glyph>
<glyph name="LtnSmUDiaer" format="1">
  <advance width="1245"/>
  <unicode hex="00FC"/>
  <outline>
    <component base="LtnSmU"/>
    <component base="CombDiaer" xOffset="1195"/>
    <contour>
      <point x="515" y="0" type="move" name="H"/>
    </contour>
    <contour>
      <point x="615" y="-100" type="move" name="L"/>
    </contour>
    <contour>
      <point x="690" y="0" type="move" name="O"/>
    </contour>
    <contour>
      <point x="1258" y="1000" type="move" name="R"/>
    </contour>
    <contour>
      <point x="615" y="1585" type="move" name="U"/>
    </contour>
  </outline>
</glyph>
<glyph name="LtnSmYAcute" format="1">
  <advance width="1100"/>
  <unicode hex="00FD"/>
  <outline>
    <component base="LtnSmY"/>
    <component base="CombAcute" xOffset="1105"/>
    <contour>
      <point x="845" y="-100" type="move" name="L"/>
    </contour>
    <contour>
      <point x="1155" y="1000" type="move" name="R"/>
    </contour>
    <contour>
      <point x="505" y="1635" type="move" name="U"/>
    </contour>
  </outline>
</glyph>
<glyph name="LtnSmThorn" format="2">
  <advance width="1226"/>
  <unicode hex="00FE"/>
  <anchor x="569" y="-500" name="L"/>
  <anchor x="599" y="1635" name="U"/>
  <outline>
    <contour>
      <point x="120" y="1600" type="line"/>
      <point x="135" y="1488"/>
      <point x="135" y="1273"/>
      <point x="135" y="1130" type="curve" smooth="yes"/>
      <point x="135" y="-490" type="line"/>
      <point x="441" y="-490" type="line"/>
      <point x="424" y="-405"/>
      <point x="416" y="-310"/>
      <point x="416" y="-150" type="curve" smooth="yes"/>
      <point x="416" y="65" type="line"/>
      <point x="509" y="10"/>
      <point x="585" y="-25"/>
      <point x="690" y="-25" type="curve" smooth="yes"/>
      <point x="936" y="-25"/>
      <point x="1136" y="193"/>
      <point x="1136" y="535" type="curve" smooth="yes"/>
      <point x="1136" y="828"/>
      <point x="987" y="1040"/>
      <point x="764" y="1040" type="curve" smooth="yes"/>
      <point x="626" y="1040"/>
      <point x="505" y="969"/>
      <point x="415" y="866" type="curve"/>
      <point x="415" y="1600" type="line"/>
    </contour>
    <contour>
      <point x="416" y="585" type="line"/>
      <point x="473" y="726"/>
      <point x="574" y="802"/>
      <point x="663" y="802" type="curve" smooth="yes"/>
      <point x="784" y="802"/>
      <point x="856" y="686"/>
      <point x="856" y="505" type="curve" smooth="yes"/>
      <point x="856" y="320"/>
      <point x="746" y="206"/>
      <point x="624" y="206" type="curve" smooth="yes"/>
      <point x="555" y="206"/>
      <point x="518" y="225"/>
      <point x="416" y="300" type="curve"/>
    </contour>
  </outline>
</glyph>
<glyph name="LtnSmYDiaer" format="1">
  <advance width="1100"/>
  <unicode hex="00FF"/>
  <outline>
    <component base="LtnSmY"/>
    <component base="CombDiaer" xOffset="1145"/>
    <contour>
      <point x="845" y="-100" type="move" name="L"/>
    </contour>
    <contour>
      <point x="1155" y="1000" type="move" name="R"/>
    </contour>
    <contour>
      <point x="565" y="1585" type="move" name="U"/>
    </contour>
  </outline>
</glyph>
<glyph name="LtnSmAOgonek.SngStory" format="1">
  <advance width="1256"/>
  <unicode hex="0105"/>
  <outline>
    <component base="LtnSmAlpha"/>
    <component base="CombOgonek" xOffset="1575"/>
    <contour>
      <point x="1040" y="0" type="move" name="H"/>
    </contour>
    <contour>
      <point x="1160" y="-430" type="move" name="L"/>
    </contour>
    <contour>
      <point x="1250" y="1000" type="move" name="R"/>
    </contour>
    <contour>
      <point x="650" y="1100" type="move" name="U"/>
    </contour>
  </outline>
</glyph>
<glyph name="LtnCapCAcute" format="1">
  <advance width="1385"/>
  <unicode hex="0106"/>
  <outline>
    <component base="LtnCapC"/>
    <component base="CombAcute" xOffset="1285" yOffset="430"/>
    <contour>
      <point x="745" y="0" type="move" name="H"/>
    </contour>
    <contour>
      <point x="745" y="-100" type="move" name="L"/>
    </contour>
    <contour>
      <point x="685" y="2065" type="move" name="U"/>
    </contour>
  </outline>
</glyph>
<glyph name="LtnCapCCircum" format="1">
  <advance width="1385"/>
  <unicode hex="0108"/>
  <outline>
    <component base="LtnCapC"/>
    <component base="CombCircum" xOffset="1325" yOffset="430"/>
    <contour>
      <point x="745" y="0" type="move" name="H"/>
    </contour>
    <contour>
      <point x="745" y="-100" type="move" name="L"/>
    </contour>
    <contour>
      <point x="737" y="2065" type="move" name="U"/>
    </contour>
  </outline>
</glyph>
<glyph name="LtnSmCDotAbv" format="1">
  <advance width="1022"/>
  <unicode hex="010B"/>
  <outline>
    <component base="LtnSmC"/>
    <component base="CombDotAbv" xOffset="1145" yOffset="1"/>
    <contour>
      <point x="555" y="1" type="move" name="H"/>
    </contour>
    <contour>
      <point x="575" y="-99" type="move" name="L"/>
    </contour>
    <contour>
      <point x="1020" y="1001" type="move" name="R"/>
    </contour>
    <contour>
      <point x="575" y="1556" type="move" name="U"/>
    </contour>
  </outline>
</glyph>
<glyph name="LtnSmCCaron" format="1">
  <advance width="1022"/>
  <unicode hex="010D"/>
  <outline>
    <component base="LtnSmC"/>
    <component base="CombCaron" xOffset="1163" yOffset="1"/>
    <contour>
      <point x="555" y="1" type="move" name="H"/>
    </contour>
    <contour>
      <point x="575" y="-99" type="move" name="L"/>
    </contour>
    <contour>
      <point x="1020" y="1001" type="move" name="R"/>
    </contour>
    <contour>
      <point x="575" y="1636" type="move" name="U"/>
    </contour>
  </outline>
</glyph>
<glyph name="LtnSmDCaron" format="1">
  <advance width="1530"/>
  <unicode hex="010F"/>
  <outline>
    <contour>
      <point x="1115" y="1600" type="line" name="hr01"/>
      <point x="810" y="1600" type="line"/>
      <point x="829" y="1516"/>
      <point x="835" y="1395"/>
      <point x="835" y="1235" type="curve" smooth="yes"/>
      <point x="835" y="955" type="line"/>
      <point x="763" y="999"/>
      <point x="669" y="1040"/>
      <point x="590" y="1040" type="curve" smooth="yes"/>
      <point x="319" y="1040"/>
      <point x="100" y="814"/>
      <point x="100" y="460" type="curve" smooth="yes"/>
      <point x="100" y="167"/>
      <point x="268" y="-25"/>
      <point x="515" y="-25" type="curve" smooth="yes"/>
      <point x="654" y="-25"/>
      <point x="770" y="47"/>
      <point x="860" y="175" type="curve"/>
      <point x="877" y="105"/>
      <point x="900" y="32"/>
      <point x="915" y="0" type="curve" name="hr02"/>
      <point x="1190" y="0" type="line"/>
      <point x="1147" y="112"/>
      <point x="1115" y="278"/>
      <point x="1115" y="530" type="curve" smooth="yes"/>
    </contour>
    <contour>
      <point x="835" y="400" type="line"/>
      <point x="787" y="300"/>
      <point x="676" y="200"/>
      <point x="570" y="200" type="curve" smooth="yes"/>
      <point x="443" y="200"/>
      <point x="380" y="300"/>
      <point x="380" y="490" type="curve" smooth="yes"/>
      <point x="380" y="685"/>
      <point x="485" y="800"/>
      <point x="590" y="800" type="curve" smooth="yes" name="hr03"/>
      <point x="683" y="800"/>
      <point x="743" y="783"/>
      <point x="835" y="738" type="curve" name="hr11"/>
    </contour>
    <contour>
      <point x="1305" y="1600" type="line" name="hr04"/>
      <point x="1240" y="1170" type="line" name="hr05"/>
      <point x="1410" y="1170" type="line" name="hr06"/>
      <point x="1540" y="1600" type="line"/>
    </contour>
    <contour>
      <point x="605" y="0" type="move" name="H"/>
    </contour>
    <contour>
      <point x="605" y="-100" type="move" name="L"/>
    </contour>
    <contour>
      <point x="605" y="1635" type="move" name="U"/>
    </contour>
  </outline>
</glyph>
<glyph name="LtnCapDStrk" format="1">
  <advance width="1500"/>
  <unicode hex="0110"/>
  <outline>
    <contour>
      <point x="180" y="455" type="line"/>
      <point x="179" y="257"/>
      <point x="180" y="80"/>
      <point x="165" y="0" type="curve"/>
      <point x="165" y="0"/>
      <point x="489" y="-10"/>
      <point x="624" y="-10" type="curve" smooth="yes"/>
      <point x="934" y="-10"/>
      <point x="1385" y="145"/>
      <point x="1385" y="740" type="curve" smooth="yes"/>
      <point x="1385" y="1374"/>
      <point x="921" y="1470"/>
      <point x="645" y="1470" type="curve" smooth="yes"/>
      <point x="502" y="1470"/>
      <point x="254" y="1466"/>
      <point x="165" y="1460" type="curve"/>
      <point x="180" y="1380"/>
      <point x="180" y="1196"/>
      <point x="180" y="1000" type="curve" smooth="yes"/>
    </contour>
    <contour>
      <point x="465" y="1241" type="line"/>
      <point x="507" y="1243"/>
      <point x="597" y="1246"/>
      <point x="652" y="1246" type="curve" smooth="yes"/>
      <point x="912" y="1246"/>
      <point x="1093" y="1118"/>
      <point x="1093" y="720" type="curve" smooth="yes"/>
      <point x="1093" y="357"/>
      <point x="871" y="221"/>
      <point x="648" y="221" type="curve" smooth="yes"/>
      <point x="569" y="221"/>
      <point x="504" y="227"/>
      <point x="465" y="231" type="curve"/>
    </contour>
    <contour>
      <point x="11" y="854" type="line" name="hr01"/>
      <point x="11" y="644" type="line"/>
      <point x="806" y="644" type="line"/>
      <point x="806" y="854" type="line"/>
    </contour>
    <contour>
      <point x="730" y="-100" type="move" name="L"/>
    </contour>
    <contour>
      <point x="730" y="1530" type="move" name="U"/>
    </contour>
  </outline>
</glyph>
<glyph name="LtnCapEMacron" format="1">
  <advance width="1212"/>
  <unicode hex="0112"/>
  <outline>
    <component base="LtnCapE"/>
    <component base="CombMacron" xOffset="1180" yOffset="430"/>
    <contour>
      <point x="610" y="0" type="move" name="H"/>
    </contour>
    <contour>
      <point x="610" y="-100" type="move" name="L"/>
    </contour>
    <contour>
      <point x="1004" y="0" type="move" name="O"/>
    </contour>
    <contour>
      <point x="1247" y="1200" type="move" name="R"/>
    </contour>
    <contour>
      <point x="610" y="1880" type="move" name="U"/>
    </contour>
  </outline>
</glyph>
<glyph name="LtnCapEDotAbv" format="1">
  <advance width="1212"/>
  <unicode hex="0116"/>
  <outline>
    <component base="LtnCapE"/>
    <component base="CombDotAbv" xOffset="1180" yOffset="430"/>
    <contour>
      <point x="610" y="0" type="move" name="H"/>
    </contour>
    <contour>
      <point x="610" y="-100" type="move" name="L"/>
    </contour>
    <contour>
      <point x="1004" y="0" type="move" name="O"/>
    </contour>
    <contour>
      <point x="1247" y="1200" type="move" name="R"/>
    </contour>
    <contour>
      <point x="610" y="1985" type="move" name="U"/>
    </contour>
  </outline>
</glyph>
<glyph name="LtnCapGCircum" format="1">
  <advance width="1472"/>
  <unicode hex="011C"/>
  <outline>
    <component base="LtnCapG"/>
    <component base="CombCircum" xOffset="1387" yOffset="430"/>
    <contour>
      <point x="807" y="0" type="move" name="H"/>
    </contour>
    <contour>
      <point x="807" y="-100" type="move" name="L"/>
    </contour>
    <contour>
      <point x="799" y="2065" type="move" name="U"/>
    </contour>
  </outline>
</glyph>
<glyph name="LtnSmGCircum.SngBowl" format="1">
  <advance width="1185"/>
  <unicode hex="011D"/>
  <outline>
    <component base="LtnSmG.SngBowl"/>
    <component base="CombCircum" xOffset="1230"/>
    <contour>
      <point x="575" y="-500" type="move" name="L"/>
    </contour>
    <contour>
      <point x="1185" y="1000" type="move" name="R"/>
    </contour>
    <contour>
      <point x="642" y="1635" type="move" name="U"/>
    </contour>
  </outline>
</glyph>
<glyph name="LtnSmGBreve.SngBowl" format="1">
  <advance width="1185"/>
  <unicode hex="011F"/>
  <outline>
    <component base="LtnSmG.SngBowl"/>
    <component base="CombBreve" xOffset="1230"/>
    <contour>
      <point x="575" y="-500" type="move" name="L"/>
    </contour>
    <contour>
      <point x="1185" y="1000" type="move" name="R"/>
    </contour>
    <contour>
      <point x="650" y="1635" type="move" name="U"/>
    </contour>
  </outline>
</glyph>
<glyph name="LtnCapGDotAbv" format="1">
  <advance width="1472"/>
  <unicode hex="0120"/>
  <outline>
    <component base="LtnCapG"/>
    <component base="CombDotAbv" xOffset="1377" yOffset="430"/>
    <contour>
      <point x="807" y="0" type="move" name="H"/>
    </contour>
    <contour>
      <point x="807" y="-100" type="move" name="L"/>
    </contour>
    <contour>
      <point x="807" y="1985" type="move" name="U"/>
    </contour>
  </outline>
</glyph>
<glyph name="LtnSmGDotAbv.SngBowl" format="1">
  <advance width="1185"/>
  <unicode hex="0121"/>
  <outline>
    <component base="LtnSmG.SngBowl"/>
    <component base="CombDotAbv" xOffset="1220"/>
    <contour>
      <point x="575" y="-500" type="move" name="L"/>
    </contour>
    <contour>
      <point x="1185" y="1000" type="move" name="R"/>
    </contour>
    <contour>
      <point x="650" y="1555" type="move" name="U"/>
    </contour>
  </outline>
</glyph>
<glyph name="LtnSmGCedilla.SngBowl" format="1">
  <advance width="1185"/>
  <unicode hex="0123"/>
  <outline>
    <component base="LtnSmG.SngBowl"/>
    <component base="CombTrndCommaAbv" xOffset="1222"/>
    <contour>
      <point x="575" y="-500" type="move" name="L"/>
    </contour>
    <contour>
      <point x="1185" y="1000" type="move" name="R"/>
    </contour>
    <contour>
      <point x="650" y="1530" type="move" name="U"/>
    </contour>
  </outline>
</glyph>
<glyph name="LtnSmHCircum" format="1">
  <advance width="1235"/>
  <unicode hex="0125"/>
  <outline>
    <contour>
      <point x="415" y="580" type="line"/>
      <point x="450" y="683"/>
      <point x="560" y="795"/>
      <point x="675" y="795" type="curve" smooth="yes"/>
      <point x="782" y="795"/>
      <point x="830" y="744"/>
      <point x="830" y="550" type="curve" smooth="yes"/>
      <point x="830" y="413"/>
      <point x="830" y="0"/>
      <point x="830" y="0" type="curve"/>
      <point x="1110" y="0" type="line"/>
      <point x="1110" y="0"/>
      <point x="1110" y="459"/>
      <point x="1110" y="625" type="curve" smooth="yes"/>
      <point x="1110" y="900"/>
      <point x="1008" y="1040"/>
      <point x="805" y="1040" type="curve" smooth="yes" name="hr01"/>
      <point x="662" y="1040"/>
      <point x="513" y="976"/>
      <point x="415" y="850" type="curve"/>
      <point x="415" y="894"/>
      <point x="415" y="1600"/>
      <point x="415" y="1600" type="curve"/>
      <point x="120" y="1600" type="line"/>
      <point x="135" y="1514"/>
      <point x="135" y="1345"/>
      <point x="135" y="1130" type="curve" smooth="yes"/>
      <point x="135" y="935"/>
      <point x="135" y="0"/>
      <point x="135" y="0" type="curve"/>
      <point x="415" y="0" type="line"/>
    </contour>
    <contour>
      <point x="718" y="1733" type="line"/>
      <point x="428" y="2133" type="line" name="hr02"/>
      <point x="128" y="2133" type="line"/>
      <point x="-162" y="1733" type="line"/>
      <point x="78" y="1733" type="line"/>
      <point x="278" y="1963" type="line"/>
      <point x="478" y="1733" type="line"/>
    </contour>
    <contour>
      <point x="278" y="0" type="move" name="H"/>
    </contour>
    <contour>
      <point x="620" y="-100" type="move" name="L"/>
    </contour>
    <contour>
      <point x="278" y="2170" type="move" name="U"/>
    </contour>
  </outline>
</glyph>
<glyph name="LtnCapHStrk" format="1">
  <advance width="1575"/>
  <unicode hex="0126"/>
  <outline>
    <contour>
      <point x="1085" y="1460" type="line"/>
      <point x="1085" y="860" type="line"/>
      <point x="495" y="860" type="line"/>
      <point x="495" y="1460" type="line"/>
      <point x="195" y="1460" type="line" name="hr01"/>
      <point x="210" y="1380"/>
      <point x="210" y="1227"/>
      <point x="210" y="1030" type="curve" smooth="yes"/>
      <point x="210" y="430" type="line" smooth="yes"/>
      <point x="210" y="233"/>
      <point x="210" y="80"/>
      <point x="195" y="0" type="curve"/>
      <point x="195" y="0"/>
      <point x="495" y="0"/>
      <point x="495" y="0" type="curve"/>
      <point x="495" y="635" type="line"/>
      <point x="1085" y="635" type="line"/>
      <point x="1085" y="0" type="line"/>
      <point x="1085" y="0"/>
      <point x="1385" y="0"/>
      <point x="1385" y="0" type="curve"/>
      <point x="1370" y="80"/>
      <point x="1370" y="233"/>
      <point x="1370" y="430" type="curve" smooth="yes"/>
      <point x="1370" y="1030" type="line" smooth="yes"/>
      <point x="1370" y="1227"/>
      <point x="1370" y="1380"/>
      <point x="1385" y="1460" type="curve"/>
    </contour>
    <contour>
      <point x="45" y="1265" type="line"/>
      <point x="45" y="1060" type="line"/>
      <point x="1530" y="1060" type="line"/>
      <point x="1530" y="1265" type="line"/>
    </contour>
    <contour>
      <point x="790" y="-100" type="move" name="L"/>
    </contour>
    <contour>
      <point x="790" y="1530" type="move" name="U"/>
    </contour>
  </outline>
</glyph>
<glyph name="LtnSmHStrk" format="1">
  <advance width="1250"/>
  <unicode hex="0127"/>
  <outline>
    <contour>
      <point x="430" y="580" type="line"/>
      <point x="465" y="683"/>
      <point x="575" y="795"/>
      <point x="690" y="795" type="curve" smooth="yes"/>
      <point x="797" y="795"/>
      <point x="845" y="744"/>
      <point x="845" y="550" type="curve" smooth="yes"/>
      <point x="845" y="413"/>
      <point x="845" y="0"/>
      <point x="845" y="0" type="curve"/>
      <point x="1125" y="0" type="line"/>
      <point x="1125" y="0"/>
      <point x="1125" y="459"/>
      <point x="1125" y="625" type="curve" smooth="yes"/>
      <point x="1125" y="900"/>
      <point x="1023" y="1040"/>
      <point x="820" y="1040" type="curve" smooth="yes" name="hr01"/>
      <point x="677" y="1040"/>
      <point x="528" y="976"/>
      <point x="430" y="850" type="curve"/>
      <point x="430" y="894"/>
      <point x="430" y="1600"/>
      <point x="430" y="1600" type="curve" name="hr02"/>
      <point x="135" y="1600" type="line"/>
      <point x="150" y="1514"/>
      <point x="150" y="1345"/>
      <point x="150" y="1130" type="curve" smooth="yes"/>
      <point x="150" y="935"/>
      <point x="150" y="0"/>
      <point x="150" y="0" type="curve"/>
      <point x="430" y="0" type="line"/>
    </contour>
    <contour>
      <point x="-10" y="1369" type="line"/>
      <point x="-10" y="1169" type="line"/>
      <point x="778" y="1169" type="line"/>
      <point x="778" y="1369" type="line"/>
    </contour>
    <contour>
      <point x="670" y="-100" type="move" name="L"/>
    </contour>
    <contour>
      <point x="670" y="1635" type="move" name="U"/>
    </contour>
  </outline>
</glyph>
<glyph name="LtnSmITilde" format="1">
  <advance width="645"/>
  <unicode hex="0129"/>
  <outline>
    <component base="LtnSmDotlessI"/>
    <component base="CombTilde" xOffset="900"/>
    <contour>
      <point x="320" y="0" type="move" name="H"/>
    </contour>
    <contour>
      <point x="320" y="-100" type="move" name="L"/>
    </contour>
    <contour>
      <point x="580" y="0" type="move" name="O"/>
    </contour>
    <contour>
      <point x="640" y="1000" type="move" name="R"/>
    </contour>
    <contour>
      <point x="320" y="1490" type="move" name="U"/>
    </contour>
  </outline>
</glyph>
<glyph name="LtnCapIMacron" format="1">
  <advance width="1045"/>
  <unicode hex="012A"/>
  <outline>
    <component base="LtnCapI"/>
    <component base="CombMacron.Short" xOffset="980" yOffset="430"/>
    <contour>
      <point x="520" y="0" type="move" name="H"/>
    </contour>
    <contour>
      <point x="516" y="-100" type="move" name="L"/>
    </contour>
    <contour>
      <point x="712" y="0" type="move" name="O"/>
    </contour>
    <contour>
      <point x="1014" y="1200" type="move" name="R"/>
    </contour>
    <contour>
      <point x="520" y="1880" type="move" name="U"/>
    </contour>
  </outline>
</glyph>
<glyph name="LtnSmIMacron" format="1">
  <advance width="645"/>
  <unicode hex="012B"/>
  <outline>
    <component base="LtnSmDotlessI"/>
    <component base="CombMacron.Short" xOffset="780"/>
    <contour>
      <point x="320" y="0" type="move" name="H"/>
    </contour>
    <contour>
      <point x="320" y="-100" type="move" name="L"/>
    </contour>
    <contour>
      <point x="580" y="0" type="move" name="O"/>
    </contour>
    <contour>
      <point x="640" y="1000" type="move" name="R"/>
    </contour>
    <contour>
      <point x="320" y="1450" type="move" name="U"/>
    </contour>
  </outline>
</glyph>
<glyph name="LtnCapIBreve" format="1">
  <advance width="1045"/>
  <unicode hex="012C"/>
  <outline>
    <component base="LtnCapI"/>
    <component base="CombBreve" xOffset="1100" yOffset="430"/>
    <contour>
      <point x="520" y="0" type="move" name="H"/>
    </contour>
    <contour>
      <point x="516" y="-100" type="move" name="L"/>
    </contour>
    <contour>
      <point x="712" y="0" type="move" name="O"/>
    </contour>
    <contour>
      <point x="1014" y="1200" type="move" name="R"/>
    </contour>
    <contour>
      <point x="520" y="2065" type="move" name="U"/>
    </contour>
  </outline>
</glyph>
<glyph name="LtnCapIOgonek" format="1">
  <advance width="1045"/>
  <unicode hex="012E"/>
  <outline>
    <component base="LtnCapI"/>
    <component base="CombOgonek" xOffset="1062"/>
    <contour>
      <point x="520" y="0" type="move" name="H"/>
    </contour>
    <contour>
      <point x="647" y="-430" type="move" name="L"/>
    </contour>
    <contour>
      <point x="1014" y="1200" type="move" name="R"/>
    </contour>
    <contour>
      <point x="520" y="1530" type="move" name="U"/>
    </contour>
  </outline>
</glyph>
<glyph name="LtnCapIDotAbv" format="1">
  <advance width="1045"/>
  <unicode hex="0130"/>
  <outline>
    <component base="LtnCapI"/>
    <component base="CombDotAbv" xOffset="1090" yOffset="430"/>
    <contour>
      <point x="520" y="0" type="move" name="H"/>
    </contour>
    <contour>
      <point x="516" y="-100" type="move" name="L"/>
    </contour>
    <contour>
      <point x="712" y="0" type="move" name="O"/>
    </contour>
    <contour>
      <point x="1014" y="1200" type="move" name="R"/>
    </contour>
    <contour>
      <point x="520" y="1985" type="move" name="U"/>
    </contour>
  </outline>
</glyph>
<glyph name="LtnSmDotlessI" format="1">
  <advance width="645"/>
  <unicode hex="0131"/>
  <outline>
    <contour>
      <point x="165" y="1020" type="line" name="hr00"/>
      <point x="178" y="915"/>
      <point x="180" y="725"/>
      <point x="180" y="530" type="curve" smooth="yes"/>
      <point x="180" y="336"/>
      <point x="180" y="0"/>
      <point x="180" y="0" type="curve"/>
      <point x="480" y="0" type="line"/>
      <point x="467" y="107"/>
      <point x="460" y="346"/>
      <point x="460" y="475" type="curve" smooth="yes"/>
      <point x="460" y="558"/>
      <point x="460" y="1020"/>
      <point x="460" y="1020" type="curve"/>
    </contour>
    <contour>
      <point x="320" y="0" type="move" name="H"/>
    </contour>
    <contour>
      <point x="320" y="-100" type="move" name="L"/>
    </contour>
    <contour>
      <point x="580" y="0" type="move" name="O"/>
    </contour>
    <contour>
      <point x="640" y="1000" type="move" name="R"/>
    </contour>
    <contour>
      <point x="320" y="1100" type="move" name="U"/>
    </contour>
  </outline>
</glyph>
<glyph name="LtnSmLigIj" format="1">
  <advance width="1248"/>
  <unicode hex="0133"/>
  <outline>
    <contour>
      <point x="165" y="1020" type="line"/>
      <point x="178" y="915"/>
      <point x="180" y="725"/>
      <point x="180" y="530" type="curve" smooth="yes" name="hr01"/>
      <point x="180" y="336"/>
      <point x="180" y="0"/>
      <point x="180" y="0" type="curve"/>
      <point x="480" y="0" type="line"/>
      <point x="467" y="107"/>
      <point x="460" y="346"/>
      <point x="460" y="475" type="curve" smooth="yes"/>
      <point x="460" y="558"/>
      <point x="460" y="1020"/>
      <point x="460" y="1020" type="curve"/>
    </contour>
    <contour>
      <point x="145" y="1385" type="curve" smooth="yes"/>
      <point x="145" y="1281"/>
      <point x="219" y="1210"/>
      <point x="320" y="1210" type="curve" smooth="yes" name="hr02"/>
      <point x="422" y="1210"/>
      <point x="495" y="1281"/>
      <point x="495" y="1385" type="curve" smooth="yes"/>
      <point x="495" y="1487"/>
      <point x="422" y="1560"/>
      <point x="320" y="1560" type="curve" smooth="yes"/>
      <point x="219" y="1560"/>
      <point x="145" y="1487"/>
    </contour>
    <contour>
      <point x="763" y="1385" type="curve" smooth="yes"/>
      <point x="763" y="1281"/>
      <point x="837" y="1210"/>
      <point x="938" y="1210" type="curve" smooth="yes"/>
      <point x="1040" y="1210"/>
      <point x="1113" y="1281"/>
      <point x="1113" y="1385" type="curve" smooth="yes"/>
      <point x="1113" y="1487"/>
      <point x="1040" y="1560"/>
      <point x="938" y="1560" type="curve" smooth="yes"/>
      <point x="837" y="1560"/>
      <point x="763" y="1487"/>
    </contour>
    <contour>
      <point x="1078" y="1020" type="line"/>
      <point x="783" y="1020" type="line"/>
      <point x="796" y="915"/>
      <point x="798" y="725"/>
      <point x="798" y="530" type="curve" name="hr03"/>
      <point x="798" y="20" type="line"/>
      <point x="798" y="-150"/>
      <point x="743" y="-232"/>
      <point x="626" y="-232" type="curve" smooth="yes"/>
      <point x="558" y="-232"/>
      <point x="477" y="-195"/>
      <point x="433" y="-152" type="curve"/>
      <point x="388" y="-389" type="line"/>
      <point x="430" y="-421"/>
      <point x="541" y="-470"/>
      <point x="634" y="-470" type="curve" smooth="yes"/>
      <point x="884" y="-470"/>
      <point x="1078" y="-348"/>
      <point x="1078" y="25" type="curve" smooth="yes"/>
    </contour>
    <contour>
      <point x="299" y="0" type="move" name="H"/>
    </contour>
    <contour>
      <point x="707" y="-500" type="move" name="L"/>
    </contour>
    <contour>
      <point x="580" y="0" type="move" name="O"/>
    </contour>
    <contour>
      <point x="628" y="1505" type="move" name="U"/>
    </contour>
  </outline>
</glyph>
<glyph name="LtnCapJCircum" format="1">
  <advance width="1030"/>
  <unicode hex="0134"/>
  <outline>
    <component base="LtnCapJ"/>
    <component base="CombCircum" xOffset="1285" yOffset="430"/>
    <contour>
      <point x="415" y="-100" type="move" name="L"/>
    </contour>
    <contour>
      <point x="697" y="2065" type="move" name="U"/>
    </contour>
  </outline>
</glyph>
<glyph name="LtnCapKCedilla" format="1">
  <advance width="1430"/>
  <unicode hex="0136"/>
  <outline>
    <component base="LtnCapK"/>
    <component base="CombCommaBlw" xOffset="1320"/>
    <contour>
      <point x="320" y="0" type="move" name="H"/>
    </contour>
    <contour>
      <point x="740" y="-550" type="move" name="L"/>
    </contour>
    <contour>
      <point x="725" y="1530" type="move" name="U"/>
    </contour>
  </outline>
</glyph>
<glyph name="LtnSmKCedilla" format="1">
  <advance width="1138"/>
  <unicode hex="0137"/>
  <outline>
    <component base="LtnSmK"/>
    <component base="CombCommaBlw" xOffset="1165"/>
    <contour>
      <point x="940" y="0" type="move" name="H"/>
    </contour>
    <contour>
      <point x="585" y="-550" type="move" name="L"/>
    </contour>
    <contour>
      <point x="1140" y="1000" type="move" name="R"/>
    </contour>
    <contour>
      <point x="595" y="1635" type="move" name="U"/>
    </contour>
  </outline>
</glyph>
<glyph name="LtnCapLAcute" format="1">
  <advance width="1130"/>
  <unicode hex="0139"/>
  <outline>
    <component base="LtnCapL"/>
    <component base="CombAcute" xOffset="1160" yOffset="430"/>
    <contour>
      <point x="620" y="0" type="move" name="H"/>
    </contour>
    <contour>
      <point x="620" y="-100" type="move" name="L"/>
    </contour>
    <contour>
      <point x="650" y="1200" type="move" name="R"/>
    </contour>
    <contour>
      <point x="560" y="2065" type="move" name="U"/>
    </contour>
  </outline>
</glyph>
<glyph name="LtnSmLAcute" format="1">
  <advance width="640"/>
  <unicode hex="013A"/>
  <outline>
    <component base="LtnSmL"/>
    <component base="CombAcute" xOffset="860" yOffset="535"/>
    <contour>
      <point x="335" y="0" type="move" name="H"/>
    </contour>
    <contour>
      <point x="335" y="-100" type="move" name="L"/>
    </contour>
    <contour>
      <point x="660" y="1000" type="move" name="R"/>
    </contour>
    <contour>
      <point x="260" y="2170" type="move" name="U"/>
    </contour>
  </outline>
</glyph>
<glyph name="LtnCapLCedilla" format="1">
  <advance width="1130"/>
  <unicode hex="013B"/>
  <outline>
    <component base="LtnCapL"/>
    <component base="CombCommaBlw" xOffset="1200"/>
    <contour>
      <point x="620" y="0" type="move" name="H"/>
    </contour>
    <contour>
      <point x="620" y="-550" type="move" name="L"/>
    </contour>
    <contour>
      <point x="650" y="1200" type="move" name="R"/>
    </contour>
    <contour>
      <point x="620" y="1530" type="move" name="U"/>
    </contour>
  </outline>
</glyph>
<glyph name="LtnSmLCedilla" format="1">
  <advance width="640"/>
  <unicode hex="013C"/>
  <outline>
    <component base="LtnSmL"/>
    <component base="CombCommaBlw" xOffset="915"/>
    <contour>
      <point x="335" y="0" type="move" name="H"/>
    </contour>
    <contour>
      <point x="335" y="-550" type="move" name="L"/>
    </contour>
    <contour>
      <point x="660" y="1000" type="move" name="R"/>
    </contour>
    <contour>
      <point x="320" y="1635" type="move" name="U"/>
    </contour>
  </outline>
</glyph>
<glyph name="LtnSmLCaron" format="1">
  <advance width="880"/>
  <unicode hex="013E"/>
  <outline>
    <contour>
      <point x="460" y="1600" type="line" name="hr01"/>
      <point x="160" y="1600" type="line"/>
      <point x="173" y="1485"/>
      <point x="180" y="1324"/>
      <point x="180" y="1130" type="curve" smooth="yes"/>
      <point x="180" y="0" type="line"/>
      <point x="480" y="0" type="line"/>
      <point x="467" y="109"/>
      <point x="460" y="346"/>
      <point x="460" y="475" type="curve" smooth="yes" name="hr05"/>
    </contour>
    <contour>
      <point x="655" y="1600" type="line" name="hr04"/>
      <point x="590" y="1170" type="line" name="hr02"/>
      <point x="760" y="1170" type="line"/>
      <point x="890" y="1600" type="line"/>
    </contour>
    <contour>
      <point x="335" y="0" type="move" name="H"/>
    </contour>
    <contour>
      <point x="335" y="-100" type="move" name="L"/>
    </contour>
    <contour>
      <point x="320" y="1635" type="move" name="U"/>
    </contour>
  </outline>
</glyph>
<glyph name="LtnCapLMiddleDot" format="2">
  <advance width="1490"/>
  <unicode hex="013F"/>
  <anchor x="620" y="0" name="H"/>
  <anchor x="620" y="-100" name="L"/>
  <anchor x="620" y="1530" name="U"/>
  <outline>
    <contour>
      <point x="450" y="230" type="line"/>
      <point x="450" y="1460" type="line"/>
      <point x="150" y="1460" type="line"/>
      <point x="165" y="1380"/>
      <point x="165" y="1222"/>
      <point x="165" y="1025" type="curve" smooth="yes"/>
      <point x="165" y="435" type="line" smooth="yes"/>
      <point x="165" y="238"/>
      <point x="165" y="80"/>
      <point x="150" y="0" type="curve"/>
      <point x="1085" y="0" type="line"/>
      <point x="1085" y="245" type="line"/>
      <point x="1008" y="231"/>
      <point x="855" y="230"/>
      <point x="666" y="230" type="curve" smooth="yes"/>
    </contour>
    <contour>
      <point x="1085" y="710" type="curve" smooth="yes"/>
      <point x="1085" y="606"/>
      <point x="1159" y="535"/>
      <point x="1260" y="535" type="curve" smooth="yes"/>
      <point x="1362" y="535"/>
      <point x="1435" y="606"/>
      <point x="1435" y="710" type="curve" smooth="yes"/>
      <point x="1435" y="812"/>
      <point x="1362" y="885"/>
      <point x="1260" y="885" type="curve" smooth="yes"/>
      <point x="1159" y="885"/>
      <point x="1085" y="812"/>
    </contour>
  </outline>
</glyph>
<glyph name="LtnSmLMiddleDot" format="1">
  <advance width="1031"/>
  <unicode hex="0140"/>
  <outline>
    <contour>
      <point x="630" y="710" type="curve" smooth="yes" name="hr01"/>
      <point x="630" y="606"/>
      <point x="704" y="535"/>
      <point x="805" y="535" type="curve" smooth="yes"/>
      <point x="907" y="535"/>
      <point x="980" y="606"/>
      <point x="980" y="710" type="curve" smooth="yes"/>
      <point x="980" y="812"/>
      <point x="907" y="885"/>
      <point x="805" y="885" type="curve" smooth="yes"/>
      <point x="704" y="885"/>
      <point x="630" y="812"/>
    </contour>
    <contour>
      <point x="460" y="1600" type="line" name="hr02"/>
      <point x="160" y="1600" type="line"/>
      <point x="173" y="1485"/>
      <point x="180" y="1324"/>
      <point x="180" y="1130" type="curve" smooth="yes"/>
      <point x="180" y="0" type="line"/>
      <point x="480" y="0" type="line"/>
      <point x="467" y="109"/>
      <point x="460" y="346"/>
      <point x="460" y="475" type="curve" smooth="yes"/>
    </contour>
    <contour>
      <point x="335" y="0" type="move" name="H"/>
    </contour>
    <contour>
      <point x="335" y="-100" type="move" name="L"/>
    </contour>
    <contour>
      <point x="320" y="1635" type="move" name="U"/>
    </contour>
  </outline>
</glyph>
<glyph name="LtnCapLStrk" format="1">
  <advance width="1150"/>
  <unicode hex="0141"/>
  <outline>
    <contour>
      <point x="470" y="230" type="line" name="hr00"/>
      <point x="470" y="1460" type="line"/>
      <point x="170" y="1460" type="line"/>
      <point x="185" y="1380"/>
      <point x="185" y="1222"/>
      <point x="185" y="1025" type="curve" smooth="yes"/>
      <point x="185" y="435" type="line" smooth="yes"/>
      <point x="185" y="238"/>
      <point x="185" y="80"/>
      <point x="170" y="0" type="curve"/>
      <point x="1105" y="0" type="line"/>
      <point x="1105" y="245" type="line"/>
      <point x="1028" y="231"/>
      <point x="875" y="230"/>
      <point x="686" y="230" type="curve" smooth="yes"/>
    </contour>
    <contour>
      <point x="843" y="929" type="line"/>
      <point x="764" y="1126" type="line"/>
      <point x="-23" y="633" type="line"/>
      <point x="56" y="436" type="line"/>
    </contour>
    <contour>
      <point x="697" y="-100" type="move" name="L"/>
    </contour>
    <contour>
      <point x="697" y="1530" type="move" name="U"/>
    </contour>
  </outline>
</glyph>
<glyph name="LtnSmLStrk" format="1">
  <advance width="860"/>
  <unicode hex="0142"/>
  <outline>
    <contour>
      <point x="568" y="1600" type="line" name="hr00"/>
      <point x="268" y="1600" type="line"/>
      <point x="281" y="1485"/>
      <point x="288" y="1324"/>
      <point x="288" y="1130" type="curve" smooth="yes"/>
      <point x="288" y="0" type="line"/>
      <point x="588" y="0" type="line"/>
      <point x="575" y="109"/>
      <point x="568" y="346"/>
      <point x="568" y="475" type="curve" smooth="yes"/>
    </contour>
    <contour>
      <point x="856" y="1019" type="line"/>
      <point x="777" y="1216" type="line"/>
      <point x="20" y="673" type="line"/>
      <point x="99" y="476" type="line"/>
    </contour>
    <contour>
      <point x="432" y="-100" type="move" name="L"/>
    </contour>
    <contour>
      <point x="432" y="1635" type="move" name="U"/>
    </contour>
  </outline>
</glyph>
<glyph name="LtnCapNAcute" format="1">
  <advance width="1545"/>
  <unicode hex="0143"/>
  <outline>
    <component base="LtnCapN"/>
    <component base="CombAcute" xOffset="1305" yOffset="430"/>
    <contour>
      <point x="1240" y="0" type="move" name="H"/>
    </contour>
    <contour>
      <point x="765" y="-100" type="move" name="L"/>
    </contour>
    <contour>
      <point x="705" y="2065" type="move" name="U"/>
    </contour>
  </outline>
</glyph>
<glyph name="LtnCapEng" format="2">
  <advance width="1511"/>
  <unicode hex="014A"/>
  <anchor x="751" y="-500" name="L"/>
  <anchor x="751" y="1530" name="U"/>
  <outline>
    <contour>
      <point x="106" y="1465" type="line"/>
      <point x="132" y="1364"/>
      <point x="165" y="1176"/>
      <point x="165" y="900" type="curve" smooth="yes"/>
      <point x="165" y="516" type="line" smooth="yes"/>
      <point x="165" y="280"/>
      <point x="165" y="96"/>
      <point x="147" y="0" type="curve"/>
      <point x="445" y="0" type="line"/>
      <point x="445" y="835" type="line"/>
      <point x="497" y="1004"/>
      <point x="689" y="1220"/>
      <point x="828" y="1220" type="curve" smooth="yes"/>
      <point x="1005" y="1220"/>
      <point x="1056" y="1062"/>
      <point x="1056" y="895" type="curve" smooth="yes"/>
      <point x="1056" y="90" type="line" smooth="yes"/>
      <point x="1056" y="-119"/>
      <point x="1025" y="-222"/>
      <point x="895" y="-222" type="curve" smooth="yes"/>
      <point x="817" y="-222"/>
      <point x="775" y="-203"/>
      <point x="746" y="-175" type="curve"/>
      <point x="647" y="-389" type="line"/>
      <point x="693" y="-421"/>
      <point x="772" y="-470"/>
      <point x="893" y="-470" type="curve" smooth="yes"/>
      <point x="1203" y="-470"/>
      <point x="1336" y="-240"/>
      <point x="1336" y="165" type="curve" smooth="yes"/>
      <point x="1336" y="950" type="line" smooth="yes"/>
      <point x="1336" y="1233"/>
      <point x="1210" y="1485"/>
      <point x="922" y="1485" type="curve" smooth="yes"/>
      <point x="742" y="1485"/>
      <point x="593" y="1407"/>
      <point x="431" y="1220" type="curve"/>
      <point x="424" y="1282"/>
      <point x="406" y="1412"/>
      <point x="391" y="1465" type="curve"/>
    </contour>
  </outline>
</glyph>
<glyph name="LtnCapLigOe" format="2">
  <advance width="1990"/>
  <unicode hex="0152"/>
  <anchor x="1011" y="-100" name="L"/>
  <anchor x="1011" y="1530" name="U"/>
  <outline>
    <contour>
      <point x="1875" y="0" type="line"/>
      <point x="1875" y="245" type="line"/>
      <point x="1797" y="231"/>
      <point x="1662" y="230"/>
      <point x="1471" y="230" type="curve" smooth="yes"/>
      <point x="1313" y="230" type="line"/>
      <point x="1313" y="650" type="line"/>
      <point x="1770" y="650" type="line"/>
      <point x="1770" y="875" type="line"/>
      <point x="1313" y="875" type="line"/>
      <point x="1313" y="1230" type="line"/>
      <point x="1845" y="1230" type="line"/>
      <point x="1845" y="1460" type="line"/>
      <point x="1013" y="1460" type="line"/>
      <point x="1013" y="1373" type="line"/>
      <point x="937" y="1440"/>
      <point x="825" y="1485"/>
      <point x="719" y="1485" type="curve" smooth="yes"/>
      <point x="392" y="1485"/>
      <point x="95" y="1199"/>
      <point x="95" y="720" type="curve" smooth="yes"/>
      <point x="95" y="241"/>
      <point x="374" y="-25"/>
      <point x="700" y="-25" type="curve" smooth="yes"/>
      <point x="812" y="-25"/>
      <point x="931" y="25"/>
      <point x="1013" y="102" type="curve"/>
      <point x="1013" y="0" type="line"/>
    </contour>
    <contour>
      <point x="1035" y="715" type="curve" smooth="yes"/>
      <point x="1035" y="404"/>
      <point x="890" y="220"/>
      <point x="710" y="220" type="curve" smooth="yes"/>
      <point x="515" y="220"/>
      <point x="380" y="423"/>
      <point x="380" y="745" type="curve" smooth="yes"/>
      <point x="380" y="1048"/>
      <point x="519" y="1240"/>
      <point x="710" y="1240" type="curve" smooth="yes"/>
      <point x="900" y="1240"/>
      <point x="1035" y="1041"/>
    </contour>
  </outline>
</glyph>
<glyph name="LtnSmLigOe" format="2">
  <advance width="1810"/>
  <unicode hex="0153"/>
  <anchor x="1298" y="0" name="H"/>
  <anchor x="933" y="-100" name="L"/>
  <anchor x="1568" y="0" name="O"/>
  <anchor x="1838" y="1000" name="R"/>
  <anchor x="933" y="1100" name="U"/>
  <outline>
    <contour>
      <point x="1694" y="306" type="line"/>
      <point x="1570" y="232"/>
      <point x="1445" y="205"/>
      <point x="1314" y="205" type="curve" smooth="yes"/>
      <point x="1163" y="205"/>
      <point x="1078" y="277"/>
      <point x="1064" y="450" type="curve"/>
      <point x="1709" y="450" type="line"/>
      <point x="1710" y="469"/>
      <point x="1710" y="506"/>
      <point x="1710" y="532" type="curve" smooth="yes"/>
      <point x="1710" y="782"/>
      <point x="1624" y="1040"/>
      <point x="1289" y="1040" type="curve" smooth="yes"/>
      <point x="1141" y="1040"/>
      <point x="1020" y="990"/>
      <point x="935" y="903" type="curve"/>
      <point x="850" y="992"/>
      <point x="731" y="1040"/>
      <point x="590" y="1040" type="curve" smooth="yes"/>
      <point x="320" y="1040"/>
      <point x="90" y="851"/>
      <point x="90" y="507" type="curve" smooth="yes"/>
      <point x="90" y="163"/>
      <point x="288" y="-25"/>
      <point x="570" y="-25" type="curve" smooth="yes"/>
      <point x="708" y="-25"/>
      <point x="836" y="25"/>
      <point x="928" y="119" type="curve"/>
      <point x="1020" y="24"/>
      <point x="1150" y="-25"/>
      <point x="1289" y="-25" type="curve" smooth="yes"/>
      <point x="1445" y="-25"/>
      <point x="1571" y="2"/>
      <point x="1715" y="75" type="curve"/>
    </contour>
    <contour>
      <point x="370" y="507" type="curve" smooth="yes"/>
      <point x="370" y="699"/>
      <point x="451" y="815"/>
      <point x="580" y="815" type="curve" smooth="yes"/>
      <point x="717" y="815"/>
      <point x="790" y="699"/>
      <point x="790" y="507" type="curve" smooth="yes"/>
      <point x="790" y="316"/>
      <point x="709" y="200"/>
      <point x="580" y="200" type="curve" smooth="yes"/>
      <point x="443" y="200"/>
      <point x="370" y="316"/>
    </contour>
    <contour>
      <point x="1070" y="630" type="line"/>
      <point x="1093" y="772"/>
      <point x="1160" y="830"/>
      <point x="1275" y="830" type="curve" smooth="yes"/>
      <point x="1393" y="830"/>
      <point x="1455" y="770"/>
      <point x="1455" y="630" type="curve"/>
    </contour>
  </outline>
</glyph>
<glyph name="LtnCapRCedilla" format="1">
  <advance width="1380"/>
  <unicode hex="0156"/>
  <outline>
    <component base="LtnCapR"/>
    <component base="CombCommaBlw" xOffset="1270"/>
    <contour>
      <point x="690" y="0" type="move" name="H"/>
    </contour>
    <contour>
      <point x="690" y="-550" type="move" name="L"/>
    </contour>
    <contour>
      <point x="660" y="1530" type="move" name="U"/>
    </contour>
  </outline>
</glyph>
<glyph name="LtnSmRCedilla" format="1">
  <advance width="995"/>
  <unicode hex="0157"/>
  <outline>
    <component base="LtnSmR"/>
    <component base="CombCommaBlw" xOffset="855"/>
    <contour>
      <point x="285" y="0" type="move" name="H"/>
    </contour>
    <contour>
      <point x="275" y="-550" type="move" name="L"/>
    </contour>
    <contour>
      <point x="550" y="1100" type="move" name="U"/>
    </contour>
  </outline>
</glyph>
<glyph name="LtnCapSAcute" format="1">
  <advance width="1243"/>
  <unicode hex="015A"/>
  <outline>
    <component base="LtnCapS"/>
    <component base="CombAcute" xOffset="1156" yOffset="430"/>
    <contour>
      <point x="616" y="0" type="move" name="H"/>
    </contour>
    <contour>
      <point x="616" y="-100" type="move" name="L"/>
    </contour>
    <contour>
      <point x="556" y="2065" type="move" name="U"/>
    </contour>
  </outline>
</glyph>
<glyph name="LtnSmSAcute" format="1">
  <advance width="1035"/>
  <unicode hex="015B"/>
  <outline>
    <component base="LtnSmS"/>
    <component base="CombAcute" xOffset="1070"/>
    <contour>
      <point x="515" y="0" type="move" name="H"/>
    </contour>
    <contour>
      <point x="515" y="-100" type="move" name="L"/>
    </contour>
    <contour>
      <point x="470" y="1635" type="move" name="U"/>
    </contour>
  </outline>
</glyph>
<glyph name="LtnCapSCedilla" format="1">
  <advance width="1243"/>
  <unicode hex="015E"/>
  <outline>
    <component base="LtnCapS"/>
    <component base="CombCedilla" xOffset="1046"/>
    <contour>
      <point x="586" y="-530" type="move" name="L"/>
    </contour>
    <contour>
      <point x="616" y="1530" type="move" name="U"/>
    </contour>
  </outline>
</glyph>
<glyph name="LtnCapSCaron" format="1">
  <advance width="1243"/>
  <unicode hex="0160"/>
  <outline>
    <component base="LtnCapS"/>
    <component base="CombCaron" xOffset="1204" yOffset="430"/>
    <contour>
      <point x="616" y="0" type="move" name="H"/>
    </contour>
    <contour>
      <point x="616" y="-100" type="move" name="L"/>
    </contour>
    <contour>
      <point x="616" y="2065" type="move" name="U"/>
    </contour>
  </outline>
</glyph>
<glyph name="LtnSmSCaron" format="1">
  <advance width="1035"/>
  <unicode hex="0161"/>
  <outline>
    <component base="LtnSmS"/>
    <component base="CombCaron" xOffset="1118"/>
    <contour>
      <point x="515" y="0" type="move" name="H"/>
    </contour>
    <contour>
      <point x="515" y="-100" type="move" name="L"/>
    </contour>
    <contour>
      <point x="530" y="1635" type="move" name="U"/>
    </contour>
  </outline>
</glyph>
